<svg xmlns="http://www.w3.org/2000/svg" viewBox="0 0 1136 547">
  <path fill="#fff" d="m978 209 2.875 1.75c4.3915427 4.64986875 7.05343999 10.61577352 7.1796875 17.02734375-1.50912311 26.5408826-20.9828282 49.24226543-38.59204102 67.64697266-1.6579659 1.7860978-3.23947945 3.62817807-4.82592773 5.47802734C941.04799104 305.02732376 937.19464341 308.78486728 933.1875 312.5l-2.13208008 1.98510742c-4.34343618 4.01320134-8.7363326 7.90687683-13.43359375 11.50585938-1.80498784 1.38311248-3.60142084 2.7774376-5.390625 4.1809082-7.72331766 6.02747482-15.62205149 11.71980982-23.75463867 17.18237305-2.01218936 1.35728336-4.00955298 2.73486529-6.0078125 4.11254882-1.29080748.87041614-2.58244308 1.73960576-3.875 2.60742188l-1.78674316 1.2462616c-2.7969158 1.84468997-4.32592974 2.72158566-7.71911621 2.42488098L867 357c.28318132-2.5636947.57622493-5.12561526.875-7.6875l.23828125-2.18554687c1.1531081-9.71271822 1.1531081-9.71271822 4.57373047-12.50317383 2.23114167-1.550979 4.50590331-3.00080608 6.81298828-4.4362793 1.65187034-1.06440884 3.30162916-2.13210198 4.94921875-3.203125l2.39990234-1.55664062C891.1452549 322.57599879 895.07639868 319.33600884 899 316c1.068606-.8963157 2.13764645-1.7921136 3.20703125-2.6875 2.78885617-2.34105447 5.56272347-4.69901729 8.33007813-7.06542969 1.26839026-1.0812646 2.54463629-2.15330095 3.82226562-3.22363281 3.9661126-3.36658396 7.45038612-6.90621991 10.8046875-10.8828125 1.26998437-1.48074774 2.58066661-2.92719282 3.921875-4.34375 8.75849117-9.28092748 20.74842416-22.8978721 20.953125-36.3671875C949.7264611 248.07730696 949.06572395 245.19717186 948 242c-7.16578558-3.5828928-13.85353225-3.42059523-21.36328125-1.34765625C907.16045048 247.3929342 891.86983027 266.93269897 880 283c-1.10887612 1.47693718-2.21827927 2.95347879-3.328125 4.4296875C868.46359242 298.40635641 860.64780854 309.62757631 853 321l-1.32617187 1.9663086C848.75736298 327.29437015 845.869888 331.64092974 843 336l-1.48291016 2.25146484C830.8010421 354.55414104 820.52138741 371.11247327 810.4375 387.8125c-.48863525.80566406-.9772705 1.61132813-1.4807129 2.44140625C806.06414544 395.07042991 803.45038685 399.94355469 801 405l1.94921875-1.87109375C819.20436327 387.89405611 842.59724346 371.37407189 866 372c6.51971143.57758517 11.95263785 1.56816982 17 6 4.4081196 5.71864164 5.56971704 9.82156533 5 17-3.7390456 16.81225539-18.12518569 29.71835942-32.078125 38.69140625C843.80032224 441.1599149 830.7082477 448.01214613 817 452c7.30921577 16.14320171 17.11422281 31.72164776 34 39 2.840926.94697533 4.79096293 1.19486266 7.75 1.25l2.484375.078125C864.91134138 491.89187475 867.6498726 490.5677936 871 489l-.140625-3.33984375c-.93561117-31.74016775 14.63614116-58.82926192 35.45703125-81.91015625 16.25956429-16.9008928 39.95775873-31.39774979 63.796875-32.953125C980.01430126 370.65180511 986.9479806 372.05684282 995 378l3 2 1.52441406-2.46948242C1002 375 1002 375 1005.48339844 374.43237305c1.37557958.00078665 2.75132743.02875342 4.12597656.0793457l2.20245361.0214386c2.31378596.02791535 4.62512137.09063882 6.93817139.15434265 1.57157954.025087 3.14319716.04789949 4.71484375.06835938 3.84599145.0550293 7.6901589.14127396 11.53515625.24414062-.5774605 4.21747272-2.01569884 7.01627232-4.2890625 10.59375l-2.0822754 3.32885742-1.11282348 1.76376343C1018.08810333 405.6739556 1009.8656082 421.14777425 1002 437l-1.34033203 2.6772461C985.61775765 469.85327295 985.61775765 469.85327295 989 480c3.40329271 1.27623477 5.0268809.9908797 8.5-.1875 6.71395762-3.64944287 12.07204415-9.52281344 17.5-14.8125l2.3671875-2.28125c3.73841662-3.66568478 7.2351139-7.48460655 10.65234375-11.44921875C1034.41876714 443.9362846 1041.04078661 436.8045642 1048 430l-.65625-1.765625c-3.22501685-9.49588294-3.92082207-18.58482782.33984375-27.86328125C1056.44358914 384.59270443 1073.37314783 374.6802543 1090.25 369.4375c6.18881392-1.4429534 12.21595164-1.80737651 18.5625-1.875l2.60449219-.03149414C1119.71542505 367.64666068 1127.8507273 369.05570306 1134 375l-1 3c-2.703125.7734375-2.703125.7734375-6.25 1.375-10.17274677 1.99729413-19.39205963 5.14196852-27.84765625 11.29296875C1097 392 1097 392 1094.87890625 392.92578125 1092.4988304 394.28653148 1092.04930461 395.50385687 1091 398l-1.10546875 1.859375c-2.33865519 4.08631448-3.59088682 7.28063876-2.60546875 12.10546875 2.25322334 6.4501613 7.0720796 11.49127168 11.37670898 16.66430664C1110.63372648 443.0416384 1118.31316248 455.53554311 1117 475c-1.75654193 9.94841476-10.17863612 18.20440961-18 24-17.85571092 12.05975236-38.76149308 16.72625195-59.984375 12.75390625C1030.25135099 509.56283775 1022.84682444 505.84985643 1016 500l-2.04296875-1.71484375C1012.29144547 496.87223418 1010.64374272 495.43827488 1009 494l-1.765625 1.5390625c-11.06148346 9.28747196-22.45181419 15.04204654-37.07421875 14.7734375-5.95514178-.58888917-10.06804645-2.81279915-14.03515625-7.25-4.28441694-6.17460089-4.38451103-11.05449599-4.25-18.375l.02734375-2.82226562C951.92581737 479.5765564 951.95865271 477.28841328 952 475l-1.6171875 1.8359375c-28.22160357 31.73709744-28.22160357 31.73709744-48.1875 33.5C890.88933027 510.58494976 884.39726147 508.55753533 876 501l-2.52734375 1.609375c-14.41539742 9.09156569-27.46846657 14.6677723-44.78515625 11.328125-18.98579557-4.75751287-31.87097549-19.8644397-41.875-35.8125-3.7364337-6.4664927-6.74686248-13.32254988-9.8125-20.125-8.85153284 16.3255937-12.57451797 31.61739937-15 50h-38c1.125-12.375 1.125-12.375 2.5625-18.1875l.81640625-3.35546875L728 484l-2.16796875 2.30859375C713.97994066 498.68798061 699.61685147 510.8195077 681.6875 511.3125c-6.38461514-.08581472-10.84463839-1.58136657-15.4765625-6.03125-3.74908402-4.19328828-5.3450468-7.22608853-5.30859375-12.94921875l.00976563-2.70507812L660.9375 486.8125l.01367188-2.84960937C660.96295374 481.64186288 660.97940442 479.32096356 661 477l-1.65234375 1.87109375C645.63088815 494.27607946 631.13984894 509.35092282 609.5625 511.3125c-6.87035555-.60266277-13.69680141-2.1687615-18.5625-7.3125-4.42585583-5.57761364-6.03964008-11.0051397-7-18l-1.73046875 1.65234375c-13.17227744 12.25084627-30.0026019 25.07851903-48.8515625 24.59375C526.6687954 511.55918273 521.53886855 507.79717813 517 503c-4.61846428-7.557487-3.07851794-17.50207642-1.26953125-25.6796875 4.44491191-16.31966798 13.18582858-31.90026789 21.1796875-46.73046875l1.5180664-2.83789062c.98322605-1.83348914 1.97594663-3.66192825 2.9794922-5.484375C544.00948094 417.41836843 545.6484225 413.5130343 546 408c-9.7962421 1.50448395-17.06833582 9.43802457-24 16l-1.90625 1.78125c-21.69628474 20.90732893-36.53347089 50.38110903-46.1484375 78.62109375C473 507 473 507 472 508c-2.8116338.08861992-5.59858255.11522355-8.41015625.09765625l-2.55162048-.00428772c-2.70027662-.0056159-5.40047155-.01817105-8.10072327-.03086853-1.82617068-.00501295-3.65234266-.00957621-5.47851562-.01367187C442.97262458 508.03777804 438.48632616 508.02050279 434 508c-1-2-1-2-.17407227-4.72924805l1.35766602-3.5324707.7455597-1.95433044c.82764739-2.16051578 1.66743052-4.31606756 2.50834655-6.47145081.59222357-1.53169916 1.18434393-3.06343824 1.77636719-4.59521484 10.4313277-26.88396559 21.6006343-53.47181513 32.93945312-79.98339844.66899386-1.56492065 1.33794015-3.12986165 2.00683594-4.69482422l.97116089-2.27017212c2.63097064-6.16823428 5.18614475-12.3664453 7.6960907-18.5848999C485.89270484 376.10729515 485.89270484 376.10729515 487 375c2.52094076-.08847743 5.01430893-.11527301 7.53515625-.09765625l2.28257751.00428772c2.41496184.00561477 4.82983225.0181697 7.24476624.03086853 1.6334622.0050131 3.26692586.00957634 4.90039063.01367188C512.97529585 374.96222046 516.9876324 374.97949494 521 375c1.22171457 3.6651437.68270977 4.33894066-.87890625 7.76171875l-1.28564453 2.8708496L517.4375 388.6875C513.26539214 398.01429328 509.43495418 407.37933566 506 417l1 1 2.01953125-2.23828125C511.98856494 412.48499907 514.98894786 409.23810252 518 406l2.65234375-2.859375c12.98394985-13.51111774 32.01029945-28.8436607 51.3203125-30.4765625 1.36314045-.02352496 2.72650279-.03646813 4.08984375-.0390625l2.06445313-.07421875C583.23690645 372.52132907 586.0751311 373.8004422 590 377c3.82237403 5.22391118 3.81774276 10.78675847 3 17-3.50791215 13.30526277-11.48548093 25.62296726-18.0703125 37.58203125C554.55991047 468.59307481 554.55991047 468.59307481 556 481c1 1 1 1 4 1.4375 5.38443324-.12038367 8.9093313-3.22710177 13-6.4375l2.84375-2.0625c6.34539058-5.04902046 9.23323726-9.58473573 11.25073242-17.2788086C592.65862672 435.70307454 605.2460321 418.47862254 620 403l1.58203125-1.7734375C635.43110499 386.29059943 657.50724378 372.86726746 678 371.62890625c1.7704367-.05701654 3.5413806-.1000426 5.3125-.12890625l2.49731445-.05688477c7.10220835.07497054 13.33954437 1.92552368 18.62768555 6.80688477L706 380h2l1.1418457-2.46948242C711 375 711 375 714.46166992 374.43237305c1.4231785.00078984 2.84651289.0289435 4.26879883.0793457l2.27400208.0214386c2.39536012.02797608 4.78837664.09071256 7.18302917.15434265 1.62431518.02507908 3.24866703.04789294 4.87304688.06835938C737.0412667 374.81096958 741.02023615 374.89725767 745 375c1 3 1 3 .23413086 4.77978516l-1.26928711 2.00927734-1.43164062 2.31347656L740.9375 386.625c-1.11893654 1.81843858-2.23468375 3.63884253-3.34765625 5.4609375l-1.78564453 2.92089844C723.91460422 414.73165796 712.72940832 435.21697058 703.875 456.5l-.82202148 1.97460938C700.35464826 465.2147126 698.56072778 471.67879628 699 479l1 2c5.70477802.72826953 8.79945194-.49870914 13.421875-3.85546875C723.609506 468.67027455 732.26472215 458.72906 740 448l1.4182129-1.93164062c4.23401894-6.01862842 7.25794483-12.44107807 10.2729187-19.1378479 1.509987-3.34536717 3.05328789-6.67525287 4.5979309-10.00473023l.94548035-2.03825378C766.25037099 395.53589167 776.78000257 377.14546537 788 359l1.63769531-2.66503906c12.23800213-19.88003982 25.80074916-38.93179521 40.51855469-57.05761719 1.24451103-1.53718206 2.47341958-3.0871095 3.6875-4.6484375 5.15041344-6.59632869 10.73768194-12.72500415 16.46289063-18.8178711 1.76863318-1.89153992 3.52097628-3.79724878 5.27148437-5.7055664C864.00214776 260.95945036 872.74372693 252.30224923 882 244l1.72851563-1.56103516C905.47657986 222.90458766 946.87178913 189.59540102 978 209M640.66210938 427.97558594C631.9229672 441.30449804 621.90895348 458.70837204 623.125 475.125c1.04962394 4.64833458 1.04962394 4.64833458 3.875 6.875 4.60019459.82803503 7.45181535.03707378 11.3125-2.375 19.38228733-14.15266512 32.50093521-36.79236893 44.625-57.0625l1.68554688-2.79956055C693.26605025 405.12153266 693.26605025 405.12153266 692 398c-2.0028076-3.07097165-3.54345692-4.65158232-7.171875-5.51953125-19.7266964-1.35071329-34.4420338 21.13627395-44.16601562 35.49511719m293.93554687-7.64355469c-10.6806141 14.82603983-23.13741458 34.703578-22.49609375 53.671875C912.5625 476.4375 912.5625 476.4375 914 480c3.26822742 2.17881828 4.85767538 2.39089008 8.69140625 1.79296875C934.1949828 477.84165565 943.91390326 464.36035076 951 455l1.41015625-1.85058594C983.05295871 412.69072667 983.05295871 412.69072667 982.0625 398.9375c-1.22156496-3.37726784-2.03866881-4.1211014-5.0625-5.9375-18.016395-3.76679895-32.77707674 14.41620909-42.40234375 27.33203125M788.2109375 438.171875C785 442.512919 785 442.512919 785 445c20.90269026-.55271537 42.95428954-11.59780644 57.50390625-26.2734375C849.87641978 410.67333176 849.87641978 410.67333176 850 404c-1.49841384-2.03086907-2.43389123-2.87149678-4.91015625-3.43359375-21.73999937-.03945553-43.80658933 21.73601851-56.87890625 37.60546875m268.72265625 8.62890625C1050.87130921 452.90101436 1045.25628283 459.19186225 1040 466l-1.89453125 2.34375c-3.53594515 4.70355234-5.03192253 8.41874577-4.6171875 14.36328125 1.00962112 4.52402747 3.55222929 6.94174653 7.2734375 9.5078125 6.3010256 3.59145678 13.33034865 4.621047 20.42578125 3.09765625 6.88287647-2.09539183 11.6833628-5.29575723 15.8125-11.3125 2.69311409-6.48795667 2.52293179-12.13454336-.0234375-18.59765625C1073.05834602 457.53193781 1067.3883332 450.98123354 1061 445c-2 0-2 0-4.06640625 1.80078125M313.25 143.625l2.4463501-.02435303c22.53094681-.17005136 46.1503491 3.79305784 63.1786499 19.83685303 8.87827609 9.53671283 11.92931752 19.6780208 11.47265625 32.5625C389.04572546 215.63628942 374.06419005 232.58082183 360 245c-26.01789162 21.92947705-60.54274848 35.40056685-94.6875 35.0625l-3.63671875-.02734375L259 280c0-4.29938349.45695926-5.18920248 2.73828125-8.625l1.73632813-2.640625L265.3125 266l1.80273438-2.734375C268.72671773 260.83129484 270.3437547 258.4040995 272 256l1.46020508-2.23242187c2.56929674-2.94937505 6.22218024-2.82124316 9.91479492-3.26757813 20.65970525-3.04741412 40.1570084-11.46835598 54.78515625-26.7578125C340 222 340 222 342 222l.78515625-1.70703125c1.34128452-2.53162062 2.9356439-4.6878438 4.65234375-6.98046875 5.37757305-7.65183832 7.6997766-14.9182837 6.5625-24.3125-2.40707134-7.72796588-6.55314593-11.39830687-13.5-15.1875-23.39489384-11.08479135-55.1370905-3.77643641-78.5 4.1875-14.588794 5.41487258-28.81302262 11.70467599-42 20l-1.85791016 1.16601563C198.21501682 211.81254029 180.01251954 226.68437885 163 243l-1.69482422 1.62402344C154.33113048 251.3469609 148.00668111 258.39086537 142 266c-.91975175 1.12023621-1.84174315 2.23863627-2.765625 3.35546875C127.49886434 283.62670533 117.0860773 298.91138415 108 315l-1.0913086 1.92480469C83.95906133 357.80731012 66.564566 409.25665673 78.6875 456.1875 83.46136513 471.6148068 92.61286192 485.15421403 107 493c25.51839705 11.79083605 53.04479127 9.4613591 79 0 11.18338054-4.33086694 21.9435107-9.64950342 32.17773438-15.8984375 1.73672501-1.04985306 3.50555959-2.04603513 5.27539062-3.0390625 8.54308774-5.38677454 10.53851143-11.0916044 13.1328125-20.35546875C241.27344172 437.17187709 252.0934018 422.92789825 263 410c.85422326-1.08328871 1.70840131-2.16661307 2.5625-3.25 3.20433012-3.61514168 6.73857254-6.65278163 10.4375-9.75l2.46875-2.12890625c19.32378918-16.3399688 41.64653344-28.69674255 67.5493164-27.08251953 6.02365014.64258204 9.69748172 2.63797222 13.4819336 7.27392578 3.30432819 6.47097604 3.67344643 13.00240808 1.59375 19.9765625-11.34047583 28.1331035-35.63650651 49.9972991-63.04980469 62.12060547C290.32146748 460.33462839 282.26606193 462.79188326 274 464c-.3789404 6.72268338-.25923432 12.95066357 3 19 3.7478091 3.569342 7.41425953 4.77061581 12.47265625 5.08203125 14.68255692-.47655903 27.47483488-9.23486232 38.4140625-18.31640625l2.1993103-1.82191467c7.94759653-6.67910722 15.42076989-13.82251117 22.77774048-21.14170838 2.30380847-2.28167082 4.63550563-4.5324002 6.96826172-6.78442382 1.47704121-1.46109259 2.9523715-2.9239173 4.42578125-4.38867188l2.10769653-2.01109314C368.14966213 431.80778088 369.68132867 430.17296511 371 428c-.05444336-3.78979492-.05444336-3.78979492-1-7-1.63833365-12.67639978-.09064984-21.19988983 7-32 9.59598745-12.33084387 26.82287738-19.9989595 42-22 13.19156954-1.00654285 27.87230536-1.32561211 39 7v4l-2.640625.296875C439.53776687 380.2831375 424.02013503 384.8406527 413 397c-2.94111875 4.37421165-3.63877375 8.79855663-3 14 2.42573112 6.40312683 6.5335783 11.49474494 10.8125 16.75 9.08809108 11.47017825 18.26626985 23.65316647 17.46484375 39.13671875C436.59024162 479.74196177 431.19110388 490.74341095 421 499c-17.77670415 13.01559005-36.35010401 15.96308247-57.86328125 13.5703125C350.00706922 509.97323897 338.6547277 503.12867106 331 492.125 330 490 330 490 330 488l-1.49365234 1.09814453c-19.51421644 14.31346144-38.2878702 27.85715477-63.73681641 24.47216797C253.28563252 511.38931415 244.77400023 505.50516213 238 496c-1.51237937-2.62534697-2.76216104-5.22724073-4-8-4.70105365 2.53357156-8.47325117 5.1287571-12.4375 8.75-27.56392674 24.09812848-68.45519349 48.0789512-106.20703125 48.48828125l-2.20622253.02445984c-1.54052908.01377775-3.08108788.02452787-4.62165833.03242493-1.54045883.0114108-3.08088165.03168522-4.62109375.06152343C87.966298 545.6643887 73.46859572 543.0097515 59 536l-3.23828125-1.55859375C48.00105103 530.49267638 41.45412749 525.82891395 35 520l-2.58984375-2.3046875C25.54922011 511.24666682 20.68117808 504.0888518 16 496l-1.68359375-2.859375C10.98061899 487.0062422 8.7810647 480.65445013 6.75 474l-.74682617-2.44384766C2.30943035 458.84191192 1.62327719 446.5829957 1.6875 433.4375l.009552-2.57199097C1.85902102 401.19999191 9.31984753 373.88706602 22 347c.43683105-.93118652.8736621-1.86237305 1.32373047-2.82177734C36.8006628 315.73000538 54.32443502 288.65661563 75.734375 265.4765625c1.8770866-2.05184984 3.69937137-4.13317204 5.515625-6.23828125 3.83582236-4.39346196 7.87472214-8.5547229 12-12.67578125l2.25561523-2.2553711c4.76674856-4.71774508 9.60139658-9.1405191 14.90454102-13.2524414 2.18023206-1.72971654 4.25278211-3.51218148 6.33203125-5.359375C160.70935149 187.02063492 217.05770553 159.69183948 274 147l2.40820313-.5522461C288.5765236 143.77295906 300.84766199 143.69406633 313.25 143.625M305 406l-2.171875 2.1796875C293.02058611 418.57567872 285.9910243 431.1252491 280 444c4.8332932 1.828196 8.31891823-.44963612 12.79296875-2.4296875C311.26402602 432.52601893 328.02474619 418.0591751 338 400c1.180933-3.542799 1.27028374-6.28359861 1-10-11.21248752-7.47499168-26.54132664 8.34504576-34 16m75.44921875 38.35546875L378.6875 446.1875l-1.73828125 1.79296875L375 450l-2.37890625 2.36328125C369.81130428 455.18982059 367.07917255 458.0729561 364.375 461l-1.4453125 1.5390625c-4.3480292 4.71036498-7.46116727 8.79029742-8.0546875 15.34375.27169798 4.6018845 2.46517942 8.32585108 5.5546875 11.66015625 6.17880151 5.45847491 12.0082645 5.97462744 19.98828125 5.82421875 6.37871641-.6538706 11.1388511-2.69417855 15.4921875-7.45703125 4.1997992-5.80823294 5.71789733-10.95758982 4.58984375-18.09765625-2.53141038-9.92312869-9.4738562-19.51177126-16.5-26.8125-2 0-2 0-3.55078125 1.35546875"/>
  <path fill="#fff" d="M246 2c1.9255371.21777344 1.9255371.21777344 4 1 1.19750977 1.52441406 1.19750977 1.52441406 2.19140625 3.515625l1.15600586 2.26000977L254.5625 11.25c.8879387 1.74353141 1.77596256 3.48701946 2.6640625 5.23046875.4566504.90927246.91330078 1.81854492 1.38378906 2.7553711 8.9637798 17.8299218 18.59704858 35.03653055 29.92871094 51.4790039C290 73 290 73 291 76l3.0859375-2.421875C341.18286685 36.90151793 341.18286685 36.90151793 363.1875 35.4375 368.33971693 36.19766315 373.4441635 37.40581541 378 40c1.09375 1.72265625 1.09375 1.72265625 1 4-1.3940823 2.3696388-2.8148447 4.48450206-4.4375 6.6875-17.2377125 24.70657664-21.1318726 50.9174932-15.92626953 80.26171875C359.11164092 133.62938508 359.55669757 136.31436198 360 139c-4.61131512 1.42421032-7.3687366.42543842-11.8125-1.25-15.9163712-5.70717575-32.3192949-6.96716429-49.125-6.9375l-2.08288574.00283813C285.87203302 130.8480492 274.98389013 131.2591411 264 133l-3.02685547.47265625C244.59124762 136.10506938 228.78391808 139.89868919 213 145l-2.34814453.75341797c-24.37574007 7.92932647-48.63741168 18.8175078-70.0197754 32.98242187l-2.07739257 1.34228516-1.79736328 1.20019531C134.48911234 182.20980605 133.2708368 181.79207985 131 181c12.25547075-26.26172303 50.7129587-43.28503857 76.1171875-52.703125C249.01019113 113.42389597 293.8166329 107.34574131 337 120l-.4375-2.60546875C333.80706307 99.84775577 334.69515583 83.71089765 341 67c-18.57568575 10.29915993-35.94096671 22.94096671-51 38-1.83203125-.015625-1.83203125-.015625-4-1-1.7159616-1.88489047-3.19622617-3.7004906-4.6875-5.75l-1.32250977-1.77246094C268.74473658 81.2993968 258.28786067 65.45187607 249 49c-1.58452706 2.37679058-2.7090474 4.41848098-3.84765625 7l-1.0703125 2.40893555L242.9375 61c-5.95038683 13.32678965-12.04667138 26.5641023-18.8125 39.5l-1.11914062 2.15893555C221.29298612 105.88476799 219.66084949 108.5078689 217 111c-4.09106467-1.3806435-6.6273858-3.23833737-9.8125-6.125C191.86813259 91.61304763 173.89435959 81.3430727 156 72l.68676758 1.5378418c8.56303626 19.3241295 15.20915923 39.83081991 7.65307617 60.7512207C161.5082199 140.0183539 157.32225955 144.48427977 152 148c-2.25-.3125-2.25-.3125-4-1-.96634343-3.54325925-.85530936-6.21617456-.265625-9.80859375C151.23337175 108.32468305 138.00819588 80.45446969 121 58c-2.15941576-2.71819613-4.3341575-5.41553651-6.56640625-8.07421875C113 48 113 48 113 46c7.99546384-4.52573425 15.26478209-7.30587611 24.46166992-4.8022461 23.25668397 7.23592367 44.79734261 19.72564054 64.58740235 33.70166016l2.23999023 1.58105469 1.95947266 1.40307617C208 79 208 79 211 80l.83862305-2.6328125c1.09693592-3.18035322 2.35131511-6.18122251 3.7434082-9.2421875l1.55639648-3.4416504c.13627305-.29979262.13627305-.29979262.82589722-1.81692504 3.92855798-8.644863 7.81699343-17.30596558 11.57473755-26.02658081l.86875916-2.01547241c1.37262018-3.1884602 2.73974016-6.37918303 4.10121154-9.57241821C243.3543076 4.6456924 243.3543076 4.6456924 246 2m638 240 2 1-37 37-2-1 1.94140625-1.90625c4.65533285-4.60676753 9.14987129-9.26041172 13.41796875-14.2265625 4.54112163-5.1682289 9.56895007-9.73707662 14.7734375-14.22265625C879.53512038 246.52869105 881.77208834 244.2975339 884 242m179 141 2 1-14 14c0-3.88433166 1.17079686-4.67605496 3.75-7.5l2.109375-2.34375c1.94171092-1.95588399 3.88993248-3.57468228 6.140625-5.15625"/>
</svg>