<svg xmlns="http://www.w3.org/2000/svg" xmlns:xlink="http://www.w3.org/1999/xlink" xml:space="preserve" viewBox="0 0 4000 4000"><defs><path id="a" fill="#fc913a" d="M933.363 1963.869c4.684 19.26 13.507 36.061 24.962 49.548l.017.071c-7.682 32.811-29.69 58.867-60.274 66.305-46.598 11.333-95.358-24.863-108.971-80.839-13.596-55.903 13.095-110.449 59.693-121.782 30.584-7.438 62.101 5.601 83.992 31.218-3.999 17.171-4.103 36.219.581 55.479z"/><path id="b" fill="#fc913a" d="M3212.195 1409.645c7.246 29.791 8.259 54.375 6.115 74.149-4.093 37.515-31.766 68.234-68.482 77.163l-675.455 164.274c-160.497 39.034-577.45 96.356-694.546 114.369-117.112 17.938-821.503 173.818-821.503 173.818-11.455-13.487-20.278-30.289-24.962-49.548s-4.58-38.309-.581-55.478c0 0 697.304-185.02 809.574-222.869 112.289-37.775 508.998-178.34 669.494-217.373l675.455-164.274c36.717-8.93 75.406 5.65 96.271 37.095 10.986 16.579 21.375 38.883 28.62 68.674z"/><path id="c" fill="#fff" d="M2591.982 2484.351c11.609 39.799 45.75 145.083 99.727 213.899 7.408 9.444 2.813 23.336-8.806 26.351l-70.16 18.207c-5.011 1.301-10.365.234-14.407-3.001-20.142-16.119-78.926-75.28-101.718-230.102-1.214-8.245 3.801-16.159 11.807-18.473l63.009-18.209c8.804-2.543 17.983 2.533 20.548 11.328z"/></defs><path fill="transparent" d="M0 0h4000v4000H0z"/><ellipse cx="2045.367" cy="3429.842" fill="#371a45" opacity=".2" rx="848.069" ry="135.158"/><path fill="#fff" d="M2087.06 3244.022c-1.011 44.749 2.838 89.459 41.717 111.543 47.781 27.176 132.887 49.686 283.152 34.679 107.849-10.769 154.814-54.469 154.814-99.723 0-52.524-63.255-107.11-168.111-114.614-35.885.622-107.843 10.279-175.14 7.22-111.138-5.052-116.41-27.359-136.704-58.384 1.011 38.218 1.244 78.263.272 119.279z"/><path fill="#9ca9b9" d="M2427.257 3390.253c-150.265 15.007-235.37-7.542-283.152-34.68-38.878-22.122-41.056-66.833-41.717-111.543-1.827-126.744-5.832-246.101-9.292-332.722-.894-21.577-1.71-41.133-2.488-58.24-2.216-49.298-3.81-78.574-3.81-78.574l132.692-32.618 293.922-72.276c-3.227 48.365-9.098 92.881-16.757 133.704-4.044 21.383-8.553 41.717-13.452 61.078-8.592 33.785-18.312 64.499-28.576 92.297-52.719 142.606-120.135 207.805-120.135 207.805l13.413 12.713c247.501-26.164 336.728 187.357 79.352 213.056z"/><path fill="#371a45" d="M2336.165 3410.638c-84.126.002-151.074-13.896-199.734-41.555-48.152-27.368-48.975-83.691-49.573-124.817-3.596-245.83-15.481-466.729-15.598-468.933-.467-8.574 6.108-15.906 14.685-16.37 8.482-.454 15.906 6.106 16.37 14.685.122 2.207 12.036 223.689 15.642 470.164.659 45.132 3.567 81.023 33.843 98.23 41.008 23.311 121.816 47.905 273.909 32.732 71.673-7.153 121.377-30.396 136.367-63.767 8.11-18.059 4.966-38.513-8.86-57.595-25.544-35.254-94.219-72.332-203.674-60.737l-7.139.754-30.381-28.855 11.66-11.279c1.497-1.458 151.833-151.501 174.202-484.751.574-8.567 7.896-15.034 16.56-14.475 8.569.576 15.049 7.991 14.475 16.56-19.431 289.468-130.19 443.542-169.771 489.941 115.154-8.77 188.513 32.163 219.255 74.592 20.334 28.069 24.724 60.356 12.044 88.589-19.966 44.451-77.373 73.56-161.648 81.97-32.869 3.282-63.765 4.917-92.634 4.917z"/><path fill="#fff" d="M2467.957 3184.021c153.778 30.332 176.114 148.699 162.24 190.157-21.361 63.835-160.091 81.687-325.742 62.544-223.144-25.787-231.931-104.07-231.931-104.07-3.805-32.167 7.45-113.987 14.467-159.728 2.68-17.469 19.342-29.199 36.692-25.831 32.185 6.248 82.222 15.256 116.968 18.174 5.807.488 9.906-5.521 7.26-10.713-7.37-14.458-16.639-39.883-5.497-61.709 20.909-40.961 139.85-24.679 149.448 0 9.598 24.679 1.371 76.437 76.095 91.176z"/><path fill="#371a45" d="M2423.577 3459.708c-36.65.002-77.109-2.476-120.906-7.537-228.828-26.443-244.561-108.513-245.601-117.786-3.804-32.17 5.811-106.851 14.551-163.821 1.941-12.668 8.782-23.708 19.26-31.086 10.481-7.378 23.186-10.095 35.767-7.651 29.741 5.774 69.729 12.954 101.553 16.57-8.689-23.135-8.638-44.993.364-62.625 16.985-33.279 69.695-34.309 91.555-33.188 7.598.383 74.57 4.622 86.238 34.622 2.458 6.321 3.823 13.254 5.271 20.593 4.968 25.198 10.105 51.252 59.338 60.967 90.803 17.91 134.658 64.319 155.457 100.098 24.295 41.792 26.809 85.486 18.523 110.249-17.528 52.37-97.686 80.595-221.37 80.595zM2087.93 3330.49c.713 3.027 18.599 67.705 218.311 90.784 168.049 19.417 292.3-1.492 309.209-52.029 4.897-14.636 4.702-49.285-15.916-84.751-17.573-30.229-55.188-69.553-134.587-85.215-69.692-13.748-78.545-58.64-83.833-85.461-1.118-5.671-2.175-11.04-3.538-14.788-6.143-7.234-44.114-18.367-81.877-15.037-20.525 1.809-35.266 7.759-39.434 15.92-8.162 15.989-.056 36.675 5.503 47.581 3.774 7.407 3.245 16.294-1.387 23.188-4.646 6.917-12.71 10.815-21.033 10.081-34.69-2.913-83.657-11.614-118.628-18.403-4.197-.815-8.438.09-11.934 2.551-3.493 2.461-5.774 6.143-6.423 10.369-11.706 76.328-16.96 132.834-14.433 155.21z"/><path fill="#5f5272" d="M2630.213 3319.735c-20.594 61.456-149.781 80.33-307.094 64.525-6.183-.558-12.366-1.255-18.641-1.953-223.185-25.801-231.971-104.084-231.971-104.084-3.765-32.169 7.484-113.987 14.504-159.73 2.65-17.479 19.338-29.194 36.678-25.846 32.17 6.276 82.236 15.294 116.962 18.177 5.811.511 9.901-5.486 7.252-10.692-7.345-14.458-16.642-39.886-5.486-61.735 20.919-40.956 162.273-23.851 171.895.787 9.576 24.685-21.091 75.684 53.661 90.421 74.566 14.69 118.217 50.113 141.833 87.397 25.102 39.65 27.52 81.395 20.407 102.733z"/><path fill="#fff" d="M2630.213 3319.735c-20.594 61.456-149.781 80.33-307.094 64.525 12.086-64.944 57.923-221.559 253.402-176.42 11.761 2.743 22.871 5.811 33.284 9.159 25.103 39.653 27.521 81.398 20.408 102.736z"/><path fill="#fff" d="M2237.333 3057.486c35.935-25.289 137.458-21.937 145.966-.042 9.576 24.685-5.806 88.322 68.945 103.058 143.878 28.403 172.653 133.836 164.425 181.254 6.276-6.601 10.832-13.946 13.528-21.989 13.854-41.467-8.461-159.823-162.24-190.18-74.705-14.736-44.021-65.721-53.644-90.406-9.576-24.685-150.993-41.711-171.912-.755-3.162 6.137-4.65 12.645-5.068 19.06z" opacity=".5"/><path fill="#371a45" d="M2072.536 3278.208s8.786 78.284 231.925 104.085c165.634 19.153 304.398 1.302 325.736-62.525 2.324-6.927 3.626-15.945 3.44-26.359-57.319 28.451-163.263 34.029-283.339 20.129-223.138-25.801-231.925-104.085-231.925-104.085-2.79-23.429 2.417-73.217 8.182-116.218-.976-.186-1.953-.372-2.882-.558-17.34-3.393-33.982 8.368-36.678 25.801-7.022 45.743-18.271 127.56-14.459 159.73z" opacity=".3"/><path fill="#371a45" d="M2306.252 3172.247c-2.332 0-4.636-1.045-6.169-3.035-2.617-3.403-1.98-8.286 1.423-10.906 57.864-44.509 124.607-50.435 223.176-19.817 4.102 1.274 6.392 5.632 5.12 9.734-1.274 4.102-5.617 6.389-9.734 5.12-93.164-28.945-155.698-23.774-209.079 17.292-1.414 1.087-3.081 1.612-4.737 1.612z"/><path fill="#371a45" d="M2337.007 3198.844c-2.317 0-4.612-1.033-6.145-3.005-2.634-3.391-2.021-8.276 1.37-10.911 56.667-44.031 128.613-51.375 233.274-23.804 4.153 1.094 6.633 5.347 5.539 9.5-1.096 4.153-5.354 6.636-9.5 5.54-99.521-26.218-167.3-19.727-219.773 21.045-1.418 1.1-3.098 1.635-4.765 1.635z"/><path fill="#371a45" d="M2378.142 3227.518c-2.561 0-5.071-1.265-6.555-3.582-2.317-3.618-1.262-8.425 2.354-10.742 80.176-51.348 132.761-49.722 220.315-26.658 4.153 1.094 6.633 5.347 5.539 9.5-1.096 4.153-5.347 6.641-9.5 5.54-82.988-21.863-132.71-23.481-207.966 24.714-1.298.833-2.751 1.228-4.187 1.228z"/><path fill="#371a45" d="M2423.577 3405.28c-36.65 0-77.109-2.476-120.906-7.537-228.828-26.443-244.561-108.513-245.601-117.786-3.804-32.168 5.811-106.851 14.551-163.821 1.941-12.668 8.782-23.708 19.26-31.086 10.481-7.375 23.186-10.088 35.767-7.651 29.741 5.774 69.727 12.954 101.553 16.57-8.689-23.132-8.638-44.99.364-62.622 16.448-32.234 71.641-34.373 103.086-32.788 14.231.72 85.801 5.789 97.156 34.985 3.813 9.81 3.328 20.693 2.859 31.221-1.077 24.067-1.853 41.455 39.302 49.573 90.803 17.91 134.658 64.319 155.457 100.098 24.295 41.792 26.809 85.486 18.523 110.249-17.529 52.369-97.687 80.595-221.371 80.595zm-335.647-129.219c.713 3.027 18.599 67.705 218.311 90.784 168.049 19.419 292.3-1.492 309.209-52.029 4.897-14.636 4.702-49.285-15.916-84.751-17.573-30.229-55.188-69.553-134.587-85.215-67.397-13.293-65.493-55.972-64.353-81.472.3-6.768.613-13.745-.486-17.678-8.948-8.53-62.227-20.554-106.86-15.015-23.162 2.871-34.29 9.529-36.98 14.802-8.164 15.989-.059 36.672 5.498 47.578 3.777 7.41 3.247 16.296-1.387 23.191-4.648 6.917-12.754 10.781-21.03 10.078-34.69-2.913-83.657-11.614-118.628-18.403-4.197-.823-8.438.09-11.934 2.551-3.493 2.461-5.774 6.143-6.423 10.369-11.707 76.328-16.961 132.837-14.434 155.21zm312.614-229.907z"/><path fill="#fff" d="M1981.364 3244.022c1.011 44.749-2.838 89.459-41.717 111.543-47.781 27.176-132.887 49.686-283.152 34.679-107.849-10.769-154.814-54.469-154.814-99.723 0-52.524 63.255-107.11 168.111-114.614 35.885.622 107.843 10.279 175.14 7.22 111.138-5.052 116.41-27.359 136.704-58.384-1.011 38.218-1.244 78.263-.272 119.279z"/><path fill="#9ca9b9" d="M1981.631 2774.495s-1.633 29.782-3.849 79.857c-.777 17.185-1.594 36.74-2.488 58.279-3.46 86.543-7.465 205.318-9.292 331.4-.622 44.71-2.799 89.421-41.678 111.543-47.782 27.137-132.886 49.686-283.152 34.68-257.375-25.699-168.15-239.219 79.352-213.054l13.413-12.713s-80.478-77.874-134.364-249.405c-4.821-15.318-9.408-31.414-13.685-48.21-5.016-19.594-9.642-40.2-13.724-61.855-4.587-24.065-8.553-49.414-11.664-76.085-2.254-19.089-4.121-38.878-5.481-59.329l12.83 3.149 186.383 45.838 227.399 55.905z"/><path fill="#371a45" d="M1732.261 3410.641c-28.874 0-59.758-1.638-92.637-4.919-84.273-8.408-141.682-37.52-161.646-81.97-12.683-28.23-8.294-60.52 12.043-88.589 30.737-42.427 104.15-83.376 219.253-74.592-39.578-46.399-150.339-200.474-169.768-489.941-.574-8.572 5.906-15.984 14.475-16.56 8.579-.508 15.984 5.908 16.56 14.475 22.366 333.25 172.705 483.293 174.221 484.768l11.582 11.282-30.322 28.835-7.139-.754c-109.473-11.584-178.135 25.483-203.677 60.737-13.823 19.082-16.97 39.536-8.857 57.595 14.988 33.372 64.692 56.614 136.365 63.767 152.092 15.168 232.903-9.419 273.906-32.732 30.276-17.207 33.186-53.098 33.848-98.23 3.604-246.475 15.518-467.957 15.64-470.164.466-8.579 7.9-15.156 16.37-14.685 8.577.464 15.151 7.795 14.685 16.37-.117 2.205-12.002 223.103-15.596 468.933-.601 41.125-1.426 97.451-49.578 124.817-48.649 27.656-115.612 41.554-199.728 41.557z"/><path fill="#6b184e" d="M1585.887 2866.87c-5.132-1.283-9.72-2.449-13.724-3.538-13.724-3.693-20.838-5.988-20.838-5.988l7.348-56.101c3.344.972 7.854 2.255 13.491 3.771 4.081 21.656 8.708 42.262 13.723 61.856zm1037.473-34.718c-43.195 11.158-85.455 20.956-126.705 29.47-4.51.933-8.981 1.866-13.452 2.76 4.899-19.362 9.408-39.695 13.452-61.078 38.839-8.009 78.534-17.146 119.085-27.526l7.62 56.374z" opacity=".3"/><path fill="#fff" d="M2623.36 2773.834c-43.195 11.158-85.455 20.956-126.705 29.47-96.963 20.061-188.288 33.163-273.122 41.094-46.304 4.354-90.664 7.154-132.925 8.67-39.462 1.438-77.135 1.788-112.825 1.283-125.733-1.71-227.439-14.035-299.948-26.593-49.22-8.553-84.988-17.184-105.672-22.744-13.724-3.693-20.838-5.987-20.838-5.987l9.175-70.098 7.349-56.179 76.435-583.333 240.075-20.839 413.318-35.846 222.851-19.323 102.832 760.425z"/><path fill="#371a45" d="M2006.221 2870.026c-60.212 0-113.87-2.429-160.159-5.977-187.669-14.375-295.051-48.765-299.531-50.22l-12.288-3.997 94.619-722.444c1.116-8.518 8.904-14.526 17.439-13.401 8.516 1.116 14.517 8.923 13.401 17.439l-91.216 696.443c33.271 9.282 132.417 33.96 281.206 45.264 170.076 12.927 441.684 10.508 769.768-74.365 8.315-2.151 16.797 2.847 18.95 11.162 2.151 8.315-2.847 16.799-11.162 18.95-243.593 63.016-456.625 81.143-621.027 81.146z"/><use xlink:href="#a"/><use xlink:href="#b"/><use xlink:href="#a"/><use xlink:href="#b"/><path fill="#fff" d="M943.083 1997.887c1.628 6.694 3.785 13.07 6.35 19.133 1.606-4.271 2.98-8.685 4.048-13.251l-.017-.071c-4.746-5.591-9.008-11.779-12.745-18.445.577 4.191 1.334 8.405 2.364 12.634zm-84.574-86.696c23.15-5.629 46.826.489 66.464 14.897-.097-9.478.916-18.692 2.95-27.417-21.893-25.616-53.408-38.656-83.993-31.219-46.598 11.333-73.289 65.88-59.692 121.782 2.75 11.312 6.955 21.796 12.268 31.261-7.117-51.321 18.886-98.816 62.003-109.304z" opacity=".5"/><g fill="#371a45" opacity=".3"><path d="M958.35 1983.487c-7.698 32.814-29.703 58.863-60.301 66.288-46.576 11.353-95.33-24.843-108.938-80.828-1.633-6.648-2.643-13.257-3.188-19.828 21.772 32.114 57.229 49.532 91.559 41.211 26.593-6.492 46.693-27.059 56.53-53.885 4.821 18.195 13.374 34.096 24.299 46.964l.039.078z"/><path d="M3218.318 1453.807c-4.082 37.518-31.764 68.232-68.504 77.135l-675.436 164.301c-160.491 39.034-577.462 96.341-694.564 114.341-117.102 17.962-821.503 173.826-821.503 173.826-10.925-12.869-19.478-28.77-24.299-46.964-.234-.856-.467-1.711-.661-2.567-1.633-6.687-2.683-13.374-3.188-19.944 2.372 3.499 4.899 6.843 7.581 9.992 0 0 704.361-155.864 821.503-173.787 117.063-18.039 534.035-75.346 694.525-114.38l675.475-164.262c36.701-8.942 64.383-39.656 68.465-77.174 1.944-18.117 1.283-40.239-4.432-66.677 7.27 14.074 13.84 31.181 18.934 51.98 7.231 29.82 8.242 54.391 6.104 74.18z"/></g><path fill="#fff" d="M947.362 1952.129s697.302-185.019 809.574-222.868c112.288-37.775 508.996-178.339 669.494-217.375l675.454-164.273c36.717-8.932 75.406 5.648 96.271 37.094 5.002 7.548 9.862 16.354 14.378 26.444-.123-.51-.211-.994-.337-1.507-7.245-29.792-17.636-52.096-28.62-68.676-20.865-31.446-59.554-46.026-96.271-37.094l-675.455 164.273c-160.497 39.035-557.205 179.599-669.494 217.375-112.272 37.849-809.574 222.868-809.574 222.868-3.998 17.171-4.103 36.218.581 55.477 2.743 11.279 6.939 21.684 12.216 31.105-2.047-14.894-1.338-29.443 1.783-42.843z" opacity=".5"/><path fill="#6b184e" d="M937.744 1953.926v.078c-1.011 4.276-2.255 8.437-3.732 12.441-.234-.856-.467-1.711-.661-2.567-1.633-6.687-2.683-13.374-3.188-19.944 2.371 3.499 4.899 6.843 7.581 9.992z" opacity=".3"/><path fill="#371a45" d="M880.908 2097.401c-47.827 0-93.281-38.677-106.921-94.77-15.608-64.175 16.299-127.232 71.128-140.566 34.985-8.516 73.12 5.364 99.49 36.226l5.105 5.976-1.782 7.654c-3.584 15.379-3.393 32.07.547 48.271l.002.003c3.921 16.135 11.426 31.057 21.702 43.154l2.437 2.869 1.682 7.207-.813 3.611c-9.253 39.519-36.743 69.358-71.741 77.869-6.934 1.686-13.912 2.496-20.836 2.496zm-14.704-206.76c-4.604 0-9.202.54-13.74 1.643-38.164 9.282-59.81 55.486-48.257 102.998 11.563 47.546 51.992 78.667 90.188 69.402 21.887-5.325 39.033-22.942 46.885-47.737-10.74-14.456-18.643-31.375-23.027-49.404-4.395-18.071-5.151-36.716-2.251-54.421-14.549-14.583-32.208-22.481-49.798-22.481z"/><path fill="#371a45" d="m952.537 2030.626-6.064-7.141c-13.398-15.776-23.157-35.12-28.218-55.942-5.088-20.908-5.3-42.581-.62-62.678l2.122-9.107 9.036-2.397c6.97-1.848 698.091-185.322 808.596-222.576 21.516-7.239 52.781-18.01 92.361-31.65 167.573-57.744 448.042-154.387 578.428-186.096l675.454-164.275c43.252-10.525 88.618 7.009 112.903 43.606 13.501 20.378 23.853 45.139 30.771 73.601 6.924 28.462 9.099 55.21 6.468 79.5-4.766 43.677-37.022 80.081-80.269 90.598l-675.456 164.272c-130.418 31.719-424.011 74.683-599.429 100.352-41.357 6.052-74.023 10.832-96.426 14.277-115.283 17.659-813.469 172.073-820.508 173.63l-9.149 2.026zm-6.255-109.729c-1.726 12.783-.991 26.201 2.192 39.294 3.174 13.049 8.687 25.303 16.116 35.913 88.262-19.502 702.664-154.995 812.886-171.877 22.502-3.462 55.22-8.25 96.641-14.312 174.878-25.591 467.573-68.42 596.582-99.795l675.457-164.275c30.564-7.434 53.35-33.047 56.697-63.74 2.241-20.686.303-43.833-5.767-68.787h-.002c-6.064-24.951-14.973-46.404-26.472-63.762-17.065-25.718-49.08-38.013-79.631-30.574l-675.454 164.275c-128.972 31.367-408.582 127.717-575.644 185.283-39.639 13.66-70.95 24.448-92.566 31.719-105.657 35.621-713.674 197.428-801.035 220.638z"/><path fill="#fff" d="M1781.957 1988.668s308.928 57.614 568.815 0l1.502 94.897s-262.1 68.21-555.694 1.843l-14.623-96.74z"/><path fill="#371a45" d="M2065.591 2129.752c-82.268.002-175.867-7.344-272.439-29.175l-10.361-2.341-19.478-128.86 21.494 4.004c3.059.569 308.916 56.343 562.598.105l18.614-4.126 1.999 126.179-11.826 3.079c-1.785.464-122.518 31.133-290.601 31.135zm-255.23-57.226c247.527 53.376 472.908 10.51 526.167-1.25l-1.008-63.508c-216.287 43.125-462.07 11.067-534.988-.259l9.829 65.017z"/><path fill="#fff" d="M2798.654 1464.962c-8.43.85-15.952-5.295-16.802-13.725l-44.311-439.647c-.85-8.43 5.295-15.952 13.725-16.801 88.435-8.913 167.352 55.552 176.265 143.987l15.11 149.921c8.913 88.435-55.552 167.352-143.987 176.265z"/><path fill="#371a45" d="M2797.08 1468.563c-4.333 0-8.499-1.48-11.897-4.255-3.901-3.188-6.328-7.705-6.833-12.717l-44.312-439.646c-1.045-10.349 6.526-19.617 16.873-20.659 43.723-4.407 86.516 8.474 120.537 36.265s55.181 67.166 59.585 110.872l15.112 149.922c9.092 90.227-56.914 171.03-147.139 180.122-.644.065-1.289.096-1.926.096zm-29.385-471.081c-5.334 0-10.698.268-16.077.81-6.484.654-11.225 6.462-10.574 12.944l44.312 439.646c.317 3.142 1.838 5.972 4.282 7.969 2.446 2 5.532 2.915 8.659 2.607 86.362-8.706 149.541-86.047 140.84-172.407l-15.112-149.922c-4.216-41.836-24.473-79.524-57.036-106.126-28.376-23.177-63.139-35.521-99.294-35.521z"/><path fill="#371a45" d="m2935.555 1218.396 7.102 70.313c8.899 88.406-55.559 167.337-144.01 176.285-8.426.859-15.949-5.332-16.807-13.757l-11.818-116.871c2.903 5.089 8.608 8.231 14.8 7.656l10.423-1.08c69.887-7.028 124.838-57.822 140.31-122.546z" opacity=".35"/><path fill="#371a45" d="M2797.051 1484.647c-8.027 0-15.745-2.739-22.043-7.886-7.229-5.906-11.724-14.272-12.661-23.559l-44.311-439.646c-1.931-19.17 12.092-36.34 31.264-38.274 47.957-4.819 94.973 9.304 132.322 39.812 37.349 30.508 60.579 73.735 65.415 121.716l15.112 149.922c9.98 99.048-62.483 187.754-161.531 197.737-1.194.12-2.386.178-3.567.178zm-.349-39.192h-.015.015zm-39.221-431.525 43.445 431.035c75.354-9.868 129.88-78.184 122.21-154.302l-15.113-149.922c-3.784-37.561-21.97-71.399-51.206-95.281-28.135-22.983-63.265-34.104-99.336-31.53z"/><path fill="#fff" d="M1300.093 1141.05c8.43-.85 15.952 5.295 16.802 13.725l44.311 439.647c.85 8.43-5.295 15.952-13.725 16.801-88.435 8.913-167.352-55.552-176.265-143.987l-15.11-149.921c-8.913-88.436 55.552-167.352 143.987-176.265z"/><path fill="#371a45" d="M1331.038 1615.573c-37.776.002-74.092-12.893-103.738-37.112-34.021-27.791-55.183-67.166-59.587-110.872l-15.11-149.922c-4.407-43.709 8.472-86.514 36.262-120.535 27.793-34.021 67.168-55.183 110.874-59.587 10.347-1.035 19.619 6.528 20.659 16.875l44.312 439.649c.505 5.012-.972 9.922-4.158 13.823-3.188 3.901-7.705 6.328-12.717 6.833-5.621.567-11.226.848-16.797.848zm-30.945-474.524.354 3.503c-41.836 4.219-79.526 24.473-106.125 57.036-26.602 32.563-38.928 73.538-34.712 115.371l15.11 149.922c4.216 41.836 24.473 79.524 57.036 106.125 32.563 26.599 73.538 38.926 115.371 34.712 3.142-.317 5.972-1.838 7.969-4.282 1.997-2.444 2.922-5.52 2.607-8.66l-44.312-439.649c-.654-6.487-6.494-11.182-12.944-10.576l-.354-3.502z"/><path fill="#371a45" d="m1348.948 1472.451 12.279 121.968c.859 8.426-5.332 15.949-13.757 16.808-46.418 4.658-90.257-10.867-122.698-39.51-29.296-25.866-49.298-62.469-53.536-104.456l-6.371-63.173c30.689 52.894 90.513 85.869 155.352 79.346l16.044-1.62c5.855-.602 10.508-4.341 12.687-9.363z" opacity=".35"/><path fill="#371a45" d="M1331.006 1631.659c-41.467 0-81.333-14.155-113.882-40.742-37.346-30.508-60.579-73.735-65.415-121.716l-15.11-149.922c-4.836-47.981 9.304-94.973 39.812-132.322 30.508-37.346 73.735-60.579 121.716-65.415 19.148-1.921 36.343 12.095 38.274 31.267l44.312 439.648c.935 9.287-1.802 18.381-7.708 25.61s-14.272 11.724-23.56 12.661c-6.166.621-12.321.931-18.439.931zm-33.184-470.615c-35.864 4.685-68.064 22.585-91.045 50.72-23.884 29.236-34.951 66.023-31.164 103.584l15.11 149.922c7.671 76.116 74.729 132.171 150.542 126.812l-43.443-431.038z"/><circle cx="2049.465" cy="1302.997" r="752.99" fill="#fff"/><path fill="#371a45" d="M2049.163 2059.513c-406.938 0-743.818-324.805-755.881-734.231-5.952-201.985 67.107-394.199 205.723-541.233 138.616-147.031 326.194-231.284 528.176-237.236 416.987-12.38 766.179 316.938 778.469 733.899 12.285 416.961-316.941 766.182-733.904 778.469-7.532.222-15.096.332-22.583.332zm.6-1505.989c-7.441 0-14.885.11-22.375.33-200.103 5.896-385.933 89.365-523.257 235.029-137.327 145.664-209.707 336.086-203.808 536.191 12.173 413.076 358.093 739.16 771.216 727.065 413.081-12.175 739.243-358.142 727.07-771.221-11.953-405.587-345.731-727.394-748.846-727.394z"/><g opacity=".35"><path d="M2791.844 1176.841c5.796 33.891 9.248 68.599 10.298 103.983 12.192 415.674-314.838 762.574-730.508 774.862-415.675 12.194-762.573-314.837-774.862-730.506-.36-11.953-.435-23.926-.209-35.724 61.539 364.894 384.229 637.718 764.564 626.523 403.716-11.928 723.76-339.469 730.717-739.138z"/><path fill="#371a45" d="M2049.258 2059.537c-406.946.015-743.901-324.844-756.006-734.253-.364-12.095-.434-24.172-.21-35.894.034-1.819 1.448-3.313 3.259-3.447 1.794-.068 3.433 1.133 3.735 2.927 60.581 359.207 376.152 623.897 739.004 623.914 7.319 0 14.626-.107 21.985-.325 400.857-11.843 720.322-334.993 727.297-735.679.032-1.819 1.44-3.313 3.254-3.45 1.836-.176 3.433 1.128 3.738 2.917 5.818 34.014 9.299 69.163 10.349 104.47 12.229 416.934-317.007 766.162-733.923 778.489-7.507.221-15.021.331-22.482.331zm-748.894-732.158c13.408 411.963 358.865 736.965 771.169 724.788 413.035-12.212 739.204-358.188 727.09-771.24-.659-22.178-2.288-44.292-4.858-66.096-12.117 180.491-87.986 349.517-215.984 479.456-137.368 139.448-320.815 219.431-516.548 225.215-183.708 5.422-362.746-56.045-504.18-173.037-130.285-107.767-220.476-255.472-256.689-419.086z"/></g><path fill="#371a45" d="M2800.291 1300.219c6.564 147.203-35.125 285.997-111.804 402.714-57.487 87.504-302.727 247.096-613.602 263.76-288.248 15.451-557.472-126.595-622.519-208.634-86.764-109.429-140.643-243.961-147.207-391.164-17.372-389.541 310.106-565.954 722.993-584.367 412.886-18.412 754.767 128.15 772.139 517.691z"/><path fill="#371a45" d="M2030.249 1987.487c-280.347.01-528.428-135.496-593.245-217.246-92.529-116.697-144.893-255.869-151.431-402.471-8.523-191.101 61.538-341.868 208.235-448.108 127.954-92.668 312.424-146.86 533.469-156.719 221.057-9.89 409.607 27.695 545.303 108.608 155.571 92.764 238.774 236.694 247.295 427.793 6.538 146.601-33.23 289.883-115.005 414.353-56.711 86.33-299.419 254.91-628.936 272.573-15.294.819-30.553 1.214-45.685 1.217zm65.388-1186.88c-21.833 0-44.031.5-66.611 1.506-213.367 9.517-390.491 61.145-512.219 149.304-135.342 98.018-199.961 237.512-192.063 414.605 6.17 138.31 55.613 269.663 142.983 379.858 58.867 74.246 298.594 202.361 563.223 202.375 14.246.002 28.518-.369 42.886-1.14 311.675-16.704 547-176.909 598.267-254.946 77.217-117.537 114.771-252.769 108.604-391.077-7.898-177.095-84.678-310.281-228.206-395.864-115.433-68.825-272.398-104.621-456.864-104.621z"/><path fill="#371a45" d="M2049.156 2075.597c-415.589 0-759.629-331.711-771.951-749.844-6.079-206.277 68.535-402.576 210.098-552.737 141.563-150.159 333.128-236.201 539.407-242.28 425.84-12.505 782.466 323.679 795.017 749.502v.002c12.546 425.823-323.679 782.466-749.505 795.017-7.695.228-15.42.34-23.066.34zm.6-1505.991c-7.283 0-14.565.107-21.892.325-195.811 5.769-377.654 87.446-512.031 229.983-134.377 142.539-205.205 328.877-199.434 524.685 11.909 404.214 350.437 723.42 754.665 711.465 404.216-11.912 723.379-350.457 711.467-754.668-11.696-396.888-338.31-711.79-732.775-711.79z"/><ellipse cx="2554.968" cy="1258.136" fill="#fff" opacity=".5" rx="133.255" ry="96.56" transform="matrix(.1343 -.9909 .9909 .1343 965.137 3621.0166)"/><ellipse cx="2448.559" cy="1527.11" fill="#fff" opacity=".5" rx="61.163" ry="52.487" transform="rotate(-74.342 2448.51032376 1527.08753492)"/><path fill="#220f2d" d="M2638.687 943.297c95.277 83.13 154.596 200.448 161.594 356.901 6.567 147.233-35.151 286.019-111.773 402.737-57.506 87.504-302.77 247.09-613.637 263.785-109.765 5.914-216.737-11.051-310.778-38.88 381.693-28.667 680.371-224.437 751.66-332.966 97.329-148.136 150.23-324.313 141.874-511.1-2.196-49.925-8.696-96.706-18.94-140.477z"/><path fill="#371a45" d="M1346.651 1051.823c-4.185 0-8.403-1.336-11.973-4.094-8.208-6.343-10.002-17.913-4.314-26.406 118.87-192.422 365.09-306.443 693.403-321.091 321.86-14.378 574.516 73.789 711.641 248.213 6.167 6.907 6.738 17.439.872 25.029-6.621 8.567-18.933 10.149-27.5 3.525-1.472-1.069-2.436-2.078-3.56-3.511-128.943-164.741-370.339-247.883-679.704-234.087-315.217 14.065-550.349 121.67-662.08 302.993-.261.425-.539.84-.835 1.245-.112.154-.305.413-.422.564-3.863 4.997-9.664 7.62-15.528 7.62zm-.987-20.381 1.001.774-1.001-.774z"/><path fill="#fff" d="M1483.381 1591.145s-137.785-378.903 62.489-541.276c200.274-162.372 498.264-175.043 492.148-155.623 0 0-326.304 94.568-443.742 361.103-90.558 205.532-110.895 335.796-110.895 335.796z" opacity=".5"/><path fill="#371a45" d="M1977.782 2854.351c-.777 17.185-1.594 36.74-2.488 58.279-124.605-1.827-225.417-14.073-297.459-26.554-10.925-1.866-21.189-3.771-30.753-5.638-13.024 15.707-29.431 27.37-47.509 34.641-4.821-15.318-9.408-31.414-13.685-48.21-5.016-19.594-9.642-40.2-13.724-61.855-5.637-1.516-10.147-2.799-13.491-3.771-4.86-1.4-7.348-2.216-7.348-2.216l9.175-70.098c-2.254-19.089-4.121-38.878-5.481-59.329l12.83 3.149 76.435-583.333 212.704-16.523c13.141 21.656 26.904 28.654 44.866 77.874 19.517 53.419 50.62 114.536 45.488 195.131-11.119 174.409-106.06 264.724-193.109 372.69-27.176 33.629-53.575 69.009-76.396 109.171 72.506 12.557 174.212 24.882 299.945 26.592z" opacity=".3"/><path fill="#5f5272" d="M1904.574 2307.02c-15.396 241.475-191.477 321.797-284.901 510.825-35.224 71.186-128.455 89.459-188.716 37.712-14.385-12.325-28.887-23.716-43.077-33.358-93.386-63.372-170.987-52.486-287.234-95.252-2.255-.816-4.432-1.827-6.61-2.838-39.267-17.884-59.095-54.313-60.028-91.365-1.011-40.317 20.372-81.45 63.372-100.345 115.819-50.931 272.927-129.66 347.146-209.555 18.933-20.372 32.502-40.783 38.606-60.845 37.401-123.128-17.029-262.702-39.656-312.428-3.227-7.115 3.382-14.579 10.847-12.324 91.675 27.448 180.28 22.316 238.403 13.257 52.214-8.164 104.545 14.113 134.754 57.463 23.482 33.746 47.781 79.584 62.944 138.329 2.061 7.931 3.966 16.096 5.637 24.533 8.047 39.966 11.74 85.299 8.513 136.191z"/><path fill="#fff" d="M1896.06 2170.829c-20.411 16.795-60.378 39.656-137.435 59.562-55.674 14.385-59.445 45.022-59.445 45.022s-21.967-57.813 14.307-68.193c44.71-12.83 104.583-17.846 131.448-36.585 11.391-7.97 29.12-16.873 45.488-24.338 2.06 7.931 3.965 16.095 5.637 24.532z" opacity=".3"/><path fill="#371a45" d="M1538.689 2319.422s-57.891 120.756-303.058 207.845c-113.409 40.278-174.914 72.158-201.624 105.477-1.011-40.317 20.372-81.45 63.372-100.345 115.819-50.931 272.927-129.66 347.146-209.555l94.164-3.422z" opacity=".3"/><path fill="#fff" d="M1840.853 2028.495c-32.58-33.553-79.857-49.726-127.055-42.378-61.311 9.603-154.814 14.968-251.505-13.996-3.226-.972-6.259-.233-8.553 1.477-3.771-9.408-7.309-17.495-10.264-24.027-3.227-7.115 3.382-14.579 10.847-12.324 91.675 27.448 180.28 22.316 238.403 13.257 52.214-8.164 104.545 14.113 134.754 57.463 4.469 6.414 8.94 13.257 13.373 20.528z" opacity=".3"/><path fill="#371a45" d="M1510.466 2900.751c-32.637 0-64.248-11.575-89.648-33.374v-.002c-14.827-12.725-28.848-23.594-41.677-32.3-54.458-36.963-103.452-47.537-160.183-59.78-36.243-7.822-77.322-16.687-123.669-33.733-2.478-.911-4.893-1.997-7.307-3.098-43.374-19.761-69.873-61.555-69.558-109.255.325-48.933 28.174-91.489 72.683-111.062 221.748-97.515 355.681-190.083 377.127-260.652 35.532-116.912-15.374-249.785-38.909-301.487-4.043-8.875-2.583-18.948 3.813-26.284 6.428-7.373 16.252-10.217 25.662-7.39 89.441 26.787 176.125 21.614 233.086 12.551 56.409-8.955 114.255 15.681 147.383 62.803 42.078 59.854 90.256 162.278 80.823 310.313-10.02 157.207-84.407 246.467-163.162 340.969-44.033 52.839-89.568 107.476-123.323 175.752-18.794 38.013-53.484 64.69-95.181 73.193-9.322 1.901-18.682 2.836-27.96 2.836zm-69.389-56.978c25.278 21.699 58.501 30.325 91.133 23.665 32.217-6.57 59.011-27.163 73.516-56.501 35.386-71.577 82.119-127.651 127.31-181.88 75.413-90.491 146.643-175.962 156.016-323.035 8.857-139.014-36.018-234.675-75.227-290.449-26.348-37.478-72.327-57.08-117.051-49.971-57.329 9.119-143.279 14.475-233.491-9.673 26.47 61.895 70.615 192.471 34.712 310.608-30.923 101.75-231.526 208.472-394.368 280.081-33.13 14.568-53.86 46.294-54.099 82.798-.237 35.801 18.808 65.918 50.947 80.559 2.122.969 3.811 1.758 5.552 2.397 44.299 16.292 82.527 24.541 119.495 32.52 57.407 12.39 111.631 24.092 171.086 64.446 13.797 9.365 28.757 20.95 44.47 34.438v-.003z"/><path fill="#5f5272" d="M1535.172 2322.221c-366.568 53.848-506.923-323.845-506.923-323.845l362.325-79.13s56.199 92.809 173.229 125.118"/><path fill="#fff" d="m1563.804 2044.357-2.955 28.498c-132.731-28.537-210.994-117.841-229.228-140.74l58.94-12.869c.001 0 56.219 92.803 173.243 125.111z" opacity=".3"/><path fill="#371a45" d="M1535.189 2322.221c-366.585 53.847-506.936-323.858-506.936-323.858l84.133-18.389c38.11 78.49 155.828 275.375 384.405 295.374 23.608 2.066 40.829 23.299 38.398 46.873z" opacity=".3"/><path fill="#371a45" d="M1535.925 2327.351c-6.481 3-13.141 5.374-19.88 7.446-6.734 2.139-13.533 4.155-20.472 5.085-6.92 1.099-13.885 2.068-20.876 2.734-3.491.461-6.995.601-10.51.598l-10.544.166c-28.181.732-56.298-4.036-83.688-10.4l-20.477-5.249c-6.761-1.965-13.422-4.28-20.153-6.35-3.34-1.113-6.754-2.019-10.03-3.306l-9.836-3.848c-6.509-2.676-13.228-4.875-19.517-8.049l-19.114-8.958-18.517-10.093c-6.269-3.208-12.026-7.251-18.037-10.881l-8.927-5.588-8.601-6.052c-46.215-31.938-85.834-72.236-119.666-116.289-16.899-22.087-32.306-45.247-46.302-69.229-6.895-12.053-13.629-24.197-19.773-36.689-3.1-6.23-6.113-12.51-8.99-18.887-2.917-6.458-5.613-12.607-8.344-19.719l-6.431-16.748 17.69-3.865 362.324-79.128 10.546-2.302 6.075 9.441c1.88 2.922 4.438 6.682 6.959 9.998 2.488 3.438 5.234 6.763 7.901 10.122 5.514 6.616 11.287 13.059 17.347 19.236 12.117 12.346 25.183 23.848 39.349 33.76 14.198 9.922 29.576 17.737 44.639 25.959 14.985 8.691 30.248 16.14 45.11 29.102l.259.225c2.327 2.031 2.569 5.564.539 7.891-.947 1.086-2.231 1.719-3.558 1.877-19.872 2.351-39.177-1.887-56.636-9.702-8.948-3.535-17.167-8.525-25.366-13.459-4.046-2.556-7.881-5.432-11.819-8.132l-5.88-4.087-5.672-4.36c-7.72-5.603-15.068-11.653-22.398-17.732l-10.585-9.583c-3.501-3.223-6.797-6.665-10.2-9.99-6.667-6.797-13.036-13.896-19.153-21.248-2.989-3.752-6.024-7.444-8.871-11.365-2.957-3.938-5.56-7.666-8.572-12.4l16.62 7.136-362.324 79.131 11.259-20.61c2.131 5.552 4.851 11.841 7.529 17.737 2.699 5.986 5.555 11.936 8.495 17.847 5.826 11.855 12.258 23.44 18.826 34.929 13.349 22.869 28.048 44.961 44.113 65.955 32.164 41.882 69.604 79.883 112.755 109.673 42.876 30.01 91.219 52.214 142.31 62.813 25.614 4.846 51.509 7.637 77.603 8.845 13.043 1.306 26.127.859 39.384 2.017 13.276 1.121 26.604 1.304 40.579 4.319l.376.081c2.915.63 4.768 3.501 4.139 6.416-.368 1.708-1.537 3.066-3.007 3.759zm152.027 397.87c-1.555 0-3.137-.237-4.7-.73-8.188-2.593-12.725-11.333-10.132-19.521 68.12-215.164 34.648-338.45 14.648-412.109-10.142-37.354-16.841-62.031-4.204-81.421 8.147-12.5 22.393-19.683 46.191-23.293 120.498-18.279 143.657-59.053 143.877-59.46 3.596-7.8 12.737-10.999 20.535-7.402s11.106 13.042 7.507 20.842c-2.607 5.657-29.465 55.869-167.256 76.772-13.496 2.046-22.07 5.339-24.797 9.524-5.024 7.71 1.086 30.222 8.164 56.289 19.524 71.912 55.867 205.767-15.012 429.648-2.099 6.625-8.222 10.861-14.821 10.861z"/><path fill="#fff" d="M1513.324 2486.334c-33.884 21.966-104.553 61.238-217.79 94.235-14.876 4.335-23.018 20.333-17.947 34.975l12.37 35.714c4.55 13.137 18.276 20.795 31.809 17.607 36.062-8.495 113.586-32.21 239.499-96.901 13.601-6.988 18.848-23.755 11.562-37.198l-20.877-38.519c-7.547-13.925-25.334-18.529-38.626-9.913z"/><path fill="#371a45" d="M1561.277 2571.977c-125.927 64.693-203.451 88.41-239.492 96.885-13.568 3.188-27.293-4.471-31.841-17.612l-12.364-35.69c-5.054-14.657 3.071-30.637 17.962-34.99 4.432-1.283 8.825-2.605 13.141-3.927l11.002 31.841c4.549 13.102 18.273 20.761 31.802 17.573 34.408-8.087 106.644-30.092 222.696-88.371 5.173 12.869-.27 27.798-12.906 34.291z" opacity=".3"/><path fill="#371a45" d="M1315.503 2685.15c-17.81 0-34.148-11.216-40.239-28.801l-12.371-35.715c-3.821-11.03-2.937-23.306 2.422-33.677 5.405-10.461 14.592-18.032 25.869-21.318 112.561-32.8 182.192-71.941 213.682-92.354 9.934-6.445 22.212-8.472 33.706-5.532 11.521 2.935 21.382 10.62 27.051 21.084l20.877 38.521c5.522 10.183 6.68 21.892 3.257 32.964-3.433 11.108-11.025 20.156-21.382 25.476-128.074 65.801-207.246 89.773-243.04 98.206-3.292.773-6.587 1.146-9.832 1.146zm206.282-185.766c-32.92 21.34-105.522 62.205-221.9 96.116-3.017.881-5.483 2.917-6.938 5.737-1.489 2.881-1.726 6.155-.664 9.216l12.371 35.715c1.963 5.667 7.793 8.914 13.55 7.561 34.411-8.108 110.825-31.309 235.957-95.598 2.852-1.465 4.939-3.948 5.879-6.995.93-3.008.618-6.191-.884-8.958l-20.876-38.523c-1.575-2.905-4.199-4.951-7.388-5.764-3.153-.8-6.383-.27-9.107 1.493z"/><path fill="#371a45" d="M2623.36 2773.834c-2.527.661-5.094 1.322-7.62 1.944-40.551 10.38-80.246 19.517-119.085 27.526-4.044 21.383-8.553 41.717-13.452 61.078-8.592 33.785-18.312 64.499-28.576 92.297l-49.998 8.475c-61.934 10.458-119.979-17.34-154.542-65.083-8.904.933-17.768 1.827-26.554 2.644-45.41 4.277-88.915 7.037-130.438 8.592-.894-21.577-1.71-41.133-2.488-58.24 42.261-1.516 86.621-4.316 132.925-8.67-4.782-17.69-6.882-36.624-5.754-56.258.855-14.502 1.4-29.936 1.71-46.265 1.439-79.74-4.043-181.874-21.966-311.883-32.891-238.598 42.416-313.361 85.883-378.444 4.51-6.726 9.253-13.024 14.269-18.817l222.851-19.323 102.835 760.427z" opacity=".3"/><path fill="#5f5272" d="m2698.279 2876.706-246.995 41.794c-101.706 17.185-193.032-68.854-186.85-177.014 4.86-85.299 1.322-201.468-20.256-358.148-32.891-238.598 32.23-315.032 75.696-380.076 30.83-46.149 83.822-70.215 136.735-61.35 60.068 10.031 152.521 15.979 248.201-14.152 7.698-2.449 14.579 5.715 11.236 13.413-13.53 31.258-25.194 93.114-32.619 166.749-5.404 53.847-8.514 114.031-8.397 173.165.349 176.042 56.568 336.882 104.777 442.554 2.333 5.093 4.238 10.264 5.676 15.474 17.573 61.312-21.966 126.55-87.204 137.591z"/><path fill="#fff" d="M2254.274 2125.39s8.849 40.397 92.695 65.419c83.846 25.021 101.676 6.597 93.355 49.091-8.321 42.494-27.636 66.267-27.636 66.267s8.023-60.026-12.778-68.05c-20.801-8.023-117.875-11.769-154.672-64.038-13.074-18.572 9.036-48.689 9.036-48.689z" opacity=".3"/><path fill="#fff" d="M2704.227 1977.992c-97.896 26.787-191.01 20.45-252.749 10.108-57.813-9.681-115.703 16.64-149.333 66.988-16.29 24.377-35.379 50.27-51.98 84.25 17.379-63.684 46.576-101.473 69.709-136.075 30.83-46.149 83.822-70.215 136.735-61.35 60.068 10.031 152.521 15.979 248.201-14.152 7.698-2.449 14.579 5.715 11.236 13.413-4.16 9.564-8.125 22.044-11.819 36.818z" opacity=".3"/><path fill="#371a45" d="M2425.483 2936.205c-41.924 0-82.717-15.562-115.103-44.548-42.375-37.932-64.783-92.988-61.472-151.055 5.589-98.035-1.189-217.522-20.146-355.139-31.638-229.651 27.048-315.754 69.9-378.625 2.823-4.143 5.591-8.203 8.277-12.222 34.145-51.094 93.921-77.791 152.231-68.047 58.889 9.856 148.499 15.479 240.955-13.648 9.309-2.935 19.182-.232 25.754 7.056 6.68 7.407 8.416 18.149 4.427 27.371-22.53 52.058-39.973 198.65-39.715 333.728.334 173.921 56.399 333.167 103.372 436.13 16.165 35.43 14.946 75.522-3.337 110.002-18.381 34.661-51.101 58.291-89.771 64.832l-246.985 41.777c-9.461 1.599-18.955 2.388-28.387 2.388zm25.794-17.722h.049-.049zm-16.099-962.801c-39.973 0-78.73 20.825-102.38 56.213-2.737 4.097-5.559 8.235-8.435 12.458-42.231 61.963-94.792 139.077-64.79 356.865 19.231 139.604 26.091 261.113 20.391 361.152-2.771 48.562 15.879 94.526 51.162 126.108 32.576 29.16 75.427 41.794 117.559 34.668l246.985-41.777c29.065-4.915 53.66-22.678 67.478-48.735 13.721-25.876 14.638-55.952 2.519-82.52-48.247-105.757-105.833-269.497-106.179-448.982-.254-132.49 15.771-271.851 37.92-334.924-93.989 26.87-183.674 21.025-243.369 11.035-6.283-1.048-12.586-1.561-18.861-1.561z"/><use xlink:href="#c"/><path fill="#371a45" d="M2785.483 2739.116c-42.922 12.985-97.002 15.512-162.707 4.237l-54.508-196.22s125.344-38.84 70.214-147.699l24.26-315.732s7.815 8.709 20.684 24.221c-5.404 53.847-8.514 114.031-8.397 173.165.349 176.042 56.568 336.882 104.777 442.554 2.334 5.093 4.239 10.264 5.677 15.474z" opacity=".3"/><path fill="#5f5272" d="M2624.494 2358.754c55.119 108.859-56.244 141.735-56.244 141.735l90.553 209.791c198.167-21.56 291.157-119.8 239.146-286.282-59.858-191.601-235.209-386.959-235.209-386.959l-38.246 321.715z"/><path fill="#371a45" d="m2658.817 2710.268-36.04-83.472c192.099-33.668 278.992-141.517 224.484-315.888-1.944-6.259-4.004-12.48-6.181-18.739 22.782 42.494 42.96 87.244 56.879 131.837 52.019 166.477-40.978 264.723-239.142 286.262z" opacity=".3"/><path fill="#371a45" d="M2629.119 2356.414c10.967 11.521 18.789 25.977 23.14 42.322 4.339 16.274 3.496 35.039-2.961 51.973-6.482 16.97-18.234 31.252-31.678 41.648-6.718 5.278-13.888 9.7-21.258 13.557-3.713 1.88-7.45 3.679-11.304 5.264l-5.847 2.317c-2.09.771-3.765 1.389-6.47 2.202l10.067-21.489c7.305 17.588 14.751 35.112 22.359 52.568l22.639 52.446 45.276 104.895-15.959-9.297c36.375-4.143 72.49-10.786 106.41-22.698 33.799-11.797 65.765-28.826 89.925-53.284 11.959-12.258 21.807-26.267 28.972-41.597 7.238-15.308 11.331-32.051 13.138-49.17 3.506-34.417-2.875-70.098-14.181-104.365l-9.017-25.901c-3.018-8.63-6.894-17.004-10.294-25.52l-5.264-12.727-5.862-12.507c-3.976-8.313-7.782-16.697-11.89-24.951-16.74-32.91-35.272-64.993-54.971-96.411-20.058-31.204-41.029-61.895-63.415-91.558-5.771-7.285-11.534-14.573-17.53-21.672-5.917-7.161-11.492-14.583-17.018-22.046-10.791-15.149-20.924-30.798-27.243-49.912l-.051-.156c-.969-2.93.621-6.089 3.551-7.058 1.441-.476 2.952-.327 4.216.291 18.463 9.063 32.339 22.268 44.945 36.453 12.702 14.133 23.281 29.934 34.263 45.369 22.428 30.535 44.115 61.636 64.546 93.628 20.171 32.166 39.21 65.11 56.498 99.106 4.249 8.538 8.21 17.241 12.326 25.857l6.074 12.976 5.502 13.276c3.56 8.901 7.564 17.595 10.75 26.67l9.49 27.258c12.073 36.765 19.603 76.604 15.514 117.095-2.109 20.137-7.048 40.374-15.849 59.041-8.704 18.684-20.76 35.759-35.019 50.337-28.842 29.126-65.087 47.966-101.857 60.845-36.981 12.959-75.183 19.902-113.294 24.253l-11.387 1.301-4.574-10.598-45.276-104.895-22.638-52.446c-7.484-17.51-15.13-34.949-22.917-52.329l-7.101-15.845 17.168-5.645c.843-.276 2.654-.94 4.028-1.497 1.482-.586 2.973-1.233 4.446-1.919 2.963-1.36 5.854-2.913 8.704-4.497 5.662-3.245 10.982-6.948 15.839-10.967 9.698-8.096 17.395-17.48 22.134-28.081 2.457-5.271 4.136-10.913 4.967-16.863 1.015-5.918 1.385-12.148 1.131-18.633-.131-13.035-2.685-26.809-5.141-41.731l-.012-.073c-.485-2.949 1.512-5.732 4.462-6.218 1.821-.302 3.604.372 4.798 1.608z"/><use xlink:href="#c"/><path fill="#371a45" d="m2682.922 2724.614-70.175 18.195c-5.016 1.283-10.381.233-14.424-2.994-20.139-16.135-78.923-75.308-101.706-230.122-1.205-8.243 3.81-16.135 11.819-18.467l2.449-.7c25.932 128.143 76.979 179.23 95.485 194.004 4.043 3.266 9.37 4.315 14.385 3.033l53.419-13.88c5.599 8.553 11.43 16.796 17.534 24.571 7.426 9.448 2.799 23.328-8.786 26.36z" opacity=".3"/><path fill="#371a45" d="M2608.577 2758.888c-7.202 0-14.29-2.405-19.956-6.936-24.561-19.658-84.187-82.39-107.385-239.98-2.344-15.891 7.49-31.233 22.874-35.679l63.01-18.208c16.97-4.915 34.837 4.922 39.792 21.912 11.861 40.664 45.061 142.395 97.034 208.657 6.748 8.601 8.696 19.902 5.208 30.229-3.472 10.276-11.826 18.042-22.344 20.771l-70.159 18.208c-2.662.689-5.377 1.026-8.074 1.026zm-32.535-270.964c-.095 0-.193.012-.291.039l-63.008 18.208c-.505.146-.823.691-.737 1.267 22.195 150.781 79.128 206.687 96.047 220.229.164.129.481.161.789.088l70.154-18.208c.21-.054.525-.134.688-.62.19-.564-.081-.911-.21-1.077-55.32-70.525-90.056-176.748-102.422-219.143-.138-.478-.553-.783-1.01-.783zm-310.861 254.69c-.652 0-1.308-.042-1.97-.125-8.521-1.079-14.556-8.86-13.479-17.38 22.041-174.326 89.917-304.417 134.834-390.503 24.766-47.466 48.159-92.302 40.864-106.672-2.7-5.322-12.578-7.852-20.386-9.036-137.703-20.889-164.763-70.369-167.397-75.94-3.667-7.766-.347-17.036 7.419-20.706 7.632-3.604 16.729-.452 20.52 7.041.876 1.492 25.278 40.825 144.121 58.853 22.168 3.362 36.384 11.772 43.457 25.71 14.539 28.645-6.375 68.728-41.025 135.139-43.887 84.114-110.21 211.228-131.548 380.015-.994 7.859-7.691 13.604-15.41 13.604z"/><path fill="#fff" d="M1295.149 1839.697c9.78 21.784 32.409 90.871 6.99 118.832-25.419 27.96-157.595 88.965-219.235 44.996-41.917-29.9-67.007-84.844-48.454-132.213 29.867-76.256 218.758-125.028 260.699-31.615z"/><path fill="#371a45" d="M1302.152 1958.513c-25.427 27.992-157.613 88.992-219.235 45.021-39.656-28.304-64.305-79.04-51.087-124.566 7.504 28.381 26.36 54.74 51.087 72.352 61.622 43.972 193.809-17.028 219.235-44.982 3.966-4.393 6.765-9.759 8.592-15.784 4.821 25.31 5.249 52.719-8.592 67.959z" opacity=".3"/><path fill="#371a45" d="M1139.741 2034.364c-24.619 0-47.654-5.186-65.869-18.179-43.84-31.272-76.433-93.025-53.901-150.545 21.604-55.163 106.247-91.045 172.28-92.654 56.55-1.34 99.248 20.613 117.085 60.339.422.94 41.763 94.463 4.309 135.664-21.504 23.659-104.077 65.375-173.904 65.375zm57.405-230.332c-1.428 0-2.808.017-4.136.049-62.136 1.514-129.463 35.581-144.08 72.903-16.724 42.695 8.975 89.607 43.003 113.88 52.219 37.256 174.504-16.179 198.699-42.795 17.087-18.799 2.134-75.711-9.67-102.002-16.165-36.002-57.781-42.035-83.816-42.035z"/><path fill="#fff" d="M1600.467 3184.021c-153.778 30.332-176.114 148.699-162.24 190.157 21.362 63.835 160.091 81.687 325.742 62.544 223.144-25.787 231.932-104.07 231.932-104.07 3.805-32.167-7.45-113.987-14.467-159.728-2.68-17.469-19.342-29.199-36.692-25.831-32.185 6.248-82.222 15.256-116.968 18.174-5.807.488-9.906-5.521-7.26-10.713 7.37-14.458 16.639-39.883 5.497-61.709-20.909-40.961-139.85-24.679-149.448 0-9.599 24.679-1.372 76.437-76.096 91.176z"/><path fill="#371a45" d="M1644.846 3459.708c-123.701.005-203.84-28.22-221.367-80.596-8.286-24.761-5.774-68.455 18.518-110.247 20.801-35.779 64.653-82.19 155.459-100.1 49.231-9.712 54.37-35.769 59.339-60.964 1.448-7.341 2.815-14.275 5.273-20.596 11.667-30 78.633-34.238 86.23-34.622 21.873-1.121 74.573-.09 91.563 33.188 9.002 17.634 9.05 39.495.364 62.625 31.826-3.616 71.812-10.796 101.553-16.57 12.578-2.449 25.283.276 35.762 7.649 10.479 7.378 17.322 18.418 19.265 31.089 8.74 56.97 18.354 131.653 14.539 163.914-1.03 9.18-16.763 91.25-245.591 117.693-43.785 5.059-84.266 7.537-120.907 7.537zm46.004-360.678c-1.362 3.748-2.422 9.119-3.54 14.79-5.288 26.821-14.143 71.711-83.833 85.459-79.399 15.662-117.014 54.988-134.59 85.22-20.613 35.464-20.811 70.11-15.911 84.744 16.907 50.542 141.172 71.453 309.207 52.031 199.675-23.074 217.59-87.732 218.31-90.781 2.515-22.527-2.739-78.987-14.431-155.21-.649-4.229-2.932-7.91-6.428-10.371-3.494-2.458-7.737-3.359-11.929-2.551-34.971 6.79-83.938 15.491-118.63 18.406-8.313.701-16.384-3.164-21.033-10.083-4.631-6.897-5.161-15.781-1.384-23.191 5.557-10.903 13.665-31.584 5.5-47.578-4.165-8.162-18.909-14.114-39.436-15.92-37.761-3.33-75.73 7.801-81.872 15.035zm-90.384 84.992h.049-.049z"/><path fill="#5f5272" d="M1438.211 3319.735c20.594 61.456 149.782 80.33 307.094 64.525 6.183-.558 12.366-1.255 18.641-1.953 223.185-25.801 231.971-104.084 231.971-104.084 3.765-32.169-7.484-113.987-14.504-159.73-2.65-17.479-19.338-29.194-36.678-25.846-32.17 6.276-82.236 15.294-116.963 18.177-5.811.511-9.901-5.486-7.252-10.692 7.345-14.458 16.642-39.886 5.486-61.735-20.919-40.956-162.273-23.851-171.895.787-9.576 24.685 21.091 75.684-53.661 90.421-74.566 14.69-118.217 50.113-141.833 87.397-25.101 39.65-27.519 81.395-20.406 102.733z"/><path fill="#fff" d="M1438.211 3319.735c20.594 61.456 149.782 80.33 307.094 64.525-12.086-64.944-57.923-221.559-253.402-176.42-11.761 2.743-22.871 5.811-33.284 9.159-25.103 39.653-27.521 81.398-20.408 102.736z"/><path fill="#fff" d="M1831.091 3057.486c-35.935-25.289-137.458-21.937-145.965-.042-9.576 24.685 5.806 88.322-68.945 103.058-143.878 28.403-172.654 133.836-164.425 181.254-6.276-6.601-10.832-13.946-13.528-21.989-13.853-41.467 8.461-159.823 162.24-190.18 74.705-14.736 44.021-65.721 53.644-90.406 9.576-24.685 150.993-41.711 171.912-.755 3.161 6.137 4.649 12.645 5.067 19.06z" opacity=".5"/><path fill="#371a45" d="M1995.888 3278.208s-8.786 78.284-231.924 104.085c-165.634 19.153-304.398 1.302-325.736-62.525-2.324-6.927-3.626-15.945-3.44-26.359 57.318 28.451 163.263 34.029 283.339 20.129 223.139-25.801 231.925-104.085 231.925-104.085 2.789-23.429-2.417-73.217-8.182-116.218.976-.186 1.953-.372 2.882-.558 17.34-3.393 33.982 8.368 36.678 25.801 7.02 45.743 18.27 127.56 14.458 159.73z" opacity=".3"/><path fill="#371a45" d="M1762.171 3172.247c-1.655 0-3.323-.525-4.736-1.614-53.386-41.06-115.913-46.238-209.08-17.29-4.107 1.257-8.457-1.021-9.734-5.12-1.272-4.102 1.018-8.459 5.12-9.734 98.564-30.623 165.313-24.692 223.176 19.819 3.403 2.617 4.041 7.5 1.421 10.903-1.531 1.991-3.836 3.036-6.167 3.036z"/><path fill="#371a45" d="M1731.416 3198.844c-1.667 0-3.347-.535-4.766-1.636-52.476-40.774-120.251-47.266-219.773-21.045-4.167 1.086-8.406-1.389-9.499-5.54-1.094-4.153 1.387-8.406 5.54-9.5 104.658-27.576 176.604-20.225 233.274 23.804 3.391 2.634 4.004 7.52 1.37 10.911-1.534 1.973-3.829 3.006-6.146 3.006z"/><path fill="#371a45" d="M1690.283 3227.518c-1.436 0-2.888-.396-4.187-1.228-75.256-48.201-124.98-46.577-207.969-24.714-4.175 1.079-8.406-1.389-9.499-5.54-1.094-4.153 1.387-8.406 5.54-9.5 87.546-23.062 140.137-24.69 220.317 26.658 3.616 2.317 4.671 7.124 2.354 10.742-1.485 2.318-3.995 3.582-6.556 3.582z"/><path fill="#371a45" d="M1644.846 3405.28c-123.701 0-203.84-28.22-221.367-80.596-8.286-24.761-5.774-68.455 18.518-110.247 20.801-35.779 64.653-82.19 155.459-100.1 41.155-8.118 40.379-25.505 39.302-49.573-.469-10.527-.955-21.411 2.859-31.221 11.355-29.194 82.92-34.265 97.151-34.985 31.413-1.577 86.641.554 103.093 32.788 9.002 17.634 9.053 39.495.364 62.622 31.826-3.616 71.812-10.796 101.553-16.57 12.578-2.446 25.283.273 35.762 7.649 10.479 7.378 17.322 18.418 19.265 31.089 8.74 56.97 18.354 131.653 14.539 163.916-1.03 9.177-16.763 91.248-245.591 117.69-43.785 5.06-84.266 7.538-120.907 7.538zm-44.38-275.686 3.01 15.256c-79.399 15.662-117.014 54.988-134.59 85.22-20.613 35.464-20.811 70.11-15.911 84.744 16.907 50.542 141.172 71.45 309.207 52.031 199.675-23.074 217.59-87.732 218.31-90.781 2.515-22.527-2.739-78.987-14.431-155.21-.649-4.229-2.932-7.91-6.428-10.371-3.494-2.461-7.737-3.364-11.929-2.551-34.971 6.79-83.938 15.491-118.63 18.406-8.313.706-16.382-3.164-21.03-10.083-4.634-6.892-5.164-15.779-1.387-23.188 5.559-10.906 13.665-31.584 5.5-47.578-2.69-5.273-13.821-11.931-36.985-14.805-44.643-5.535-97.91 6.487-106.858 15.017-1.099 3.931-.786 10.911-.486 17.678 1.14 25.5 3.044 68.179-64.353 81.472l-3.009-15.257zm67.413-83.44zm-538.674-1124.841c2.62 7.358 5.742 14.905 9.036 22.136 3.319 7.266 6.918 14.358 10.758 21.218 3.888 6.833 8.09 13.376 12.534 19.543 4.537 6.079 9.395 11.672 14.477 16.509 6.251 5.95 6.494 15.84.544 22.092-5.95 6.25-15.84 6.492-22.091.542-.719-.684-1.359-1.421-1.919-2.2l-.065-.095c-10.904-15.356-17.783-31.501-23.257-47.7-2.665-8.125-4.968-16.277-6.931-24.473-1.955-8.235-3.604-16.333-4.875-24.841-.495-3.315 1.791-6.404 5.106-6.899 2.919-.435 5.662 1.284 6.614 3.965l.069.203zm109.947-33.647c4.703 7.202 8.667 14.28 12.501 21.694 3.792 7.375 7.34 14.905 10.529 22.615 6.461 15.396 11.685 31.453 15.611 48.064 1.998 8.396-3.19 16.821-11.586 18.821-8.397 1.997-16.824-3.191-18.821-11.587-.236-.989-.372-2.087-.415-3.069-.534-15.178-2.314-30.564-5.418-45.815-1.508-7.642-3.395-15.232-5.544-22.766-2.141-7.48-4.653-15.12-7.452-22.112l-.111-.276c-1.245-3.11.266-6.641 3.376-7.886 2.728-1.091 5.783-.056 7.33 2.317z"/><path fill="#371a45" d="M1704.03 2293.401s-52.963 9.497-52.963 46.048 80.916 212.643 8.81 409.425c0 0 84.76-160.92 69.177-266.897s-25.024-188.576-25.024-188.576zm712.536 0s63.578 43.707 63.578 80.258-145.707 154.075-215.706 388.408c0 0 5.316-164.089 70.803-289.7 52.086-99.904 81.325-178.966 81.325-178.966z" opacity=".3"/><path fill="#371a45" d="M2398.723 2351.336s-64.335 85.285-113.813 74.587c-49.477-10.698-43.806-59.729-43.806-59.729l21.968 202.393-4.015 122.998 60.758-146.203 78.908-194.046zm-689.413 65.375s17.568 103.595 62.552 77.277c74.439-43.549 131.438-171.1 131.438-171.1s-96.224 315.814-206.768 358.302c0 0 37.145-211.287 12.778-264.479z" opacity=".3"/></svg>