<svg xmlns="http://www.w3.org/2000/svg" viewBox="0 0 523.59 128.25" width="48" height="48"><path fill="#fff" d="m223.9 46.171.001-.005-3.352 11.88 3.3508-11.875zm17.24 25.791-3.6938-.022 3.6938.022zm-.95 17.741h.004l-22.131.0806 22.128-.0806zm4.64-17.719-3.6951-.022 3.6951.022zm-2.7 16.211 3.855-14.702-3.855 14.705v-.002zm81.48-67.705-7.1814 33.76 7.1814-33.76zm-18.46 0-5.4517 25.22 5.4517-25.222v.002z"/><path fill="#fff" d="M322.38 18.971h-15.356c-.85205 0-1.698.68359-1.8799 1.5161l-5.4516 25.222-5.4517 25.222c-.18066.83251-1.0254 1.5137-1.8774 1.5137h-10.8691c-10.753 0-9.5093-7.4365-7.3071-17.627.022-.1025.044-.20263.0659-.30761l.24169-1.2842c.0146-.083.0317-.16603.0451-.2417l.49072-2.6148.52612-2.8027c.15992-.84473.40283-2.0801.56153-2.8564l2.478-12.109 2.4805-12.109c.1709-.83496-.38819-1.521-1.2402-1.521h-15.762c-.85206 0-1.6956.68604-1.8701 1.5186l-3.3887 16.079-3.3887 16.077c-.003.007-.004.0171-.005.0244l-.31494 1.4942c-3.9038 17.822-2.8686 34.817 18.347 35.349.3467.01.61525.0125.61525.0125h33.302c.85206 0 1.6956-.6836 1.8738-1.5186l7.1814-33.757 7.1814-33.76c.17701-.83497-.37598-1.5186-1.228-1.5186zm61.26 53.65c.85327 0 1.4111.6836 1.2402 1.5186l-1.4917 7.2876M381.9 88.719l1.4905-7.2925-1.4917 7.2949c0-.002.00099-.002.00099-.002zm-1.87 1.534c.002 0 .005-.002.007-.002-4.519.0366-18.099.13916-28.306.13916 12.422 0 28.298-.13672 28.298-.13672zm-37.46-27.019c-.0125-.79835.896-2.1729 1.7493-2.1729l-1.9177-.0317c-.86426 8.6914.16845 2.2046.16845 2.2046z"/><path fill="#fff" d="M353.13 90.387c-.0976 0-.19775 0-.29542.002.0976-.002.19777-.002.29542-.002zm30.51-17.766c.85327 0 1.4111.6836 1.2402 1.5186l-1.4917 7.2876-.24293 1.189M360.4 90.37h-.0623.0623zm-3.77.012h-.21852.21852zm-1.15.003c-.12201 0-.2417 0-.36134.002.11963-.002.23927-.002.36134-.002zm-1.17.002h-.31737.31737zm2.1-.005c-.31127 0-.62255.002-.93016.002.30761 0 .61889-.002.93016-.002zm3.93-.012c-1.2427.005-2.4829.01-3.7048.0125 1.2219-.002 2.4634-.007 3.7048-.0125zm19.7-.12h.001c-3.3118.0269-11.49.0879-19.646.11963 8.1518-.0292 16.332-.0927 19.645-.11963zm1.86-1.528 1.2488-6.106-1.25 6.1108c0-.002.001-.002.001-.005zm-26.78 1.665h-.81054.81054zm-2.29.002h-1.0962 1.0962zm1.16-.002h-.86426.86426zm-224.63-26.97 2.3852-10.574-2.727 12.087-2.6172 12.312 2.2937-10.793c.177-.83497.4773-2.1997.66529-3.0322zm28.55-44.624h-16.864c-.85326 0-1.7041.68115-1.8945 1.5112l-1.5991 7.0581-1.5991 7.0606c-.18799.83008.35523 1.5112 1.2085 1.5112h16.995c.85205 0 1.6992-.68115 1.8823-1.5137l1.5454-7.0581 1.5454-7.0532v-.002c.18189-.83253-.36621-1.5137-1.2195-1.5137zm-3.67 23.479v-.002l-4.9463 22.883 4.9463-22.881zm-48.99 75.818s8.501.10988 13.905.10988c-4.1052 0-10.885-.0756-13.912-.11225.003 0 .005.002.008.002zm28.88-75.821-2.3877 10.574 2.3877-10.574z"/><path fill="#fff" d="M153.02 40.756h-16.997c-.85205 0-1.7041.68117-1.8921 1.5137l-2.3877 10.574-2.3852 10.574c-.18799.83253-.48829 2.1973-.66529 3.0322l-2.2937 10.793-2.2925 10.793c-.17822.83252-.54443 2.1777-.81787 2.9858 0 0-3.175 9.4482-8.5132 9.3408-.22705-.005-.448-.007-.6665-.0125-2.5867-.0489-4.6191-.0855-4.6191-.0855h-.004c-.85083-.0125-1.7066.65185-1.9055 1.4795l-1.7627 7.4097-1.7603 7.4072c-.19775.82762.33692 1.5112 1.1841 1.5259 3.0274.0366 9.8071.11225 13.912.11225 13.334 0 20.363-7.3877 24.869-28.647l5.2734-24.399 4.9463-22.883c.17945-.83251-.3711-1.5137-1.2232-1.5137zm241.45 48.769c-.85205 0-1.405-.6836-1.2256-1.5186l12.786-59.89M412.24 88.004l5.1709-25.562-5.1709 25.562z"/><path fill="#fff" d="M393.43 88.766c-.10375-.41749-.0428-1.4404.13793-2.2754l6.0681-28.428-6.3928 29.944c-.17944.83495.37354 1.5186 1.2256 1.5186h1.5528c-.85328 0-2.489-.3418-2.5916-.75927zm17.8.417c-.46388.18799-1.543.3418-2.3962.3418h1.5527c.85205 0 1.6894-.6836 1.8579-1.521l.30761-1.5186c-.16967.83496-.85692 2.5098-1.322 2.6978zm3.6-13.96 2.2827-11.282c-.001.007-.002.0171-.004.022l-2.279 11.26zm50.45-43.095.70434 2.9102c.1941.83251-.34424 1.5088-1.1951 1.5112M412.55 86.486l2.2766-11.262-2.2766 11.262zm52.03-57.339.69703 2.981-.69703-2.981zm-47.47 34.795c.16969-.83496.45045-2.1875.62746-3.0151l2.4377-11.421-2.7612 12.937-.30397 1.499zm-10.87-36.807c-.16967.80567-.38696 1.8237-.53101 2.4976l-6.0681 28.43 6.3928-29.946.2063-.98145z"/><path fill="#fff" d="m465.98 35.038-.70434-2.9102-.69703-2.981-.35278-1.5088c-1.3806-5.3638-5.4334-8.4595-14.233-8.4595l-13.7-.0146-12.617-.0146h-14.1968c-.85205 0-1.6956.68115-1.8713 1.5161h-.001l-.62743 2.9663-.74096 3.5034-.2063.98145-6.3928 29.946-6.0681 28.428c-.18065.83496-.24169 1.8579-.13792 2.2754.1025.41747 1.7383.75927 2.5915.75927h12.808c.85327 0 1.9324-.15381 2.3962-.3418.46508-.18799 1.1523-1.8628 1.322-2.6978l2.2766-11.262 2.279-11.26c.001-.005.002-.0146.004-.022l.30396-1.499 2.7612-12.937 2.439-11.426c.18068-.83007 1.0205-1.5088 1.8713-1.5112l40.3-.0195c.85083-.002 1.3892-.67872 1.1951-1.5112z"/><path fill="#fff" d="M517.86 8.7244c-.85326.006-2.2485.0113-3.1018.0113h-12.899c-.85328 0-1.9458.57618-2.4268 1.2805l-28.523 41.787c-.48218.70557-1.0315.60059-1.2207-.22949l-2.0984-9.2065c-.18921-.83252-1.0437-1.5112-1.8958-1.5112h-18.337c-.85327 0-1.3586.66895-1.1255 1.4893l8.2166 28.784c.23437.82032.25147 2.168.0403 2.9932l-3.5815 13.931c-.2124.82764.3125 1.5039 1.1658 1.5039h18.123c.85205 0 1.7236-.67627 1.9348-1.5039l3.5828-13.931c.21119-.82519.80445-2.0605 1.3184-2.7417l46.306-61.459c.51393-.68115.2356-1.2354-.61645-1.2292l-4.8608.0317zM372.18 44.774l-.001-.0171c-.10737.92528-.96069 1.604-1.8128 1.604h-23.248c-.80323 0-1.2122-.54688-1.0938-1.2207.007-.0195.01-.0366.022-.0537 0 0-.008.002-.0146.007.005-.0269.005-.0512.0125-.0781 0 0 .044-.16358.10625-.39552 2.2204-5.9033 6.7432-9.7778 15.243-9.7778 9.5691 0 11.437 4.6753 10.787 9.9316zm-6.8201-26.834c-29.841 0-36.912 18.113-40.879 36.394-3.9673 18.633-3.6255 36.055 27.253 36.055h1.0962c.0976-.002.19777-.002.29542-.002h1.99218c.11963-.002.23927-.002.36133-.002.30762 0 .6189-.002.93017-.002h.21852c1.2219-.002 2.4622-.008 3.7048-.0125h.0623c8.1555-.0317 16.334-.0927 19.647-.11962.84717-.0125 1.676-.6958 1.8506-1.5234l1.25-6.1108.24293-1.189 1.4917-7.2876c.1709-.83496-.38696-1.5186-1.2402-1.5186h-27.761c-11.041 0-14.32-2.9346-13.112-11.56h44.377l-.004.005c.0113 0 .0208-.005.0305-.005.70556-.0125 1.3574-.49804 1.6162-1.145.0489-.1245.0904-.25391.10737-.38818l-.005.005c6.5894-24.854 4.6997-41.592-23.528-41.592zM224.32 44.679l-.41993 1.4868c0 .005-.001.005-.001.005l-3.3508 11.875-3.3496 11.873c-.23193.82031-1.1182 1.4917-1.9727 1.4917h-17.736c-13.453 0-16.729-10.522-13.453-26.042 3.2752-15.874 9.6973-25.742 22.938-26.741 18.094-1.3648 21.714 11.362 17.345 26.052zm12.163 25.818s8.3618-20.303 10.261-32.031C249.334 22.767 241.474 0 211.114 0c-30.187 0-43.295 21.737-48.297 45.367-5.0012 23.801 1.5515 44.675 31.567 44.504l23.679-.0879 22.131-.0806c.85205-.007 1.7236-.6836 1.9409-1.5064l3.855-14.705c.21485-.8252-.30639-1.5039-1.1584-1.5088l-3.6951-.022-3.6938-.022c-.7251-.005-1.1401-.47364-1.0522-1.0962.0159-.11225.0415-.22705.0904-.34668z"/><path fill="#fff" d="M385.92 56.908c0 .56153-.45532 1.0181-1.0181 1.0181-.56152 0-1.0181-.45654-1.0181-1.0181 0-.56152.45655-1.0156 1.0181-1.0156.56274 0 1.0181.4541 1.0181 1.0156z"/><path fill="#0868ac" d="M5.9785 30.509c-8.335 11.98-7.2974 27.566-.93018 40.295.15138.30518.31006.60546.46631.90576.10012.19043.19409.38574.29785.57373.05862.11225.1245.22216.18555.32959.10862.20263.21972.39551.33202.59326.19776.34912.4004.6958.60791 1.0425.11475.19042.22828.38085.34669.57128.22949.37109.46509.7373.70556 1.1035.10012.15625.19775.3125.30029.46386.33204.49561.67139.98877 1.0217 1.4746.0087.0125.01825.0269.02925.039.055.0781.116.15381.17212.23194.30274.41747.61524.83007.9314 1.2378.116.14892.23315.29785.35034.44677.28199.35401.56885.70558.8606 1.0571.10862.13184.2185.26366.32836.39306.39185.46143.79101.92041 1.1987 1.3696.0075.007.01713.0171.02437.0244.01713.0195.03175.0317.04637.0512.39795.43457.80566.85937 1.2183 1.2842.12816.13184.25879.26368.39062.39308.31982.32226.64452.63965.9729.95458.13305.12695.26489.25635.39795.37842.43822.4126.88134.81787 1.333 1.2134.0075.007.01337.0125.02075.0171.07688.0684.15625.13184.23194.19775.39795.34424.80322.68604 1.2109 1.023.16601.13428.33448.26612.50171.40039.33325.26611.67016.52979 1.0095.78858.17945.13672.35889.27343.53956.41016.37475.27587.75195.54687 1.1328.81299.13915.10012.27344.19775.41259.29296.039.0269.0745.0537.1135.0806.36134.24902.7312.48827 1.0999.72754.15869.105.31616.21483.47608.31737.5664.35889 1.1414.7129 1.7224 1.0547.15746.0904.31738.17822.47606.26856.42725.24658.85694.48828 1.2927.7251.2356.12695.4773.24658.71534.36865.30761.16113.61279.3247.92529.48095.07075.0343.14405.0684.21362.1025.12574.061.25269.11963.37842.18311.48461.23194.9729.45899 1.4661.67872.105.0464.2063.0928.31006.13916.56518.24657 1.1352.48339 1.7102.71045.13794.0561.2771.10987.41626.16356.53222.20509 1.0718.40773 1.6138.59815.06838.0244.13429.0464.20264.0707.59449.20753 1.1951.40039 1.7993.58838.14404.0415.2893.0879.43456.1294.61524.18555 1.2232.40771 1.8579.5249 40.31 7.3511 52.019-24.224 52.019-24.224-9.834 12.812-27.29 16.191-43.829 12.429-.62622-.1416-1.2341-.33691-1.8457-.51758-.15504-.0464-.30762-.0927-.46021-.13916-.59692-.1831-1.189-.37597-1.7773-.57861-.08062-.0292-.16236-.0586-.24415-.0879-.52734-.18555-1.0486-.38086-1.5674-.58105-.14649-.0586-.29298-.11475-.43945-.17334-.56885-.22461-1.134-.45899-1.6919-.70312-.11475-.0489-.22461-.10013-.33814-.14894-.47974-.21728-.95459-.437-1.427-.66406-.13671-.0659-.27344-.12939-.4126-.19775-.371-.181-.738-.374-1.104-.562-.245-.129-.494-.251-.737-.386-.447-.239-.886-.488-1.323-.742-.148-.083-.298-.163-.447-.249-.581-.342-1.155-.696-1.723-1.055-.157-.1-.31-.207-.465-.31-.412-.266-.822-.537-1.226-.815-.134-.091-.263-.188-.395-.278-.39-.276-.776-.555-1.159-.838-.174-.129-.345-.259-.514-.388-.351-.269-.7-.54-1.046-.818-.15625-.1245-.3125-.24902-.46631-.37354-.43945-.36132-.87402-.7251-1.3025-1.0986-.04512-.039-.094-.0781-.14282-.11963-.46386-.40771-.91919-.8252-1.3696-1.2451-.13062-.1245-.25758-.24659-.38575-.3711-.33325-.31738-.66161-.6372-.98389-.96435-.12939-.1294-.25879-.25635-.38574-.38575-.41015-.41991-.81299-.84473-1.2073-1.2768-.0195-.022-.04025-.0415-.05975-.0635-.41749-.45655-.8252-.92285-1.2244-1.394-.10862-.12939-.21362-.2539-.32105-.38085-.29785-.35889-.59326-.72266-.88135-1.0889-.108-.132-.216-.267-.323-.403-.347-.45-.686-.899-1.018-1.355-9.1823-12.525-12.481-29.8-5.142-43.987"/><path fill="#0868ac" d="M31.852 20.416c-6.0278 8.6743-5.7007 20.286-.99854 29.46.78858 1.5381 1.6748 3.0298 2.666 4.4507.90331 1.2939 1.9043 2.8345 3.103 3.8745.43458.47852.88868.94482 1.3525 1.4038.11712.11963.23681.23438.35645.35157.45044.43701.9082.8667 1.3818 1.2842.0195.0146.03663.0341.05613.0489.005.005.01.007.01337.0125.52368.45899 1.0644.90089 1.6138 1.3354.12212.0927.24292.19044.36621.28565.55054.42237 1.1121.8374 1.6882 1.2329.01713.0125.03175.0244.04888.0366.25391.17578.5127.33936.77026.50781.12325.0806.24049.16602.365.2417.41138.26367.82762.52002 1.2512.7666.05987.0366.11838.0684.177.1025.365.20995.73486.41747 1.106.61767.12939.0732.26122.13672.39306.20508.25635.13427.5127.271.77392.40039.039.0195.07937.0366.11712.0538.53101.26122 1.0669.5127 1.6138.75195.11712.0513.23804.0976.35644.14648.43701.18555.87891.36622 1.3232.53712.18799.0708.37841.13916.5664.20751.40284.14892.80689.28565 1.2146.42236.18432.0586.365.11963.54932.17579.57982.18066 1.1523.40771 1.7566.50781 31.123 5.1562 38.308-18.806 38.308-18.806-6.477 9.3286-19.02 13.779-32.405 10.305-.59449-.15625-1.1804-.32715-1.7627-.51027-.17822-.0537-.35279-.11225-.52979-.17088-.41381-.13429-.82519-.27589-1.2329-.42482-.18676-.0684-.37352-.13671-.55664-.20751-.44678-.1709-.88868-.34912-1.3269-.53467-.11962-.0513-.24049-.0976-.35768-.15137-.54931-.23926-1.0901-.49072-1.6235-.7544-.27466-.13427-.54444-.27587-.81421-.41503-.15625-.0805-.31372-.16113-.46998-.2417-.34668-.18799-.69091-.3833-1.0303-.58105-.0805-.0464-.16479-.0904-.24658-.13917-.42115-.24658-.83619-.50048-1.2476-.76171-.12695-.0806-.24902-.16846-.37598-.25147-.271-.17578-.54199-.354-.8081-.53467-.57374-.39551-1.1316-.81055-1.6821-1.2305-.12695-.10013-.2539-.19775-.37841-.29785-5.859-4.626-10.503-10.947-12.711-18.115-2.314-7.434-1.815-15.779 2.194-22.551"/><path fill="#0868ac" d="M53.613 12.875c-3.5535 5.2295-3.9026 11.724-1.4368 17.5 2.6001 6.1304 7.9285 10.94 14.147 13.22.25635.0953.5127.18066.77271.26855.1135.0342.22582.0733.34058.10737.36621.11475.72998.24903 1.1084.31983 17.185 3.3203 21.846-8.8184 23.087-10.605-4.0832 5.8789-10.945 7.29-19.364 5.2466-.665-.162-1.396-.402-2.037-.629-.822-.293-1.632-.627-2.419-1.005-1.495-.718-2.92-1.59-4.241-2.588-7.534-5.716-12.214-16.621-7.298-25.502"/><path fill="#fff" d="m247.16 114.73-4.9536 11.282h-5.4688l.448-10.251-4.0259 10.251h-5.2954l-.13916-11.282.58471-2.7856h3.75l-.72264 11.143 4.1626-11.143h5.2283l-.37841 11.282 4.1284-11.282h3.2666l-.58471 2.7856zm8.63 3.34c.48217-2.2022.34424-2.6148-.79103-2.6148h-1.72l-1.1011 5.1611-1.6858 5.398h-3.1982l2.6135-12.244.37964-1.7896h2.9236l.37841.82518s1.6858-.99608 3.335-.99608c3.5095 0 3.2348 2.6465 2.4768 6.2598h-3.6108zm10.39-7.88c-1.4087 0-2.3035-.4126-1.9604-2.1314.37841-1.7212 1.4795-2.1338 2.854-2.1338 1.3782 0 2.3059.41259 1.9275 2.1338-.34424 1.6846-1.4441 2.1314-2.821 2.1314zm-1.5124 15.823h-3.1665l.62011-5.5029 1.1011-5.0903-2.2009-.4834.6189-2.9907h6.0181l-2.9907 14.067zM278.39 114.93l-3.9551.4834-1.1365 5.3662c-.31005 1.4795-.31005 1.8921.99853 1.8921h2.6477l-.55054 2.8198s-2.406.72265-3.4399.72265c-4.0588 0-4.0247-2.2363-3.3008-5.5737l1.1011-5.2612-2.2022-.48096.65308-2.9932h2.3059l1.3074-3.5449h3.1299l-.75805 3.5449h3.8525l-.65308 3.0249zm8.22.18c-1.8567 0-2.821.96436-3.1982 2.6831l5.2966-.44677c.24048-1.1694 0-2.2363-2.0984-2.2363zm-3.7134 5.227c-.24293 1.7212.41138 2.3047 2.6123 2.3047h5.5371l-.54933 2.6148s-3.3362.92774-5.813.92774c-6.1572 0-6.2268-3.4717-5.4346-7.1875.791-3.6475 2.2009-7.2559 8.1506-7.2559 5.7459 0 6.0217 3.4717 4.6106 8.5962h-9.1138zm21.7334 5.673h-3.1628l.61888-5.5029 2.2363-10.457-2.2034-.51514.65431-2.9932h6.0205l-4.1638 19.468zm11.43-10.9c-1.8591 0-2.821.96436-3.2007 2.6831l5.2978-.44677c.23925-1.1694 0-2.2363-2.0972-2.2363zm-3.7158 5.227c-.24049 1.7212.41381 2.3047 2.6135 2.3047h5.5383l-.55054 2.6148s-3.3374.92774-5.8142.92774c-6.1572 0-6.2244-3.4717-5.4334-7.1875.79222-3.6475 2.2021-7.2559 8.1519-7.2559 5.7446 0 6.0193 3.4717 4.6106 8.5962h-9.1162zm23.6258-5.057s-4.0246.0343-5.1245.0343c-2.3401 0-2.5806.72021-2.7515 1.477l-.13915.68847 7.4304.55177s.0341 2.373-.27587 3.7134c-.44677 2.2363-2.7515 4.5044-6.9128 4.5044-2.0654 0-5.4016-.78857-5.4016-.78857l.58471-2.7173h5.1257c2.2705 0 2.5806-.62013 2.7197-1.2378l.17088-.89355-7.2925-.55176s-.27466-1.8237.1025-3.645c.55176-2.478 2.8198-4.6094 6.9824-4.6094 2.0642 0 5.4004.75439 5.4004.75439l-.6189 2.7197zm13.83 0s-4.0234.0343-5.1245.0343c-2.3389 0-2.5793.72021-2.7515 1.477l-.13917.68847 7.4316.55177s.0341 2.373-.27587 3.7134c-.44678 2.2363-2.7515 4.5044-6.9141 4.5044-2.063 0-5.4004-.78857-5.4004-.78857l.58471-2.7173h5.1257c2.2693 0 2.5793-.62013 2.7185-1.2378l.1709-.89355-7.2925-.55176s-.27465-1.8237.1025-3.645c.55175-2.478 2.8198-4.6094 6.9836-4.6094 2.063 0 5.3992.75439 5.3992.75439l-.6189 2.7197zm4.33 12.97h-2.7502l.1025-2.0654c-.99854-.0659-1.5137-.78858-1.2732-1.9946.37842-1.7188 1.4453-2.1313 2.8552-2.1313 1.3757 0 2.3022.41259 1.9263 2.1313l-.8606 4.0601zm18.4-12.83c-2.063 0-2.7844 1.2378-3.2666 3.5083-.48218 2.2705-.34424 3.6108 1.7188 3.6108h2.8552l1.5832-7.1191H372.53zm4.7131 8.7695-.37964 1.8237-2.887-.0341-.41381-.89356s-2.5464 1.0986-4.2639 1.0986c-4.4043 0-4.6106-3.6108-3.8196-7.2559.79102-3.7158 2.511-7.2241 6.8799-7.2241 1.5832 0 3.7146.79102 3.7146.79102l1.7542-5.9497h3.1653l-3.75 17.644zM388.63 115.28c-2.6819 0-3.5437 1.5112-4.0247 3.7134-.44677 2.2363-.23925 3.75 2.4072 3.75 2.7527 0 3.5791-1.4795 4.0588-3.75.48339-2.1338.34424-3.7134-2.4414-3.7134zm-2.3376 10.938c-5.6763 0-6.1243-3.5425-5.3674-7.2241.79224-3.6792 2.7869-7.1875 8.4631-7.1875 5.6396 0 6.1572 3.5083 5.3638 7.1875-.78979 3.75-2.7856 7.2241-8.4595 7.2241zm32.1976-.208.62012-5.4346.30883-1.5478c.448-2.063.72266-3.5767-1.4453-3.5767h-1.6846c.0696 1.0669-.13794 2.2705-.41259 3.5425l-1.4783 7.0166h-3.1995l.6189-5.4346.30883-1.5478c.44799-2.063.72143-3.5767-1.4429-3.5767h-1.377l-2.2705 10.559h-3.6816l2.9932-14.067h2.8894l.44678.85937s1.9617-1.0327 3.5437-1.0327c1.2036 0 2.0984.55176 2.4084 1.2378.68726-.37842 2.6489-1.2378 4.0601-1.2378 4.3994 0 4.2639 3.5767 3.4717 7.2241l-1.4783 7.0166h-3.1995zm14.62-10.73c-2.6843 0-3.5437 1.5112-4.0247 3.7134-.44677 2.2363-.23925 3.75 2.4072 3.75 2.7515 0 3.5791-1.4795 4.0601-3.75.48096-2.1338.34301-3.7134-2.4426-3.7134zm-2.3389 10.938c-5.6775 0-6.123-3.5425-5.3662-7.2241.79101-3.6792 2.7856-7.1875 8.4619-7.1875 5.6421 0 6.1572 3.5083 5.365 7.1875-.7898 3.75-2.7856 7.2241-8.4607 7.2241zm18.0189-8.148c.48096-2.2022.34424-2.6148-.7898-2.6148h-1.7212l-1.1011 5.1611-1.6858 5.398h-3.1982l2.6135-12.244.37963-1.7896h2.9236l.3772.82518s1.6858-.99608 3.3386-.99608c3.5071 0 3.2312 2.6465 2.4744 6.2598h-3.6108zm12.32-2.96c-1.8555 0-2.8198.96436-3.197 2.6831l5.2942-.44677c.24292-1.1694 0-2.2363-2.0972-2.2363zm-3.7146 5.227c-.23925 1.7212.4126 2.3047 2.6135 2.3047h5.5383l-.54932 2.6148s-3.3374.92774-5.813.92774c-6.1572 0-6.2256-3.4717-5.437-7.1875.79223-3.6475 2.2034-7.2559 8.1531-7.2559 5.7434 0 6.0205 3.4717 4.6094 8.5962h-9.115zM469.6 126.22c-1.4453 0-2.3376-.41259-1.9592-2.0972.34179-1.7236 1.4087-2.1338 2.8552-2.1338 1.3403 0 2.2681.41015 1.9263 2.1338-.38086 1.6504-1.4795 2.0972-2.8223 2.0972z"/></svg>