<svg xmlns="http://www.w3.org/2000/svg" xml:space="preserve" viewBox="0 0 4000 4000"><path fill="transparent" d="M0 0h4000v4000H0z"/><ellipse cx="1970" cy="3377.5" fill="#371a45" opacity=".3" rx="890" ry="137.5"/><path fill="#f92323" d="M1423.131 1884.784c-8.724-76.792-96.075-273.045-179.585-365.937 0 0 271.65 129.803 510.415 129.803"/><path fill="#fff" d="M1686.635 1696.692c-187.932-28.694-344.483-114.968-353.28-107.56-8.797 7.408 84.793 175.149 102.071 278.214l-12.312 17.455c-8.723-76.829-96.003-272.997-179.518-365.9 4.207 1.993 273.44 129.745 510.347 129.745l-67.308 48.046z" opacity=".7"/><path fill="#371a45" d="m1629.999 1737.121-146.307 104.416c-33.034-64.651-92.892-186.684-87.861-203.243 5.031-16.558 66.233 63.521 234.168 98.827z" opacity=".35"/><path fill="#371a45" d="M1423.111 1901.272c-8.276 0-15.405-6.213-16.362-14.629-8.105-71.355-91.694-263.594-175.464-356.772-5.259-5.85-5.654-14.597-.942-20.896 4.707-6.301 13.218-8.398 20.308-5.005 2.686 1.282 271.152 128.191 503.311 128.191 9.106 0 16.489 7.383 16.489 16.489 0 9.106-7.383 16.489-16.489 16.489-174.614 0-363.457-66.87-457.51-105.271 73.086 105.408 135.644 257.749 143.061 323.054 1.03 9.048-5.474 17.217-14.521 18.242-.631.074-1.261.108-1.881.108z"/><path fill="#f92323" d="M2471.879 1884.784c8.724-76.792 96.074-273.045 179.585-365.937 0 0-271.65 129.803-510.415 129.803"/><path fill="#fff" d="M2208.375 1696.692c187.932-28.694 344.483-114.968 353.28-107.56 8.797 7.408-84.793 175.149-102.071 278.214l12.312 17.455c8.723-76.829 96.003-272.997 179.518-365.9-4.207 1.993-273.439 129.745-510.347 129.745l67.308 48.046z" opacity=".7"/><path fill="#371a45" d="m2265.012 1737.121 146.307 104.416c33.034-64.651 92.892-186.684 87.861-203.243-5.031-16.558-66.233 63.521-234.168 98.827z" opacity=".35"/><path fill="#371a45" d="M2471.9 1901.272c-.62 0-1.25-.034-1.88-.108-9.048-1.028-15.552-9.194-14.521-18.242 7.422-65.313 69.98-217.651 143.062-323.057-94.053 38.403-282.896 105.273-457.51 105.273-9.106 0-16.489-7.383-16.489-16.489 0-9.107 7.383-16.489 16.489-16.489 232.158 0 500.625-126.909 503.311-128.191 7.085-3.393 15.596-1.296 20.308 5.005 4.712 6.299 4.316 15.046-.942 20.896-83.765 93.171-167.354 285.413-175.464 356.775-.959 8.414-8.093 14.627-16.364 14.627z"/><path fill="#ff2261" d="M2327.591 1802.837c-198.879-.368-396.3-48.061-396.3-48.061l-7.99-.029s-197.639 45.645-396.516 44.59c0 0-101.687 645.845-394.869 1153.156 0 0 273.27 68.055 565.022-32.596 0 0 103.016 69.232 227.484 69.678 124.467.445 227.804-68.049 227.804-68.049 291.279 102.738 564.861 36.64 564.861 36.64-290.816-509.4-389.496-1155.329-389.496-1155.329z"/><path fill="#f92323" d="M2717.071 2958.145s-29.359 7.085-79.043 13.019c-102.025 12.177-289.912 19.44-485.815-49.64 0 0-103.309 68.504-227.785 68.061-124.476-.443-227.475-69.699-227.475-69.699-195.902 67.574-383.48 59.116-485.549 46.23-49.994-6.288-79.486-13.639-79.486-13.639 293.189-507.291 394.86-1153.14 394.86-1153.14 198.869 1.063 396.543-44.592 396.543-44.592l7.971.044s197.408 47.692 396.321 48.046c0 0 98.66 645.937 389.458 1155.31z"/><path fill="#fff" d="M2717.071 2958.145s-9.255 2.258-26.215 5.27c-261.882-420.72-367.716-922.034-367.716-922.034-196.699-.31-391.938-40.606-391.938-40.606l-7.882-.044s-195.46 38.569-392.115 37.684c0 0-104.505 501.225-368.335 920.351-19.971-3.542-30.953-6.288-30.953-6.288 293.189-507.291 394.86-1153.14 394.86-1153.14 198.869 1.063 396.543-44.592 396.543-44.592l7.971.044s197.408 47.692 396.321 48.046c.001-.001 98.661 645.936 389.459 1155.309z" opacity=".7"/><path fill="#371a45" d="M2638.028 2971.164c-102.025 12.177-289.912 19.44-485.815-49.64 0 0-103.309 68.504-227.785 68.061-124.476-.443-227.475-69.699-227.475-69.699-195.902 67.574-383.48 59.116-485.549 46.23 262.502-394.904 353.501-894.978 353.501-894.978 179.695.885 358.239-34.628 358.239-34.628h7.262s178.367 37.285 358.062 37.639c0 0 88.785 500.251 349.56 897.015z" opacity=".35"/><path fill="#371a45" d="M1925.645 3006.065c-.43 0-.854 0-1.284-.002-110.728-.393-203.687-52.151-229.585-68.01-290.068 97.39-555.586 33.247-566.846 30.442l-21.245-5.291 10.952-18.958c288.218-498.716 391.846-1141.043 392.857-1147.473l2.207-13.996 14.17.076c194.463.845 390.762-43.716 392.72-44.167l1.86-.43 11.826.039 1.885.454c1.953.474 197.93 47.241 392.461 47.6l14.136.027 2.134 13.972c.981 6.431 101.621 648.867 387.515 1149.646l10.874 19.05-21.323 5.151c-11.265 2.722-277.07 64.976-566.689-34.5-25.891 15.623-118.474 66.37-228.625 66.37zm-226.323-104.431 6.816 4.58c.977.657 100.601 66.453 218.34 66.873.381.002.762.002 1.142.002 117.236 0 216.519-64.658 217.51-65.315l6.841-4.514 7.739 2.717c237.026 83.601 464.263 53.11 533.857 40.515-257.334-461.697-361.772-1031.565-377.993-1127.271-183.354-2.344-363.662-43.169-384.229-47.964l-4.238-.015c-20.449 4.553-200.976 43.569-384.39 44.583-16.69 95.791-123.789 665.344-383.242 1125.151 69.546 13.059 296.938 45.151 534.087-36.665l7.76-2.677z"/><path fill="#fff" d="M3209.192 1585.257c-17.989 41.026-47.989 69.128-79.469 88.336 23.458-37.018 39.136-80.714 28.489-125.182-18.979-79.081-147.96-110.534-239.585-128.668 13.347-6.844 55.732-28.56 60.268-30.546 52.553-22.864 281.732 78.682 230.297 196.06z" opacity=".6"/><path fill="#fff" d="M3202.786 1590.223c-1.002 2.236-2.004 4.472-3.105 6.626-.827 1.747-1.641 3.439-2.553 5.048-.692 1.426-1.427 2.783-2.217 4.127-1.239 2.239-2.52 4.408-3.787 6.523-1.119 1.737-2.183 3.487-3.345 5.155-1.952 3.012-3.99 5.886-6.125 8.677-1.135 1.557-2.327 3.1-3.504 4.587-1.616 2.09-3.316 4.043-5.017 5.995-1.631 1.91-3.306 3.75-5.036 5.578-1.73 1.828-3.446 3.599-5.219 5.358-4.301 4.221-8.729 8.235-13.272 11.987-1.322 1.1-2.643 2.2-4.007 3.231-2.685 2.131-5.4 4.137-8.17 6.13-1.351.975-2.757 1.937-4.164 2.899-2.455 1.656-4.966 3.298-7.463 4.884-.828.51-1.656 1.02-2.484 1.531-5.093 3.091-10.258 5.988-15.356 8.605-1.215.654-2.487 1.294-3.689 1.893-.608.327-1.271.64-1.866.912 0 0-.056-.013-.013.056-.387.143-.732.356-1.12.5-10.463 5.114-20.811 9.254-30.641 12.693-1.356.502-2.644.962-3.974 1.354-7.878 2.665-15.345 4.839-22.247 6.616-2.259.583-4.518 1.166-6.695 1.65-2.315.57-4.56 1.097-6.668 1.539-1.802.397-3.535.751-5.2 1.063-8.959 1.76-15.899 2.704-20.091 3.24-.597.035-1.083.096-1.569.157-1.818.216-2.833.27-2.833.27l-326.925 207.88-401.569 255.304-55.982-384.396s135.818-73.601 292.526-158.027c61.8-33.274 126.832-68.254 188.096-101.007 29.906-16.048 58.915-31.543 86.238-46.143 3.026-1.578 6.009-3.226 8.979-4.819 34.396-18.339 65.797-34.975 92.515-49.011 3.233-1.706 6.341-3.384 9.366-4.962 18.029-9.444 33.627-17.58 46.173-24.025 1.534-.755 3.026-1.579 4.49-2.291.069-.043.069-.043.138-.085 2.405-1.196 4.685-2.363 6.84-3.501 3.745-1.879 7.076-3.503 9.95-4.941 1.133-.556 2.211-1.125 3.206-1.595 2.999-1.467 5.377-2.552 7.092-3.323 52.553-22.866 281.732 78.68 230.297 196.058z"/><path fill="#fff" d="M3202.786 1590.223c-1.002 2.236-2.004 4.472-3.105 6.626-.827 1.747-1.641 3.439-2.553 5.048-.692 1.426-1.427 2.783-2.217 4.127-1.239 2.239-2.52 4.408-3.787 6.523-1.119 1.737-2.183 3.487-3.345 5.155-1.952 3.012-3.99 5.886-6.125 8.677-1.135 1.557-2.327 3.1-3.504 4.587-1.616 2.09-3.316 4.043-5.017 5.995-1.631 1.91-3.306 3.75-5.036 5.578-1.73 1.828-3.446 3.599-5.219 5.358-4.301 4.221-8.729 8.235-13.272 11.987-1.322 1.1-2.643 2.2-4.007 3.231-2.685 2.131-5.4 4.137-8.17 6.13-1.351.975-2.757 1.937-4.164 2.899-2.468 1.711-4.966 3.298-7.463 4.884-.828.51-1.656 1.02-2.484 1.531-5.093 3.091-10.258 5.988-15.356 8.605-1.215.654-2.487 1.294-3.689 1.893-.608.327-1.271.64-1.866.912-.401.199-.746.412-1.133.556-10.463 5.114-20.811 9.254-30.641 12.693-1.356.502-2.644.962-3.974 1.354-7.878 2.665-15.345 4.839-22.247 6.616-2.328.625-4.573 1.152-6.695 1.65-2.315.57-4.56 1.097-6.668 1.539-1.802.397-3.535.751-5.2 1.063-8.959 1.76-15.899 2.704-20.091 3.24-.597.035-1.083.096-1.569.157-1.818.216-2.833.27-2.833.27l-326.925 207.88c-25.684-40.676-39.389-81.689-44.956-121.005-20.76-145.006 68.027-267.121 68.027-267.121 29.906-16.048 58.915-31.543 86.238-46.143 3.026-1.578 6.009-3.226 8.979-4.819 34.396-18.339 65.797-34.975 92.515-49.011 3.233-1.706 6.341-3.384 9.366-4.962 18.029-9.444 33.627-17.58 46.173-24.025 1.534-.755 3.026-1.579 4.49-2.291.069-.043.069-.043.138-.085 2.405-1.196 4.685-2.363 6.84-3.501 3.745-1.879 7.076-3.503 9.95-4.941 1.133-.556 2.211-1.125 3.206-1.595 2.999-1.467 5.377-2.552 7.092-3.323 52.553-22.866 281.732 78.68 230.297 196.058z"/><path fill="#371a45" d="M2272.862 2198.78c-2.339 0-4.683-.498-6.87-1.501-5.083-2.332-8.638-7.078-9.448-12.612l-55.981-384.397c-.996-6.841 2.383-13.579 8.467-16.872 28.73-15.566 704.282-381.47 756.885-404.353 44.053-19.18 157.144 24.649 216.069 83.73 42.407 42.517 55.161 90.129 35.908 134.065-50.4 115.02-184.775 135.383-211.011 138.293l-725.171 461.072c-2.686 1.708-5.762 2.575-8.848 2.575zm-38.008-391.871 50.654 347.803 707.002-449.519c2.285-1.453 4.888-2.319 7.588-2.527 1.382-.11 140.835-12.368 187.588-119.063 13.823-31.541 4.048-64.358-29.048-97.542-57.871-58.02-155.908-87.07-179.57-76.78-47.901 20.841-657.715 350.802-744.214 397.628z"/><path fill="#371a45" d="M2965.066 1525.417c23.647 2.026 46.349 8.103 68.396 16.826 10.997 4.431 21.796 9.668 32.224 16.135 10.455 6.418 20.696 13.87 29.725 24.343 4.474 5.215 8.772 11.208 11.636 18.782 2.955 7.393 4.327 16.404 2.781 25.085-.498 2.09-1.046 4.175-1.641 6.235-.593 2.129-1.295 3.406-1.953 5.139-.619 1.626-1.434 3.247-2.267 4.858-.791 1.614-1.652 3.213-2.683 4.785-3.857 6.292-9.1 12.307-15.569 16.895-6.445 4.609-13.917 7.656-21.222 9.114-7.333 1.497-14.531 1.636-21.328 1.055-6.826-.586-13.336-1.904-19.596-3.706-3.129-.913-6.212-1.904-9.26-3.018-3.151-1.182-5.824-2.234-9.426-3.979l21.538-13.132c-.004 3.394-.155 5.725-.36 8.501-.205 2.668-.48 5.303-.813 7.93-.642 5.254-1.62 10.454-2.817 15.637-2.477 10.334-5.909 20.632-11.035 30.439-5.133 9.763-11.824 19.116-20.3 26.899-8.365 7.886-18.468 14.001-29.067 18.071-10.59 4.299-21.738 5.811-32.454 6.44-10.819.747-21.266-.72-31.4-2.659-4.967-1.287-9.956-2.495-14.749-4.146-4.741-1.792-9.534-3.369-14.042-5.61-9.135-4.133-17.739-9.255-25.774-15.227-1.107-.823-1.338-2.39-.515-3.499.524-.703 1.348-1.055 2.163-1.003l.054.005c19.74 1.362 38.23 3.75 56.069 4.182 17.683.173 34.805-.859 49.034-7.275 14.194-6.194 25.405-16.836 33.256-31.003 3.931-7.041 6.968-14.875 9.225-23.035 1.101-4.089 2.054-8.259 2.722-12.473.35-2.1.642-4.214.857-6.304.221-1.98.397-4.419.443-5.803l.021-.613c.269-8.11 7.059-14.468 15.17-14.199 2.268.076 4.46.698 6.349 1.68 1.514.796 4.109 1.97 6.292 2.837 2.29.92 4.63 1.736 6.982 2.434 4.702 1.414 9.437 2.393 13.995 2.83 9.167.854 17.321-.752 22.709-5.115 2.78-2.139 5.143-4.951 7.079-8.484.524-.833.966-1.772 1.378-2.751.441-.947.892-1.89 1.224-2.961.292-.955.911-2.249.961-2.908.106-.71.259-1.394.463-2.073.206-2.664-.212-5.293-1.51-8.467-1.245-3.12-3.597-6.643-6.522-10.085-2.849-3.45-6.456-6.865-10.164-10.217-3.892-3.247-7.876-6.553-12.19-9.67-8.582-6.223-17.766-12.163-27.205-17.949-18.865-11.648-38.625-22.798-58.337-35.19l-.068-.042c-1.152-.725-1.499-2.246-.775-3.398.506-.806 1.407-1.218 2.296-1.143z"/><path fill="#371a45" d="M3039.116 1486.936c3.268 12.998 5.986 25.19 9.208 36.699 1.516 5.769 3.441 11.279 4.788 16.724 1.212 5.527 2.838 10.674 3.116 16.423l.077 1.587c.392 8.081-5.841 14.949-13.921 15.339-5.597.273-10.62-2.654-13.304-7.151-3.723-6.272-5.779-13.296-6.758-20.271-1.025-7.007-.75-14.099.043-20.989.759-6.902 2.186-13.667 4.203-20.225 2.136-6.555 4.694-12.903 8.5-18.911.654-1.033 2.021-1.338 3.054-.684.498.315.826.796.961 1.323l.033.136zm-364.697 452.415c-4.102 0-8.115-2.041-10.469-5.769-51.143-81.047-63.262-176.345-35.034-275.591 21.172-74.451 57.051-124.346 58.564-126.433 4.019-5.522 11.738-6.743 17.266-2.737 5.522 4.006 6.753 11.738 2.749 17.266-1.382 1.912-136.992 193.071-22.627 374.297 3.643 5.776 1.914 13.413-3.857 17.058-2.051 1.291-4.336 1.909-6.592 1.909z"/><path fill="#371a45" d="M3102.405 1689.969s-.056-.013-.013.056c-.387.143-.732.356-1.12.5-10.463 5.114-20.811 9.254-30.641 12.693-1.356.502-2.644.962-3.974 1.354-7.878 2.665-15.345 4.839-22.247 6.616-2.328.625-4.573 1.152-6.695 1.65-2.315.57-4.56 1.097-6.668 1.539-1.802.397-3.535.751-5.2 1.063-8.959 1.76-15.899 2.704-20.091 3.24-.597.035-1.083.096-1.569.157-1.818.216-2.833.27-2.833.27l-326.925 207.88-401.569 255.304-24.279-166.705 100.289-88.599c87.805-50.046 175.973-34.075 255.796-63.372 17.658-6.481 33.862-12.733 45.984-17.982 92.851-40.202 158.685-83.413 158.685-83.413-44.649-24.563.565-76.796.565-76.796 136.09 22.244 154.629-76.91 173.621-82.472 18.992-5.563 109.905 26.099 109.905 26.099 20.925 14.333 19.322 37.455 8.979 60.918z" opacity=".35"/><path fill="#fff" d="M2522.718 3284.191c-.266 2.568-.62 5.093-1.107 7.572-13.329 75.323-105.833 102.202-272.333 81.479-75.412-9.388-179.651-20.503-207.15-77.759-54.865-114.291 1.151-345.575-5.358-493.741v-.266s-30.289 3.587-67.884 3.587-67.884-3.587-67.884-3.587c-.044 1.195-.089 2.436-.133 3.631-5.58 148.3 49.197 376.926-5.27 490.376-27.499 57.256-131.694 68.371-207.106 77.759-166.72 20.724-259.225-6.2-272.421-81.744-.443-2.391-.797-4.827-1.063-7.306-9.609-92.017 125.007-134.749 125.007-134.749s-29.359-195.327-48.71-371.523c-48.046-437.725 122.572-964.722 122.572-964.722h709.969s170.662 526.997 122.572 964.722c-19.351 176.197-48.666 371.523-48.666 371.523s134.574 42.731 124.965 134.748z"/><path fill="#33aef1" d="M1519.47 3004.512c11.426 84.233 20.548 144.932 20.548 144.932s-134.617 42.729-125.007 134.749c.266 2.478.62 4.915 1.063 7.307 13.196 75.544 105.701 102.466 272.421 81.743 75.411-9.387 179.607-20.503 207.106-77.759 34.878-72.649 24.96-192.52 14.78-308.289-189.224 67.146-325.21 40.217-390.911 17.317zm878.285 144.931s10.092-67.251 22.341-158.413c-60.568 23.037-197.596 55.833-392.108-10.906-10.389 117.939-21.438 241.245 14.141 315.359 27.499 57.256 131.738 68.372 207.15 77.759 166.5 20.723 259.004-6.155 272.333-81.479.487-2.478.841-5.002 1.107-7.571 9.608-92.019-124.964-134.749-124.964-134.749z"/><path fill="#371a45" d="M1732.034 2733.293s125.333 20.158 222.129 20.158c96.796 0 251.725-20.158 251.725-20.158s-93.016 71.272-241.32 68.202c-152.02-3.147-232.534-68.202-232.534-68.202z" opacity=".35"/><path fill="#371a45" d="M1895.6 3295.483c-27.499 57.256-131.694 68.371-207.106 77.759-166.72 20.724-259.225-6.2-272.421-81.744 136.476 51.721 377.059 22.185 418.197-43.44 53.271-84.977 61.906-169.909-20.946-275.787-82.807-105.833-89.227-244.037-89.227-244.037 39.588 27.809 121.022 58.009 176.773 76.873-5.579 148.3 49.197 376.927-5.27 490.376zm626.011-3.719c-13.329 75.323-105.833 102.202-272.333 81.479-75.412-9.388-179.651-20.503-207.15-77.759-54.865-114.291 1.151-345.575-5.358-493.741 46.141-13.772 131.561-41.935 176.551-73.508 0 0 22.672 99.368-73.818 235.18-77.847 109.597-83.515 196.788-30.245 281.72 37.774 60.268 262.327 85.021 412.353 46.629z" opacity=".35"/><path fill="#371a45" d="M1619.126 1814.9c-12.285 54.917-24.634 109.819-36.227 164.763-2.964 13.726-5.952 27.437-8.673 41.208l-8.579 41.211c-5.31 27.551-11.01 55.02-15.974 82.617l-7.366 41.404-3.704 20.698-3.23 20.769c-4.366 27.676-9.243 55.291-12.592 83.098-3.661 27.769-7.656 55.503-10.271 83.372l-4.419 41.758c-1.558 13.916-2.111 27.893-3.217 41.838l-2.823 41.865c-.593 6.978-.671 13.962-.864 20.945l-.552 20.952-1.111 41.904c-.327 6.99-.049 13.96.083 20.935l.49 20.925.985 41.851c-.006 6.99.741 13.914 1.255 20.859l1.646 20.828 3.281 41.655c1.178 13.901 3.018 27.922 4.529 41.877 13.01 111.729 28.121 223.438 44.524 334.744l2.023 13.733-13.337 4.431c-5.118 1.702-11.163 4.055-16.689 6.411-5.63 2.4-11.207 4.968-16.67 7.722-10.911 5.527-21.469 11.672-31.224 18.628-19.497 13.757-36.32 30.989-44.227 50.823-4.124 9.841-5.547 20.293-4.91 30.852.59 10.847 3.502 21.462 8.225 30.627 9.603 18.408 28.416 31.526 50.554 39.333 22.13 7.937 46.752 11.572 71.57 13.11 24.899 1.475 50.208.874 75.529-.918 25.308-1.677 50.641-5 76.348-8.228 25.48-3.291 50.676-6.975 74.976-12.656 24.156-5.679 47.922-13.328 66.91-25.605 9.434-6.111 17.34-13.464 22.551-21.902.74-1.016 1.237-2.141 1.835-3.218.583-1.033 1.179-2.156 1.757-3.599l3.518-8.049c1.991-5.596 4.148-11.106 5.702-16.958 1.837-5.703 3.032-11.721 4.489-17.617 1.086-6.05 2.419-12.012 3.202-18.176 1.948-12.2 2.976-24.697 3.86-37.209 1.475-25.11 1.359-50.559.438-76.089-1.981-51.116-6.993-102.512-11.45-154.26-4.309-51.787-8.818-103.928-6.772-157.402l.673-17.573 17.719 1.931c10.563 1.15 21.854 1.978 32.83 2.551 11.052.576 22.112.869 33.134.886 11.023-.017 22.083-.31 33.134-.886 10.977-.574 22.268-1.401 32.83-2.551l17.72-1.931.671 17.573c2.046 53.474-2.463 105.615-6.772 157.402-4.457 51.748-9.469 103.145-11.45 154.26-.919 25.53-1.035 50.979.438 76.089.884 12.512 1.913 25.01 3.86 37.209.784 6.165 2.115 12.126 3.203 18.176 1.455 5.896 2.65 11.914 4.487 17.617 1.555 5.852 3.712 11.362 5.702 16.958l3.519 8.049c.576 1.443 1.173 2.566 1.757 3.599.597 1.077 1.094 2.202 1.835 3.218 5.21 8.438 13.118 15.791 22.55 21.902 18.988 12.278 42.755 19.927 66.91 25.605 24.299 5.681 49.496 9.365 74.976 12.656 25.708 3.228 51.04 6.55 76.349 8.228 25.32 1.792 50.63 2.393 75.529.918 24.818-1.538 49.438-5.173 71.569-13.11 22.14-7.808 40.951-20.925 50.554-39.333 4.723-9.165 7.635-19.78 8.226-30.627.636-10.559-.786-21.011-4.911-30.852-7.906-19.834-24.73-37.065-44.227-50.823-9.756-6.956-20.314-13.101-31.223-18.628-5.464-2.754-11.04-5.322-16.67-7.722-5.527-2.356-11.572-4.709-16.689-6.411l-13.341-4.434 2.026-13.73c15.111-102.419 29.071-205.208 41.385-308.005 2.932-25.654 6.233-51.528 8.519-77.021 1.071-12.769 2.588-25.488 3.297-38.296l2.277-38.411c2.095-51.299 1.796-102.749-.359-154.163-4.027-102.881-16.93-205.449-34.458-307.08-8.788-50.715-17.963-101.868-27.347-152.131-10.422-50.508-20.304-101.318-31.067-151.819l-.016-.076c-.636-2.986 1.27-5.925 4.257-6.56 2.546-.544 5.057.764 6.138 3.013 11.444 23.809 20.396 48.474 28.816 73.218 8.252 24.81 15.8 49.763 22.509 75.032 12.749 51.108 23.112 101.899 31.399 153.53 8.512 51.484 14.94 103.306 20.658 155.198 2.816 25.955 5.109 51.973 7.363 77.996l2.698 39.104c.908 13.035 1.316 26.111 1.997 39.163 2.19 52.249 2.5 104.636.358 157.024l-2.325 39.277c-.729 13.093-2.275 26.152-3.378 39.231-2.357 26.182-5.631 51.785-8.589 77.671-12.372 103.257-26.343 206.125-41.521 309.004l-11.313-18.162c7.18 2.385 13.203 4.785 19.604 7.488 6.289 2.683 12.489 5.54 18.597 8.618 12.202 6.182 24.116 13.096 35.472 21.184 11.375 8.022 22.217 17.222 31.907 28 9.727 10.681 18.131 23.284 23.86 37.463 5.886 14.106 8.197 29.988 7.205 45.239-.873 15.022-4.789 29.978-11.948 43.853-7.294 13.721-17.827 25.735-29.912 34.622-12.025 9.075-25.233 15.569-38.567 20.352-26.76 9.551-54.006 13.32-80.826 15.032-26.859 1.587-53.477.923-79.85-.94-26.427-1.755-52.522-5.188-78.237-8.413-25.908-3.354-52.087-7.139-78.284-13.254-26.093-6.255-52.671-14.258-77.439-30.112-12.236-7.954-24.038-18.433-32.506-32.087-1.13-1.641-2.024-3.452-2.982-5.215-.99-1.802-1.881-3.555-2.515-5.125l-4.259-9.766c-2.389-6.597-4.908-13.186-6.703-19.868-2.113-6.65-3.473-13.357-5.1-20.044-1.226-6.699-2.688-13.403-3.551-20.1-2.126-13.403-3.23-26.768-4.166-40.098-1.565-26.643-1.421-53.088-.477-79.348 2.041-52.5 7.118-104.336 11.549-155.862 4.314-51.448 8.635-102.891 6.683-153.103l18.391 15.642c-11.975 1.304-23.302 2.112-34.962 2.732-11.586.603-23.195.913-34.84.93-11.646-.017-23.254-.327-34.84-.93-11.659-.62-22.987-1.428-34.961-2.732l18.39-15.642c-1.951 50.212 2.371 101.655 6.685 153.103 4.43 51.526 9.508 103.362 11.548 155.862.945 26.26 1.088 52.705-.477 79.348-.936 13.33-2.039 26.694-4.166 40.098-.862 6.697-2.324 13.401-3.55 20.1-1.627 6.687-2.988 13.394-5.101 20.044-1.794 6.682-4.313 13.271-6.703 19.868l-4.258 9.766c-.635 1.57-1.526 3.323-2.515 5.125-.959 1.763-1.853 3.574-2.982 5.215-8.469 13.655-20.271 24.133-32.506 32.087-24.769 15.854-51.348 23.857-77.44 30.112-26.196 6.116-52.375 9.9-78.282 13.254-25.715 3.225-51.812 6.658-78.237 8.413-26.375 1.863-52.991 2.527-79.851.94-26.819-1.711-54.066-5.481-80.826-15.032-13.333-4.783-26.541-11.277-38.567-20.352-12.084-8.887-22.618-20.901-29.911-34.622-7.159-13.875-11.077-28.831-11.949-43.853-.991-15.251 1.318-31.133 7.205-45.239 5.73-14.18 14.133-26.782 23.861-37.463 9.69-10.779 20.531-19.978 31.906-28 11.356-8.088 23.271-15.002 35.472-21.184 6.11-3.079 12.308-5.935 18.597-8.618 6.401-2.703 12.426-5.103 19.606-7.488l-11.315 18.162c-16.473-111.792-31.597-223.589-44.672-335.859-1.523-14.07-3.356-28.01-4.564-42.197l-3.37-42.649-1.68-21.326c-.524-7.109-1.281-14.214-1.279-21.333l-1.013-42.693-.511-21.348c-.172-7.114-.49-14.233-.2-21.335l.887-42.639.447-21.321c.157-7.107.203-14.221.76-21.299l2.625-42.527c.969-14.163 1.389-28.389 2.813-42.505l4.02-42.388 2.013-21.194c.612-7.075 1.36-14.128 2.324-21.155l5.504-42.195c7.279-56.27 16.935-112.173 27.986-167.761 2.593-13.933 5.929-27.71 8.856-41.57 3.087-13.826 5.889-27.712 9.285-41.467 6.809-27.5 13.341-55.056 21.222-82.275 15.287-54.551 32.225-108.596 53.511-161.326 1.139-2.822 4.349-4.185 7.17-3.047 2.538 1.025 3.896 3.726 3.315 6.311l-.041.123z"/><path fill="#371a45" d="M2454.259 2453.953c-10.937 13.506-26.879 22.982-45.566 25.241-57.611 6.952-139.133 11.823-199.622-4.738-42.776 70.939-119.206 142.056-254.93 184.788-135.945-42.776-212.375-114.114-255.107-185.142-60.577 17.004-142.941 12.089-200.951 5.093-5.225-.664-10.317-1.815-15.056-3.587.664-44.459 3.011-88.918 6.465-132.801 5.402-1.373 11.07-2.081 16.871-2.081 1.063 0 2.214 0 3.277.044 40.031 1.86 93.301 3.1 141.391 0-8.104-51.588-3.011-87.589-3.011-87.589 78.157-78.113 306.12-83.781 306.12-83.781s228.007 5.668 306.164 83.781c0 0 5.093 36.045-3.055 87.678 47.692 2.967 100.254 1.771 139.886-.089 1.063-.044 2.214-.044 3.277-.044 19.041 0 36.532 7.793 49.241 20.591 2.214 30.686 3.809 61.639 4.606 92.636z" opacity=".35"/><path fill="#f92323" d="M1736.546 2413.344c-61.304 24.817-156.176 19.624-220.857 11.798-38.793-4.694-66.024-40.492-60.309-79.148 5.214-35.274 36.265-60.926 71.883-59.257 60.499 2.835 151.244 4.163 208.712-8.585"/><path fill="#fff" d="M1527.262 2317.651c60.498 2.835 151.244 4.164 208.712-8.584l.463 109.469c.035-.015.073-.025.108-.04l-.571-135.191c-57.468 12.748-148.213 11.42-208.712 8.584-35.619-1.668-66.668 23.984-71.883 59.257h-.001c-1.17 7.917-.891 15.694.518 23.128 6.346-33.895 36.651-58.248 71.366-56.623z" opacity=".7"/><path fill="#371a45" d="M1736.561 2413.333c-61.322 24.853-156.196 19.612-220.868 11.833-38.793-4.701-66.023-40.521-60.296-79.152 1.135-7.889 3.62-15.29 7.132-22.043 10.212 19.504 29.553 33.875 53.164 36.739 64.564 7.834 159.276 13.021 220.598-11.67l.27 64.293z" opacity=".35"/><path fill="#371a45" d="M1614.663 2448.096c-35.479 0-70.752-2.93-100.957-6.584-23.188-2.808-43.76-14.583-57.935-33.157-14.194-18.608-20.127-41.611-16.699-64.773 6.484-43.872 44.888-75.447 88.96-73.315 89.107 4.175 161.68 1.255 204.375-8.213 8.604-1.914 30.064-2.002 42.686 38.594 12.793 41.15 11.357 110.283-32.363 127.981-35.982 14.565-82.193 19.467-128.067 19.467zm-90.708-144.949c-26.157 0-48.389 19.055-52.266 45.259-2.109 14.287 1.548 28.472 10.298 39.946 8.73 11.44 21.401 18.694 35.684 20.42 92.441 11.184 167.983 7.385 212.686-10.71 13.086-5.298 16.914-26.509 17.954-35.381 3.677-31.399-5.83-60.581-11.841-67.771-58.315 12.227-146.089 11.289-209.98 8.296-.85-.039-1.695-.059-2.535-.059z"/><path fill="#f92323" d="M2205.446 2413.344c61.304 24.817 156.177 19.624 220.857 11.798 38.793-4.694 66.024-40.492 60.309-79.148-5.214-35.274-36.264-60.926-71.883-59.257-60.499 2.835-151.244 4.163-208.712-8.585"/><path fill="#fff" d="M2206.017 2309.067c57.469 12.748 148.213 11.42 208.711 8.584 33.797-1.583 63.438 21.448 70.84 53.943 1.862-8.172 2.345-16.801 1.044-25.602-5.216-35.273-36.265-60.925-71.884-59.257-60.498 2.835-151.242 4.164-208.711-8.584l-.571 135.191c.042.018.088.03.131.048l.44-104.323z" opacity=".7"/><path fill="#371a45" d="M2426.289 2425.166c-64.672 7.78-159.546 13.021-220.869-11.833l.27-64.888c61.323 24.691 156.034 19.504 220.598 11.67 23.502-2.81 42.736-17.073 53.002-36.469 3.62 6.808 6.159 14.317 7.348 22.368 5.673 38.63-21.557 74.451-60.349 79.152z" opacity=".35"/><path fill="#371a45" d="M2327.324 2448.096c-45.879 0-92.08-4.9-128.066-19.468-43.721-17.698-45.156-86.829-32.363-127.976 12.627-40.598 34.092-40.503 42.69-38.599 42.695 9.465 115.249 12.38 204.37 8.213 44.272-2.151 82.485 29.446 88.965 73.315 3.428 23.167-2.51 46.172-16.704 64.778-14.175 18.572-34.746 30.344-57.93 33.152-30.2 3.653-65.488 6.583-100.962 6.585zm-121.801-153.186c-6.011 7.19-15.522 36.372-11.846 67.771 1.04 8.875 4.868 30.083 17.954 35.381 44.702 18.101 120.239 21.904 212.69 10.71 14.277-1.726 26.948-8.977 35.679-20.417 8.755-11.472 12.412-25.662 10.303-39.951-3.999-27.039-27.48-46.44-54.805-45.198-63.891 2.995-151.655 3.938-209.975-8.296zm53.574 744.673c-58.516 0-134.38-11.013-231.582-42.72-8.657-2.825-13.389-12.131-10.562-20.789 2.827-8.657 12.119-13.386 20.786-10.564 287.148 93.66 371.226-2.61 372.036-3.596 5.762-6.943 16.108-8.044 23.125-2.373 7.017 5.676 8.232 15.859 2.646 22.947-2.601 3.298-47.162 57.095-176.449 57.095zm-593.438 7.043c-61.675 0-120.986-11.069-159.097-44.67-6.831-6.023-7.485-16.44-1.465-23.271 6.021-6.838 16.445-7.483 23.271-1.465 95.591 84.272 371.431-2.451 374.204-3.34 8.696-2.766 17.954 2.021 20.723 10.693 2.769 8.677-2.021 17.952-10.693 20.723-7.861 2.507-131.503 41.33-246.943 41.33z"/><path fill="#33aef1" d="M1954.162 2602.276c326.88-102.906 287.533-381.36 287.533-381.36-73.397-73.396-287.533-78.693-287.533-78.693s-214.137 5.297-287.533 78.693c0 0-39.346 278.453 287.533 381.36z"/><path fill="#fff" d="M2242.636 2267.572c-.443-6.465-.93-10.008-.93-10.008-73.419-73.375-287.565-78.689-287.565-78.689s-214.102 5.314-287.521 78.689c0 0-.487 3.542-.93 10.008-1.638-28.606.93-46.673.93-46.673 73.419-73.375 287.521-78.688 287.521-78.688s214.146 5.313 287.565 78.688c0 0 2.569 18.067.93 46.673z" opacity=".7"/><path fill="#371a45" d="M2241.696 2220.916c-3.209-3.209-6.702-6.28-10.42-9.234-3.455 77.286-38.189 243.182-262.83 320.194-9.244 3.169-19.323 3.169-28.567 0-224.641-77.011-259.375-242.907-262.83-320.194-3.718 2.954-7.21 6.025-10.42 9.234 0 0-39.346 278.453 287.533 381.36 326.88-102.907 287.534-381.36 287.534-381.36z" opacity=".35"/><path fill="#fff" d="m2000.343 2290.733 57.562 8.121c7.764 1.095 10.901 10.617 5.31 16.114l-41.459 40.749c-2.221 2.182-3.225 5.318-2.686 8.384l10.064 57.254c1.357 7.722-6.729 13.649-13.684 10.029l-51.566-26.838c-2.762-1.438-6.054-1.424-8.804.037l-51.342 27.264c-6.925 3.677-15.06-2.182-13.767-9.915l9.589-57.335c.514-3.071-.517-6.198-2.755-8.362l-41.795-40.404c-5.637-5.449-2.578-14.997 5.176-16.157l57.492-8.598c3.079-.46 5.735-2.407 7.101-5.204l25.511-52.235c3.441-7.045 13.467-7.087 16.966-.07l25.943 52.021c1.39 2.786 4.061 4.71 7.144 5.145z"/><path fill="#371a45" d="m1954.16 2619.561-4.951-1.558c-175.186-55.149-247.231-160.515-276.826-239.192-32.134-85.437-22.505-157.19-22.08-160.203l.771-5.457 3.897-3.894c77.168-77.17 289.771-83.296 298.779-83.518l.41-.012.41.012c9.009.222 221.616 6.348 298.784 83.518l3.896 3.894.771 5.457c.425 3.013 10.054 74.766-22.085 160.203-29.595 78.677-101.641 184.043-276.826 239.192l-4.95 1.558zm-271.738-390.891c-1.392 17.505-3.428 74.949 21.357 139.939 39.058 102.41 123.281 175.181 250.381 216.357 127.1-41.177 211.323-113.95 250.381-216.357 24.78-64.971 22.754-122.4 21.362-139.939-70.151-62.793-261.509-69.636-271.743-69.954-10.234.317-201.587 7.161-271.738 69.954z"/><path fill="#fff" d="M1358.766 2659.285c-171.437-34.958-121.909-196.123-120.756-199.949l.052-.052c-7.023-4.455-13.732-8.962-20.231-13.417 0 0 231.815-28.25 276.784-135.535 1.677-3.826 3.04-7.809 4.14-11.845h.052c136.796 203.512 15.202 392.455-140.041 360.798z"/><path fill="#fff" d="M1439.322 2226.345c.398.398.797.797 1.151 1.196 222.87 227.697 91.53 467.084-81.7 431.747-173.496-35.381-120.712-199.976-120.712-199.976-440.249-280.259 201.26-625.258 201.26-625.258 121.199-66.91 245.941-109.199 245.941-109.199l-78.334 239.475-62.216 190.279c-84.091 36.488-105.39 71.736-105.39 71.736z"/><path fill="#371a45" d="m1563.269 1999.791-18.557 154.818c-84.091 36.488-105.39 71.736-105.39 71.736.398.398.797.797 1.151 1.196-22.54-18.598-52.784-39.854-84.534-51.765 0 0 58.54-32.148 78.069-55.131 84.224-99.147 62.481-181.422 141.657-171.326 12.443 1.594-4.174 33.457-12.396 50.472z" opacity=".35"/><path fill="#371a45" d="M1392.153 2679.173c-12.065 0-24.326-1.226-36.66-3.74-56.685-11.555-97.129-37.407-120.215-76.836-29.282-50.017-21.587-107.168-16.138-131.919-103.945-68.962-154.99-148.225-151.772-235.737 7.988-217.442 349.59-403.609 364.131-411.428 120.957-66.748 247.202-109.831 248.462-110.259 8.633-2.935 17.988 1.702 20.908 10.322 2.925 8.623-1.699 17.983-10.322 20.908-1.235.417-124.815 42.617-243.276 107.986-3.545 1.912-339.693 185.105-346.953 383.716-2.842 77.747 46.479 149.482 146.592 213.215l10.732 6.831-3.887 12.114c-.195.62-20.332 66.062 10.098 117.791 18.174 30.884 51.221 51.401 98.232 60.986 64.692 13.188 124.937-15.559 157.207-75.024 40.083-73.86 37.031-199.395-91.733-330.208l-8.999-9.141 6.646-10.969c2.163-3.574 23.267-35.93 96.538-70.82 8.223-3.918 18.057-.427 21.978 7.795 3.916 8.223.425 18.062-7.798 21.978-41.509 19.763-63.799 38.225-74.429 48.889 131.016 139.871 131.343 276.091 86.782 358.203-32.735 60.32-91.602 95.342-156.124 95.347z"/><path fill="#371a45" d="M1430.291 2237.898c-5.621-5.852-11.913-11.858-18.119-17.595-6.262-5.769-12.677-11.396-19.241-16.88-13.179-10.881-26.908-21.182-42.056-29.7 16.945 3.958 33.536 10.188 49.719 17.188 8.077 3.545 16.088 7.29 24.017 11.238 7.972 3.994 15.684 7.988 23.712 12.603l-18.032 23.146zm-185.335 208.464c6.84 4.116 13.947 8.574 20.918 12.961l21.102 13.213 21.317 13.157c7.157 4.392 14.419 8.618 21.857 12.981-8.615-.317-17.142-1.609-25.621-3.127-8.45-1.606-16.787-3.657-25.04-5.964-8.23-2.349-16.417-4.866-24.434-7.791-8.085-2.874-15.947-5.862-23.9-9.534l13.801-25.896z"/><path fill="#421861" d="M1358.766 2659.285c-171.437-34.958-121.909-196.123-120.756-199.949l.052-.052s29.77 159.54 184.75 115.777c99.11-28.04 90.724-167.716 71.803-264.729 1.677-3.826 3.04-7.809 4.14-11.845h.052c136.796 203.512 15.202 392.455-140.041 360.798z" opacity=".3"/><path fill="#f92323" d="M1951.661 1968.006v51.854s-229.689 32.99-352.615-194.53c-17.314-31.972-32.459-69.08-44.592-112.166l125.76 19.75s50.348 83.648 122.085 151.399c43.972 41.581 96.003 77.139 149.362 83.693z"/><path fill="#371a45" d="M1951.661 1968.006v51.854s-229.689 32.99-352.615-194.53c30.953 33.61 119.428 125.406 160.344 123.147 37.418-2.037-43.807-59.658-39.955-74.049 3.853-14.391 94.687 99.511 114.127 66.123 5.314-9.167-39.543-24.045-31.263-56.238 43.972 41.581 96.003 77.139 149.362 83.693z" opacity=".35"/><path fill="#371a45" d="M1920.406 2033.933c-30.928 0-80.396-4.136-134.834-24.766-82.041-31.094-190.801-107.104-243.018-292.651l-5.22-18.555 150.483 23.621 2.979 4.944c1.279 2.126 129.683 212.881 262.378 229.219l10.859 1.336v73.489l-10.61 1.524c-1.235.174-13.398 1.839-33.017 1.839zm-348.506-305.51c41.064 130.588 115.83 217.214 222.437 257.617 64.35 24.387 121.953 23.999 144.961 22.534v-29.988c-129.961-24.756-246.05-201.482-266.636-234.348l-100.762-15.815z"/><path fill="#f92323" d="M2223.128 1732.904s-131.135 217.836-271.464 235.114v51.834s298.821 42.899 397.208-306.686l-125.744 19.738z"/><path fill="#371a45" d="M1982.925 2033.933c-19.629 0-31.782-1.665-33.018-1.841l-10.61-1.524v-73.489l10.859-1.336c132.69-16.338 261.099-227.092 262.383-229.219l2.974-4.941 150.483-23.623-5.22 18.555c-52.222 185.547-160.981 261.557-243.022 292.651-54.429 20.629-103.901 24.767-134.829 24.767zm-18.892-25.378c23.159 1.44 81.445 1.794 145.996-22.91 106.06-40.588 180.474-127.075 221.401-257.222l-100.762 15.816c-20.586 32.866-136.68 209.592-266.636 234.348v29.968zm-386.097-58.658c-4.543 41.797-10.026 83.076-15.879 124.346-3.009 20.608-5.829 41.25-9.6 61.694-3.732 20.442-7.749 40.879-13.293 60.911l-.017.066c-2.437 8.804-11.55 13.967-20.355 11.531-7.906-2.19-12.872-9.766-12.041-17.661 2.188-20.94 6.193-41.421 10.634-61.865 4.429-20.435 9.944-40.647 15.588-60.828 5.686-20.173 11.772-40.251 18.364-60.203 6.715-19.917 13.738-39.763 22.042-59.187.516-1.208 1.917-1.77 3.125-1.252.986.422 1.54 1.435 1.432 2.448zm-455.68 417.232c-6.816 0-12.349-5.515-12.368-12.334-.122-48.74 40.508-99.336 103.511-128.899 71.685-33.635 180.63-42.578 271.387 33.223 5.244 4.38 5.942 12.178 1.567 17.419-4.38 5.242-12.188 5.938-17.417 1.565-81.836-68.352-180.229-60.232-245.034-29.817-54.336 25.496-89.38 67.278-89.277 106.445.015 6.831-5.508 12.38-12.339 12.397-.01.001-.02.001-.03.001z"/><path fill="#371a45" d="M1951.661 1968.006v51.854s229.689 32.99 352.615-194.53c-30.953 33.61-119.428 125.406-160.344 123.147-37.418-2.037 43.807-59.658 39.955-74.049-3.853-14.391-94.687 99.511-114.127 66.123-5.314-9.167 39.544-24.045 31.263-56.238-43.971 41.581-96.002 77.139-149.362 83.693z" opacity=".35"/><path fill="#ffce00" d="m1923.851 1942.94 17.798-37.606c3.578-7.561 14.273-7.736 18.098-.297l19.023 37.001c1.519 2.954 4.394 4.972 7.688 5.396l41.265 5.306c8.297 1.067 11.769 11.184 5.875 17.12l-29.312 29.526c-2.34 2.357-3.371 5.715-2.755 8.98l7.705 40.885c1.549 8.22-7 14.649-14.467 10.878l-37.139-18.753c-2.965-1.497-6.477-1.44-9.392.154l-36.503 19.963c-7.339 4.013-16.095-2.131-14.816-10.397l6.359-41.116c.508-3.283-.632-6.605-3.049-8.884l-30.266-28.548c-6.085-5.74-2.947-15.965 5.31-17.304l41.069-6.658c3.28-.533 6.088-2.644 7.509-5.646z"/><path fill="#fff" d="m2033.582 1969.866-11.602 11.69c-1.018-3.631-4.03-6.642-8.369-7.218l-41.271-5.314c-3.321-.398-6.199-2.435-7.705-5.402l-18.997-36.975c-2.391-4.605-7.351-6.288-11.646-5.137l7.661-16.163c3.587-7.572 14.259-7.749 18.111-.31l18.997 37.019c1.505 2.922 4.384 4.96 7.705 5.358l41.271 5.314c8.281 1.063 11.735 11.204 5.845 17.138z" opacity=".7"/><path fill="#371a45" d="m1937.536 2047.359-25.816 14.126c-7.307 4.03-16.074-2.126-14.79-10.406l6.332-41.094c.531-3.277-.62-6.598-3.011-8.9l-30.289-28.517c-6.067-5.757-2.923-15.986 5.314-17.314l20.237-3.277c.354 1.948 1.329 3.897 3.011 5.446l30.245 28.562c2.435 2.258 3.587 5.579 3.055 8.856l-6.332 41.138c-1.108 7.261 5.49 12.885 12.044 11.38z" opacity=".35"/><path fill="#371a45" d="M1906.88 2075.12c-4.517 0-9.009-1.377-12.886-4.102-7.051-4.946-10.61-13.306-9.297-21.816l6.182-39.929-29.399-27.729c-6.265-5.911-8.584-14.697-6.06-22.932 2.529-8.23 9.375-14.199 17.876-15.576l39.893-6.467 17.285-36.524c3.677-7.781 11.313-12.705 19.927-12.847 8.545-.19 16.406 4.524 20.342 12.188l18.477 35.938 40.083 5.151c8.54 1.099 15.581 6.841 18.379 14.988 2.793 8.145.762 17-5.308 23.11l-28.467 28.677 7.485 39.712c1.592 8.464-1.694 16.936-8.579 22.112-6.885 5.171-15.928 5.972-23.618 2.092l-36.069-18.213-35.454 19.39c-3.399 1.856-7.1 2.777-10.792 2.777zm-25.078-108.408 26.914 25.386c5.371 5.068 7.905 12.451 6.787 19.754l-5.659 36.582 32.461-17.754c6.47-3.543 14.282-3.679 20.894-.347l33.032 16.68-6.851-36.357c-1.367-7.261.923-14.729 6.128-19.978l26.069-26.26-36.694-4.717c-7.339-.947-13.73-5.435-17.109-12.007l-16.919-32.903-15.825 33.44v-.003.003c-3.159 6.68-9.409 11.377-16.709 12.561l-36.519 5.92z"/><path fill="#fff" d="M2592.177 1421.405c-7.066.528-13.222-4.773-13.75-11.839l-27.529-368.538c-.528-7.066 4.772-13.222 11.839-13.75 74.132-5.537 138.716 50.069 144.253 124.201l9.387 125.673c5.539 74.131-50.068 138.716-124.2 144.253z"/><path fill="#371a45" d="M2591.197 1424.402c-3.779 0-7.388-1.335-10.278-3.823-3.198-2.752-5.132-6.585-5.444-10.794l-27.529-368.538c-.313-4.206 1.03-8.284 3.779-11.479 2.754-3.196 6.587-5.129 10.796-5.444 36.616-2.759 72.158 8.958 100 32.935 27.847 23.975 44.688 57.358 47.427 94.001l9.385 125.671c5.649 75.642-51.294 141.777-126.934 147.427-.402.029-.807.044-1.202.044zm-18.228-394.543c-3.32 0-6.66.122-10.01.373-2.627.195-5.024 1.404-6.743 3.401-1.719 1.997-2.559 4.546-2.363 7.175l27.529 368.538c.195 2.629 1.406 5.024 3.403 6.743 2.002 1.721 4.565 2.566 7.173 2.361 72.383-5.405 126.87-68.694 121.465-141.079l-9.385-125.672c-2.617-35.063-18.735-67.009-45.381-89.951-24.101-20.752-54.209-31.889-85.688-31.889z"/><path fill="#371a45" d="m2711.976 1218.222 4.416 58.941c5.526 74.107-50.075 138.704-124.22 144.27-7.063.536-13.219-4.803-13.754-11.866l-7.35-97.969c2.318 4.318 7.019 7.068 12.208 6.721l8.738-.677c58.582-4.364 105.625-45.642 119.962-99.42z" opacity=".35"/><path fill="#371a45" d="M2591.172 1437.93c-7.007 0-13.711-2.481-19.077-7.1-5.938-5.11-9.526-12.227-10.107-20.039l-27.529-368.535c-.586-7.81 1.909-15.378 7.017-21.313 5.112-5.935 12.227-9.524 20.039-10.108 40.239-3.005 79.243 9.839 109.834 36.172 30.581 26.333 49.082 62.998 52.085 103.245l9.385 125.671c6.206 83.079-56.333 155.718-139.409 161.924-.749.056-1.496.083-2.238.083zm-23.555-394.426 26.978 361.13c63.12-6.66 110.098-62.529 105.342-126.255l-9.385-125.672c-2.354-31.462-16.812-60.124-40.723-80.71-22.978-19.785-52.036-29.866-82.212-28.493z"/><path fill="#fff" d="M1346.279 1118.144c7.066-.528 13.222 4.773 13.75 11.839l27.529 368.538c.528 7.066-4.772 13.222-11.839 13.75-74.132 5.537-138.716-50.069-144.253-124.201l-9.387-125.673c-5.538-74.132 50.069-138.716 124.2-144.253z"/><path fill="#371a45" d="M1365.479 1515.615c-32.896 0-64.355-11.638-89.541-33.325-27.847-23.975-44.688-57.358-47.427-94.001l-9.385-125.671c-5.649-75.642 51.294-141.777 126.934-147.427 4.224-.33 8.286 1.03 11.479 3.779 3.198 2.752 5.132 6.585 5.444 10.794l27.529 368.538c.649 8.684-5.889 16.274-14.575 16.924-3.495.26-6.987.389-10.458.389zm-18.223-394.546c-.254 0-.503.01-.757.029-72.383 5.405-126.87 68.694-121.465 141.079l9.385 125.671c2.617 35.064 18.735 67.009 45.381 89.951s60.586 34.146 95.698 31.516c5.425-.405 9.512-5.149 9.106-10.576l-27.529-368.538c-.195-2.629-1.406-5.024-3.403-6.743-1.807-1.553-4.057-2.389-6.416-2.389z"/><path fill="#371a45" d="m1379.95 1396.278 7.625 102.24c.536 7.063-4.803 13.219-11.866 13.755-38.91 2.889-75.227-11.04-101.729-35.69-23.934-22.26-39.864-53.296-42.499-88.492l-3.958-52.955c24.513 44.888 73.817 73.753 128.168 69.703l13.449-1.007c4.909-.377 8.88-3.402 10.81-7.554z" opacity=".35"/><path fill="#371a45" d="M1365.454 1529.143c-36.128 0-70.679-12.783-98.345-36.601-30.581-26.333-49.082-62.998-52.085-103.245l-9.385-125.671c-6.206-83.079 56.333-155.718 139.409-161.924 7.808-.566 15.381 1.912 21.314 7.017 5.938 5.11 9.526 12.227 10.107 20.039l27.529 368.535c1.206 16.123-10.932 30.217-27.056 31.421-3.836.285-7.674.429-11.488.429zm-21.591-394.228c-63.12 6.66-110.098 62.529-105.342 126.255l9.385 125.671c2.354 31.462 16.812 60.125 40.723 80.71 22.979 19.788 52.026 29.844 82.212 28.494l-26.978-361.13z"/><circle cx="1969.305" cy="1269.769" r="629.768" fill="#fff"/><path fill="#371a45" d="M1969.243 1902.5c-168.145 0-326.362-65.195-445.747-183.728-119.932-119.082-186.314-277.737-186.919-446.746-1.24-348.887 281.582-633.74 630.469-634.983 169.17-.791 328.135 64.644 448.066 183.723s186.313 277.734 186.919 446.743c.605 169.006-64.644 328.132-183.726 448.067-119.077 119.934-277.734 186.316-446.743 186.919-.771.003-1.547.005-2.319.005zm.127-1259.536c-.776 0-1.528 0-2.305.003-345.615 1.233-625.796 283.418-624.561 629.04.596 167.424 66.357 324.595 185.166 442.561 118.257 117.417 275.015 182 441.572 182.007.776 0 1.523 0 2.3-.003 167.422-.598 324.595-66.36 442.559-185.171 117.969-118.808 182.603-276.445 182.002-443.872-.596-167.424-66.357-324.595-185.166-442.559-118.256-117.416-275.009-182.006-441.567-182.006z"/><path fill="#371a45" d="M2592.723 1180.366c4.112 28.461 6.246 57.554 6.359 87.161 1.194 347.799-279.739 630.754-627.537 632.028-347.8 1.195-630.753-279.739-632.028-627.536-.042-10.002.155-20.013.598-29.872 43.551 306.412 307.437 541.5 625.669 540.375 337.796-1.232 612.468-268.153 626.939-602.156z" opacity=".35"/><path fill="#371a45" d="M1969.243 1916.026c-171.738 0-333.34-66.587-455.278-187.656-122.495-121.626-190.298-283.674-190.913-456.294-1.27-356.345 287.603-647.288 643.945-648.557.791-.005 1.587-.005 2.373-.005 171.738 0 333.34 66.587 455.274 187.654 122.495 121.626 190.298 283.674 190.913 456.294.615 172.62-66.025 335.149-187.651 457.646-121.626 122.495-283.672 190.298-456.294 190.913-.791.005-1.582.005-2.369.005zm.127-1259.537c-.762 0-1.494 0-2.256.003-338.159 1.206-612.29 277.305-611.084 615.466.581 163.811 64.927 317.59 181.172 433.01 116.25 115.42 270.635 178.474 434.292 178.079 163.813-.586 317.593-64.929 433.013-181.174 115.42-116.247 178.657-270.483 178.071-434.294-.581-163.811-64.922-317.59-181.167-433.01-115.708-114.884-269.077-178.08-432.041-178.08z"/><path fill="#371a45" d="M2597.113 1283.703c2.301 123.215-35.559 238.355-102.196 334.279-49.958 71.915-258.453 200.036-518.729 207.238-241.332 6.677-463.348-117.913-515.957-187.912-70.172-93.369-112.306-207.015-114.607-330.23-6.09-326.062 271.526-466.467 617.13-472.922s628.269 123.485 634.359 449.547z"/><path fill="#371a45" d="M1957.08 1841.97c-242.144 0-456.206-123.147-510.029-194.756-74.849-99.592-115.62-217.102-117.91-339.829-2.988-159.993 58.867-284.553 183.843-370.222 108.999-74.717 264.419-116.038 449.463-119.492 185.059-3.479 341.899 32.031 453.613 102.627 128.091 80.942 194.551 203.105 197.539 363.098 2.29 122.727-34.067 241.68-105.142 343.994-49.292 70.962-255.898 206.677-531.817 214.312-6.532.18-13.066.268-19.56.268zm29.971-991.555c-7.94 0-15.933.076-23.989.225-183.183 3.423-608.447 54.717-600.952 456.13 2.163 115.75 40.649 226.621 111.299 320.632 50.171 66.746 266.86 187.905 502.324 181.336 260.913-7.219 461.099-136.04 505.645-200.161 67.09-96.582 101.411-208.816 99.253-324.565-2.769-148.201-64.063-261.194-182.188-335.837-101.455-64.115-243.311-97.76-411.392-97.76z"/><ellipse cx="2392.916" cy="1243.207" fill="#fff" opacity=".7" rx="111.449" ry="80.758" transform="matrix(.1599 -.9871 .9871 .1599 783.0972 3406.5588)"/><ellipse cx="2298.126" cy="1465.786" fill="#fff" opacity=".7" rx="51.154" ry="43.898" transform="matrix(.2948 -.9556 .9556 .2948 220.0782 3229.7661)"/><path fill="#111a28" d="M2469.728 981.789c77.859 71.566 124.914 170.938 127.378 301.895 2.303 123.24-35.582 238.373-102.171 334.299-49.974 71.915-258.489 200.031-518.759 207.258-91.9 2.568-180.969-13.932-258.993-39.236 319.745-15.704 573.702-172.916 635.654-262.111 84.582-121.746 132.626-267.898 129.684-424.247-.754-41.787-5.176-81.04-12.793-117.858z" opacity=".35"/><path fill="#371a45" d="M1387.564 1044.649c-3.54 0-7.104-1.133-10.112-3.474-6.968-5.418-8.398-15.315-3.394-22.463 107.52-164.436 320.225-261.575 583.652-266.499 261.328-4.917 477.524 81.101 592.856 235.93 5.068 5.999 5.259 14.946.059 21.189-5.83 6.987-16.216 7.942-23.223 2.109l-1.777-1.382-.996-1.531c-108.765-146.628-315.273-228-566.304-223.347-252.524 4.722-455.498 96.536-556.875 251.9l-.864 1.201c-3.247 4.179-8.11 6.367-13.022 6.367zm-1.07-17.327 1.079.837-1.079-.837z"/><path fill="#fff" d="M1489.777 1498.426s-106.995-319.776 63.965-451.195c170.96-131.42 420.377-135.561 414.843-119.457 0 0-274.863 72.001-378.821 292.303-80.164 169.879-99.987 278.349-99.987 278.349z" opacity=".7"/><path fill="#371a45" d="M1898.521 2816.753c-9.011-.725-16.929-2.192-25.155-4.048-8.123-1.841-16.117-4.131-23.995-6.733-15.801-5.085-31.003-11.873-45.791-19.316-7.478-3.523-14.592-7.864-21.807-11.843-7.072-4.319-14.102-8.628-20.851-13.408-13.635-9.27-26.335-19.929-38.07-31.338-.886-.862-.906-2.278-.044-3.164.664-.684 1.66-.852 2.488-.496l.083.037c14.943 6.47 29.318 13.206 44.226 18.721 7.249 3.123 14.882 5.42 22.162 8.311 7.482 2.502 14.886 5.063 22.375 7.39 14.913 4.792 30.007 8.823 44.965 13.02l11.227 3.091c3.75.979 7.487 2 11.206 3.074 7.369 1.99 15.118 4.116 21.926 6.187l.811.247c8.187 2.493 12.805 11.15 10.314 19.336-2.162 7.096-8.965 11.508-16.07 10.932zm135.43-30.518c6.809-2.07 14.558-4.197 21.927-6.187 3.719-1.074 7.455-2.095 11.205-3.074l11.227-3.091c14.958-4.197 30.051-8.228 44.966-13.02 7.489-2.327 14.894-4.888 22.374-7.39 7.281-2.891 14.915-5.188 22.162-8.311 14.91-5.515 29.285-12.251 44.227-18.721l.078-.034c1.134-.491 2.451.029 2.942 1.165.378.874.15 1.863-.493 2.493-11.735 11.409-24.435 22.068-38.071 31.338-6.748 4.78-13.778 9.089-20.851 13.408-7.214 3.979-14.327 8.32-21.807 11.843-14.788 7.444-29.99 14.231-45.79 19.316-7.878 2.603-15.874 4.893-23.997 6.733-8.225 1.855-16.143 3.323-25.155 4.048-8.53.688-16.002-5.671-16.689-14.202-.596-7.395 4.105-13.997 10.925-16.069l.82-.245zm-496.583 347.962c10.848-2.588 20.972-4.089 31.52-5.137 5.225-.61 10.464-.977 15.708-1.233 5.238-.366 10.491-.488 15.743-.513 21.01-.303 42.056 1.572 62.877 4.707 20.819 3.428 41.381 8.672 61.198 15.857 19.675 7.737 38.481 17.729 54.838 30.596.966.759 1.132 2.158.372 3.123-.623.793-1.676 1.047-2.567.693l-.092-.037c-18.96-7.542-38.047-13.005-57.51-16.641-19.568-3.281-39.21-5.098-58.921-5.852-19.757-.515-39.489.203-59.196 1.074-19.578.935-39.7 2.505-58.683 3.823l-.621.042c-8.53.593-15.924-5.842-16.517-14.373-.532-7.662 4.615-14.408 11.851-16.129zm857.771 30.461c-18.983-1.318-39.105-2.888-58.683-3.823-19.708-.872-39.438-1.589-59.196-1.074-19.711.754-39.353 2.571-58.921 5.852-19.463 3.635-38.551 9.099-57.511 16.641l-.088.034c-1.141.454-2.434-.103-2.888-1.243-.372-.938-.062-1.978.691-2.571 16.356-12.866 35.161-22.859 54.838-30.596 19.817-7.185 40.378-12.429 61.198-15.857 20.822-3.135 41.868-5.01 62.877-4.707 5.253.024 10.505.146 15.743.513 5.244.256 10.483.623 15.708 1.233 10.548 1.047 20.671 2.549 31.52 5.137 8.317 1.987 13.45 10.337 11.464 18.655-1.783 7.471-8.706 12.373-16.125 11.851l-.627-.045z"/></svg>