<svg xmlns="http://www.w3.org/2000/svg" xml:space="preserve" viewBox="0 0 4000 4000"><path fill="transparent" d="M0 0h4000v4000H0z"/><ellipse cx="2005.939" cy="3675.281" fill="#cd9bea" rx="859.584" ry="84.867" transform="rotate(-1.146 2004.12970598 3679.0482261)"/><path fill="#fff" d="M1868.143 2945.379c-13.331 96.684 48.827 525.861 32.533 623.876-12.794 76.962-68.585 106.026-143.901 106.026h-205.693c-91.168 0-92.222-78.528-85.759-107.784 9.513-43.061 52.068-69.839 77.796-77.211-114.795-408.026-126.372-744.54-126.372-744.54"/><path fill="#fff" d="M1900.666 3569.253c-12.785 76.945-68.578 106.034-143.881 106.034H1551.09c-85.663 0-91.763-69.322-86.837-101.968.313-2.112.665-4.066 1.056-5.826 9.54-43.047 52.079-69.83 77.805-77.219-54.66-194.24-85.899-372.292-103.649-505.538-19.549-146.618-22.716-239.007-22.716-239.007l451.387 199.635c-13.332 96.69 48.834 525.87 32.53 623.889z"/><path fill="#fff" d="M1900.666 3569.253c-12.785 76.945-68.578 106.034-143.881 106.034H1551.09c-85.663 0-91.763-69.321-86.837-101.968.313-2.111.665-4.066 1.056-5.825 9.54-43.047 52.079-69.83 77.806-77.219-24.163-85.899-43.752-168.63-59.625-245.732-20.019-97.237-34.134-185.481-44.025-259.807-19.549-146.618-22.715-239.006-22.715-239.006l451.387 199.635c-6.529 47.269 5.005 173.986 16.578 302.619 12.119 134.537 24.279 271.145 15.951 321.269z"/><path fill="#e5e5e5" d="M1900.666 3569.253c-12.785 76.945-68.578 106.034-143.881 106.034H1551.09c-85.663 0-91.763-69.322-86.837-101.968 26.587 15.131 74.717 30.73 160.107 30.73 171.367 0 220.904-35.188 220.904-169.451 0-143.334-29.323-250.228-176.606-313.41-70.455-30.262-162.335-59.859-229.193-136.452-19.549-146.618-22.716-239.007-22.716-239.007l451.387 199.635c-13.332 96.69 48.834 525.87 32.53 623.889z"/><path fill="#371a45" d="M1756.774 3691.28h-205.691c-36.777 0-64.645-11.48-82.832-34.119-22.645-28.193-24.148-67.781-18.555-93.115 9.309-42.125 45.215-70.627 74.066-83.592-110.348-398.926-122.891-730.814-123.008-734.158l31.984-1.102c.113 3.348 12.883 339.473 125.781 740.758l4.313 15.33-15.309 4.385c-21.527 6.168-58.641 29.346-66.578 65.283-3.277 14.83-4.383 45.461 12.254 66.17 11.809 14.705 31.285 22.16 57.883 22.16h205.691c75.848 0 117.754-30.307 128.117-92.648 8.078-48.594-4.402-187.234-16.469-321.309-11.738-130.398-22.824-253.564-16.133-302.129l31.703 4.371c-6.199 44.953 5.238 172.014 16.301 294.889 12.813 142.344 24.914 276.793 16.168 329.424-9.053 54.47-44.107 119.402-159.686 119.402z"/><path fill="#371a45" d="M1740.068 3501.895c-32.307-4.304-66.229-7.388-98.673-7.15-31.704.396-63.861 2.004-94.215 11.017l-8.124-30.951c3.049-.58 5.021-.758 7.393-1.027 65.614-5.147 131.163 9.566 193.619 28.111z"/><path fill="#bd74e8" d="M1631.467 2046.8s-222.064 110-338.606 308.763c-75.907 405.237 650.691 309.649 650.691 309.649l20.402-373.412-332.487-245z"/><path fill="#9a5cc6" d="M1738.618 2125.747c-34.92 21.4-95.24 57.32-95.24 57.32s-68-26.88-146-50.04c74.04-56.48 134.08-86.24 134.08-86.24l107.16 78.96z"/><path fill="#371a45" d="M1768.903 2691.352c-144.648.002-340.402-21.156-437.801-124-52.18-55.098-70.34-127.344-53.969-214.734.34-1.814.992-3.557 1.926-5.148 117.605-200.58 336.063-310.43 345.305-315.008 7.914-3.914 17.512-.684 21.434 7.233 3.926 7.914.688 17.514-7.227 21.439-2.168 1.078-217.426 109.465-330.484 300.107-13.504 75.494 2.047 137.42 46.23 184.088 135.855 143.484 500.078 113.314 573.996 105.516l19.664-359.918c.48-8.826 8.059-15.561 16.848-15.104 8.824.482 15.586 8.025 15.105 16.85l-20.402 373.412c-.422 7.688-6.258 13.986-13.891 14.99-7.335.965-80.804 10.275-176.734 10.277z"/><path fill="#c2c6d2" d="M1572.535 3053.894c-193.625-110.256-199.59-318.979-170.396-462.145 26.092-127.958 106.95-306.655 203.716-466.34 170.099-305.609 564.099-347.609 692.699 108.706 55.334 218.667 77.167 391.167 81.157 506.698-3.669 117.063-24.801 175.514-36.942 202.605-214.601 145.076-473.814 175.561-770.234 110.476z"/><path fill="#e5e5e5" d="M2379.833 2744.6c-3.68 117.08-24.92 171.72-37.08 198.8-196.04 161.76-470.24 183.28-652.8 148.2-36.32-5.96-84.92-22.8-117.4-37.72-127.28-72.44-173.48-187.48-181.88-298.48 170.32 265.32 813 186.8 985-110.359 1.801 31.799 3.001 64.479 4.16 99.559z"/><path fill="#3a3a3a" d="M2298.553 2234.115c46.716 143.28 84.281 291.342 93.863 442.248 1.889 30.422 4.475 61.711 2.03 92.213-4.005 61.71-11.865 123.683-37.076 181.385-3.597 8.072-13.056 11.699-21.127 8.104-8.096-3.606-11.716-13.113-8.075-21.189 26.821-62.866 34.208-134.47 35.246-202.73-2.018-48.125-7.857-96.193-13.301-144.098-12.61-119.323-30.892-237.558-51.56-355.933z"/><path fill="#371a45" d="M1572.535 3053.895c-180.689-75.468-226.944-279.637-190.591-456.485 10.915-54.118 28.948-106.859 49.462-157.986 45.061-111.122 104.111-217.234 174.448-314.016-47.754 97.645-93.938 194.675-132.555 295.574-15.27 39.563-29.413 80.794-40.411 121.649-51.79 192.514-33.118 387.397 139.647 511.264z"/><path fill="#fff" d="M2375.232 2731.268c12.689 112.833 42.865 549.347 55.571 758.756 27.043 9.995 50.449 25.079 64.041 53.446 21.507 44.884 4.516 135.045-54.375 135.045h-258.196c-100.002 0-115.243-103.445-130.664-183.559-10.314-53.583-42.615-327.952-50.969-371.273-47.25 1.687-207.905 4.107-316.845-40.208l691.437-352.207z"/><path fill="#fff" d="M2440.463 3678.521H2182.26c-99.973 0-115.222-103.454-130.666-183.566-10.283-53.564-42.616-327.954-50.945-371.275-47.269 1.681-207.923 4.105-316.851-40.193l691.45-352.234c8.132 72.41 23.459 278.183 36.791 471.679 7.429 107.95 14.193 212.107 18.767 287.097 27.056 9.97 50.437 25.061 64.042 53.448 4.457 9.305 7.233 20.527 8.367 32.49 4.302 45.862-16.068 102.554-62.752 102.554z"/><path fill="#fff" d="M2440.463 3678.521H2182.26c-99.973 0-115.222-103.454-130.666-183.565-6.373-33.194-21.23-151.271-33.546-246.513-7.585-58.452-14.231-108.302-17.399-124.762-47.269 1.681-207.923 4.105-316.851-40.193l691.45-352.235c8.133 72.41 23.459 278.183 36.791 471.679.744 10.986 1.486 21.934 2.229 32.803 6.568 96.025 12.433 186.928 16.539 254.294 27.055 9.97 50.436 25.062 64.042 53.447 4.458 9.305 7.234 20.527 8.368 32.49 4.3 45.863-16.07 102.555-62.754 102.555z"/><path fill="#e5e5e5" d="M2440.463 3678.521H2182.26c-99.973 0-115.222-103.454-130.666-183.566-10.283-53.564-42.616-327.954-50.945-371.275-47.269 1.681-207.923 4.105-316.851-40.193l691.45-352.234c8.132 72.41 23.459 278.183 36.791 471.679-54.854 3.01-121.634-1.525-187.397 18.572-118.271 36.166-102.946 153.772-80.19 264.42 26.43 128.633 129.805 119.64 226.456 119.64 96.807 0 124.528-19.9 132.308-29.597 4.301 45.862-16.069 102.554-62.753 102.554z"/><path fill="#371a45" d="M2391.132 2729.479c23.903 253.055 39.141 506.04 55.643 759.574-.001 0-10.425-14.037-10.425-14.037 73.28 25.36 99.207 92.009 74.627 163.684-10.887 31.252-38.247 57.84-73.694 55.813-5.166.14-21.13-.1-26.622.001-47.38.005-167.264-.004-212.988 0-123.995 7.322-144.434-101.479-162.141-198.63-16.455-102.611-30.781-232.109-46.669-334.687-1.663-11.609-3.539-23.34-5.424-34.197l17.825 14.189c-27.192.949-54.334.698-81.477-.938-80.689-5.454-164.106-17.798-235.993-56.776 64.761 16.623 130.937 21.349 197.352 23.36 39.605.844 79.295.649 118.868-.66 19.189.014 18.397 18.543 20.754 32.389 8.042 58.044 16.855 135.635 24.287 194.117 9.225 67.63 17.21 142.852 32.162 209.004 10.885 49.909 30.797 111.66 87.549 119.492 8.955 2.159 23.619.938 32.907 1.337 55.287.292 174.573-.212 230.737 0h8.874c21.811 1.712 36.634-15.235 43.708-34.989 18.022-54.717 1.843-102.629-55.735-122.493-6.124-2.247-10.04-7.858-10.424-13.975-16.416-252.574-31.73-506.089-55.499-758.002-.002 0 31.798-3.576 31.798-3.576z"/><path fill="#371a45" d="M2246.445 3495.614c60.566-18.529 124.523-29.74 188.047-21.161 20.924 3.544 16.759 34.097-4.399 31.843-29.267-9.101-60.257-14.167-91.298-15.16-30.734-1.092-61.757.243-92.35 4.478z"/><path fill="#e8d1bf" d="M2325.651 2073.397c170.792 464.402 129.947 754.172 70.301 861.402-77.688 68.103-345.998 151.622-610.998 131-372.156-28.961-391.779-186.5-402.623-262.135-43.377-313.709 234.623-733.865 234.623-733.865s39.405-143.333 51.489-162c12.083-18.667 670.689 36 670.689 36l-13.481 129.598z"/><path fill="#9b66d3" d="M2395.938 2934.787c-77.68 68.12-346 151.64-611 131-372.16-28.96-391.76-186.48-402.6-262.12-31.52-227.84 106.44-511.76 184.4-650.2 29.36-52.2 50.2-83.68 50.2-83.68s39.44-143.32 51.52-162c12.08-18.64 670.68 36 670.68 36l-13.48 129.6c18.04 49.12 33.76 96.24 47.32 141.44 114.64 382.2 76.28 624.08 22.96 719.96z"/><path fill="#7e54b5" d="M2325.658 2073.387c18.04 49.12 33.76 96.24 47.32 141.44-83.76-24.04-234.68-36.4-383.2 40.96l-305.32-52s-57.88-32.68-117.72-50.32c29.36-52.2 50.2-83.68 50.2-83.68s39.44-143.32 51.52-162c12.08-18.64 670.68 36 670.68 36l-13.48 129.6z"/><path fill="#d1b8a7" d="m2437.778 2252.827 1.36-5.2c.84 2.08.44 3.84-1.36 5.2z"/><path fill="#7e54b5" d="M1747.483 2439.507c-86.898-9.376-190.946-47-126.946-58.667 84.379-15.382 321.831 23.034 303.333 38.092-21.999 17.909-77.527 31.242-176.387 20.575z"/><path fill="#7e54b5" d="M2395.938 2934.787c-77.68 68.12-346 151.64-611 131-372.16-28.96-391.76-186.48-402.6-262.12-1.96-14.08-3.24-28.4-3.92-42.84l516.12 12.68c152 54.24 472 209.6 373.08-483.6-18.24-127.88 20.56-161.44 82.32-147.48 142.36 424.16 102.64 690.56 46 792.36z"/><path fill="#371a45" d="M1870.731 3085.085c-28.758 0-57.824-1.061-87.02-3.334-382.016-29.727-405.621-194.729-416.965-274.023l-.258-1.791c-18.414-133.18 15.996-299.137 102.266-493.34 58.855-132.496 123.137-233.537 133.434-249.445 8.02-29.066 40.422-144.891 52.82-164.045 7.359-11.367 12.672-19.578 354.398 3.73 164.375 11.211 329.398 24.881 331.047 25.018 4.285.356 8.25 2.422 10.992 5.734 2.746 3.31 4.043 7.588 3.598 11.867l-13.098 125.91c161.879 442.094 137.902 745.525 67.984 871.211-.891 1.605-2.051 3.043-3.434 4.254-70.26 61.594-291.381 138.25-535.764 138.254zm-191.078-1164.182c-8.746 19.969-29.941 90.105-47.273 153.139-.445 1.627-1.148 3.176-2.082 4.586-2.746 4.152-274.156 418.809-232.121 722.846l.25 1.723c5.164 36.111 12.973 90.682 62.168 138.84 60.73 59.451 170.277 95.725 325.602 107.813 256.145 19.938 518.457-59.018 597.113-125.281 16.895-31.479 52.211-118.102 47.91-286.119-4.227-165.199-44.797-353.451-120.586-559.527-.844-2.293-1.152-4.748-.898-7.18l11.789-113.34c-232.411-19.1-590.942-44.504-641.872-37.5zM2395.95 2934.8h.039-.039zm-720.265-1013.116c-.004.002 0 0 0 0z"/><path fill="#e8d1bf" d="M1417.287 2386.467c15.25 63.041 80.227 103.49 116.75 175.041 20.741 40.633-90.084 328.959-90.084 328.959-66.992 0-187.722-84.892-206.336-251.449-8.616-77.094 3.92-191.51 55.243-283.455l124.427 30.904z"/><path fill="#bd74e8" d="M1443.938 2890.467c-66.96 0-187.72-84.88-206.32-251.44-8.6-77.12 3.92-191.52 55.24-283.48l124.44 30.92c2.52 10.48 6.44 20.32 11.4 29.8 22.64 43.68 66.88 79.32 97.56 131.12 2.72 4.56 5.32 9.28 7.8 14.12 20.719 40.64-90.12 328.96-90.12 328.96z"/><path fill="#fff" d="M1526.257 2547.387c-7.8 3.72-28.616 18.582-37.793 17.194-86.538-13.089-102.583-193.074-59.766-148.314 22.64 43.68 66.88 79.32 97.559 131.12z" opacity=".3"/><path fill="#9a5cc6" d="M1483.938 2779.627c-20.88 61.08-40 110.84-40 110.84-66.96 0-187.72-84.88-206.32-251.44-2.04-18.48-2.92-39.08-2.28-60.96 22.76 66.32 74.08 146.88 189.88 176.4 25.76 6.6 44.88 15.24 58.72 25.16z"/><path fill="#371a45" d="M1417.287 2386.467c22.313 41.318 59.633 67.569 89.429 103.705 15.123 18.295 28.375 38.934 39.834 60.707 4.188 6.896 6.016 16.183 6.034 23.662-.88 42.681-14.384 83.198-25.571 123.563-20.156 67.038-43.421 132.707-68.157 198.191-6.226 15.503-25.775 9.289-38.116 7.631-21.609-4.661-42.104-13.987-60.476-25.582-124.603-80.147-158.149-235.401-134.014-373.58 8.882-54.396 25.442-108.047 52.641-157 4.291-7.725 14.032-10.508 21.757-6.215 7.746 4.301 10.517 14.084 6.185 21.813-37.294 67.56-54.613 146.878-55.677 224.148-1.467 76.308 20.36 155.316 69.868 213.979 31.133 36.181 73.921 70.259 122.931 72.98.001-.001-14.934 10.257-14.934 10.257 31.814-85.509 63.898-173.211 84.874-261.732 3.486-17.571 8.163-35.842 6.143-53.213-9.639-20.772-25.385-38.951-40.268-57.623-27.63-35.549-62.566-77.438-62.483-125.691z"/><path fill="#bd74e8" d="M1522.536 2506.355c-53.999 107.152-194.999 252.215-136.665 368.142 28.667 55.973 141.134 111.252 251.068 136.196 176.932 40.147 424.099 14.563 471.477-16.684 14.116-9.31 14.117-33.351 14.138-63.539.045-66.11 4.147-103.708-14.138-114.371-19.878-11.592-80.378-33.592-109.878-113.259-37.336-100.828-3-159.333-38.879-172.26-19.437-7.003-91.787 4.26-253.98-15.51-53.137-6.477-87.73-12.826-138.797-23.809-13.969-3.004-32.389-8.633-44.346 15.094z"/><path fill="#fff" d="M1689.954 2710.507c-140.511-24.109-173.341-59.073-135.416-65.467 104-17.533 320 18.467 352 62.467 18.358 25.243-69.28 28.275-216.584 3z" opacity=".3"/><path fill="#9a5cc6" d="M2122.538 2930.467c0 30.2 0 54.24-14.12 63.56-47.4 31.24-294.56 56.8-471.48 16.68-109.92-24.96-222.4-80.24-251.08-136.2-20.04-39.84-16.56-83.12-1.12-127.12 48.96 29.88 128.84 71.64 217.48 90.32 140.8 29.64 370.32 51.28 514.92-11.52 8.039 17.32 5.48 51.84 5.4 104.28z"/><path fill="#371a45" d="M1847.817 3047.218c-72.918.002-149.227-6.129-214.418-20.92-102.324-23.219-227.887-78.344-261.77-144.508-47.555-94.508 22.117-201.201 83.59-295.336 20.352-31.164 39.574-60.602 53.027-87.301 16.898-33.525 45.824-27.113 59.73-24.031l2.266.496c48.586 10.451 83.172 16.965 137.371 23.57 100.352 12.232 166.402 12.475 205.867 12.619 26.887.1 41.699.154 51.602 3.721 28.328 10.207 28.855 37.021 29.469 68.07.547 27.814 1.297 65.906 18.988 113.686 23.645 63.857 68.734 87.141 92.957 99.65 3.824 1.975 7.129 3.682 9.977 5.342 23.301 13.59 22.93 45.299 22.313 97.832-.109 9.35-.227 19.473-.234 30.375-.023 33.768-.039 62.846-21.328 76.883-34.227 22.574-147.012 39.848-269.407 39.852zm-299.23-542.795c-5.645 0-8.402 2.465-11.762 9.133-14.262 28.295-33.957 58.459-54.813 90.395-56.75 86.904-121.074 185.404-81.848 263.355 24.176 47.209 127.512 102.189 240.313 127.785 171.406 38.891 416.203 13.867 459.129-14.439 6.914-4.561 6.93-28.748 6.945-50.09.008-11.131.129-21.371.238-30.828.379-32.258.77-65.611-6.438-69.814-2.137-1.246-5.102-2.777-8.539-4.551-26.074-13.467-80.328-41.484-108.281-116.971-19.57-52.854-20.383-94.072-20.977-124.168-.563-28.645-1.602-36.174-8.32-38.596-4.699-1.693-21.461-1.754-40.871-1.826-40.168-.146-107.398-.395-209.625-12.854-55.414-6.754-90.699-13.398-140.223-24.051l-2.461-.539c-5.405-1.199-9.369-1.941-12.467-1.941zm-26.051 1.931h.039-.039z"/><path fill="#9b66d3" d="M1989.776 2255.8s278.977-172.556 392.865-126.961c114.801 45.961 175.414 294.642 203.909 282.961 125.226-51.333 39.892-294-26.108-318 21.335-35.092 129-153.704-112.868-189.885-198.708-29.724-767.603-101.774-885.132-22.115-60 40.667-57.161 72.42-51.918 102.667-29.082 71.688 13.328 97.729 37.312 112.432 80.701 47.608 136.606 106.901 136.606 106.901l305.334 52z"/><path fill="#7e54b5" d="M2592.618 2041.107c-156.72 3.4-391.44 32.84-760.16 84.32-123.8-92.12-251.92-130.68-324.4-162.6-.64-24 8.48-49.92 54.4-81.04 117.52-79.64 686.4-7.6 885.12 22.12 165.839 24.84 167.36 88.4 145.04 137.2z"/><path fill="#371a45" d="M1989.776 2255.799c80.947-69.912 304.765-191.398 409.399-139.585 47.797 24.37 77.906 67.595 104.704 110.959 25.568 42.264 45.36 87.069 65.833 129.686 6.36 12.74 12.036 25.03 19.79 35.543 1.061 1.475 2.565 2.645 1.446 1.793-.29-.168-.951-.582-1.993-.934-2.263-1.189-7.898-.667-9.632.24 2.677-1.262 5.627-2.446 8.187-3.899 57.415-32.262 47.942-118.188 32.296-173.234-10.267-34.241-32.592-90.683-64.829-107.534-9.45-3.351-13.572-14.858-8.204-23.349 7.918-12.421 15.355-22.286 22.466-34.357 31.223-51.379 20.772-85.439-35.247-108.755-11.698-4.992-24.197-8.899-36.915-12.258-25.526-6.807-51.964-10.461-79.319-14.404-108.567-15.545-217.583-28.639-326.752-38.664-135.709-11.442-272.829-22.282-408.651-10.476-38.25 4.54-78.814 8.908-111.186 28.649-32.12 22.363-54.9 44.328-44.876 86.511.526 2.012.46 4.039-.087 5.898-3.533 11.845-6.968 24.202-7.475 35.322-3.413 37.604 28.223 53.321 54.596 72.025 21.224 15.264 41.238 32.118 59.954 50.302 18.551 18.205 36.151 37.379 51.165 58.521-20.69-15.498-41.576-30.16-62.722-44.191-21.054-13.849-42.512-27.066-64.508-39.324-11.673-6.474-22.915-11.82-34.311-19.506-43.437-27.896-49.787-77.843-27.202-122.326-.001 0-.939 8.748-.939 8.748-1.205-6.979-2.375-14.52-2.694-22.582-3.055-41.566 29.109-74.914 61.116-95.863 38.222-24.064 83.306-28.877 125.964-34.021 138.304-12.088 277-1.171 414.765 10.445 109.846 10.089 219.268 23.234 328.411 38.861 27.032 3.904 55.201 7.754 82.863 15.119 89.637 22.23 147.339 76.439 91.58 168.288-6.703 11.684-15.826 23.851-22.651 34.665l-8.203-23.347c14.85 5.483 25.38 15.017 35.339 25.865 68.74 79.326 114.615 273.001-6.903 325.215-32.263 12.005-48.572-35.196-59.918-55.876-35.819-72.29-82.379-194.1-158.386-228.166-54.532-20.273-134.572 8.34-187.889 27.672-67.104 25.322-131.524 54.667-198.382 82.324z"/><path fill="#371a45" d="M2125.174 2125.409c118.246-39.469 259.036-73.479 384.017-59.066 18.99 2.502 38.031 6.347 56.785 12.445 8.41 2.734 13.012 11.768 10.278 20.178-2.83 8.842-12.787 13.424-21.347 9.848-121.033-47.221-305.701-15.319-429.733 16.595zm-600.846-149.034c3.536 6.802 8.83 12.706 14.139 18.291 46.8 45.014 104.094 80.57 143.475 133.176-13.213-13.313-27.869-24.864-42.993-35.656-40.109-29.283-85.678-50.394-124.863-81.269-6.54-5.261-12.396-11.494-17.365-18.36-13.294-19.622 16.549-37.275 27.607-16.182z"/><path fill="#fff" d="M1596.766 2616.463c-.146-.011-.29-.025-.435-.044-4.383-.563-7.48-4.572-6.917-8.953l4.443-34.642c.561-4.385 4.616-7.488 8.953-6.917 4.383.563 7.48 4.572 6.917 8.953l-4.443 34.642c-.543 4.238-4.308 7.273-8.518 6.961z"/><path fill="#371a45" d="M1597.364 2620.485c-.297 0-.594-.01-.891-.033l-.668-.068c-6.547-.84-11.199-6.863-10.359-13.426l4.441-34.641c.41-3.182 2.039-6.016 4.594-7.98 2.547-1.963 5.695-2.809 8.852-2.393 3.164.406 5.996 2.027 7.957 4.563 1.957 2.537 2.813 5.686 2.406 8.863l-4.445 34.643c-.773 6.025-5.906 10.472-11.887 10.472zm4.414-50.642c-.867 0-1.711.287-2.418.834-.855.658-1.402 1.602-1.535 2.658l-4.441 34.641c-.137 1.061.148 2.107.801 2.953s1.598 1.387 2.652 1.523l-.07 4.012.293-3.988c2.137.104 3.984-1.373 4.254-3.48l4.445-34.645c.137-1.059-.148-2.105-.801-2.951s-1.598-1.387-2.656-1.523c-.176-.023-.348-.034-.524-.034z"/><path fill="#fff" d="M1845.198 2647.804c-.146-.001-.291-.006-.437-.015-4.41-.276-7.763-4.074-7.487-8.482l2.17-34.858c.274-4.412 4.117-7.774 8.482-7.487 4.41.276 7.763 4.074 7.487 8.482l-2.17 34.858c-.265 4.263-3.824 7.537-8.045 7.502z"/><path fill="#371a45" d="M1845.271 2651.803h-.105l-.672-.025c-3.18-.197-6.109-1.631-8.23-4.033-2.125-2.404-3.184-5.49-2.98-8.689l2.168-34.855c.199-3.199 1.641-6.133 4.059-8.26 2.41-2.123 5.469-3.182 8.68-2.971 3.188.199 6.117 1.633 8.238 4.037s3.176 5.49 2.977 8.689l-2.168 34.854c-.397 6.33-5.643 11.253-11.967 11.253zm2.144-50.857c-.965 0-1.883.35-2.625 1-.809.711-1.289 1.688-1.355 2.75l-2.168 34.859c-.066 1.066.285 2.094.992 2.893.707.803 1.688 1.281 2.754 1.348l.188 4.008.035-4h.031c2.105 0 3.852-1.641 3.984-3.75l2.168-34.857c.066-1.068-.285-2.096-.992-2.896s-1.684-1.279-2.75-1.346c-.086-.007-.176-.009-.262-.009z"/><path fill="#e8d1bf" d="M1684.538 2284.507c-15.5 61.5-67 164.667-82.338 281.333"/><path fill="#371a45" d="M1602.22 2581.843c-.695 0-1.398-.045-2.105-.139-8.762-1.152-14.93-9.188-13.777-17.949 10.418-79.244 36.863-151.615 58.117-209.768 10.496-28.732 19.566-53.545 24.566-73.391 2.156-8.566 10.855-13.76 19.426-11.605 8.57 2.16 13.766 10.857 11.605 19.426-5.406 21.453-14.738 46.986-25.543 76.553-20.711 56.676-46.488 127.211-56.445 202.957-1.059 8.052-7.934 13.916-15.844 13.916z"/><path fill="#e8d1bf" d="M1892.949 2322.275c-9.156 56.587-39.457 162.866-44.391 274.733"/><path fill="#371a45" d="M1848.571 2613.009c-.238 0-.477-.006-.715-.016-8.828-.389-15.672-7.861-15.281-16.689 3.594-81.527 20.547-160.611 32.922-218.355 4.898-22.861 9.129-42.605 11.66-58.229 1.41-8.721 9.609-14.658 18.348-13.24 8.723 1.412 14.652 9.627 13.238 18.35-2.656 16.426-6.965 36.537-11.957 59.826-12.141 56.639-28.766 134.209-32.242 213.059-.379 8.587-7.461 15.294-15.973 15.294z"/><path fill="#e5e5e5" d="M1579.109 1940.095c114.667 43.333 253.333 185.314 253.333 185.314s424.471-87.114 516.453-126.056c48.534-20.548-477.787-154.22-477.787-154.22"/><path fill="#371a45" d="M1832.442 2141.409c-4.262 0-8.402-1.707-11.445-4.818-1.363-1.396-137.566-139.967-247.543-181.529-8.266-3.123-12.434-12.357-9.313-20.623 3.129-8.266 12.352-12.43 20.625-9.311 104.094 39.34 224.184 154.377 252.906 182.861 55.621-11.549 369.551-77.365 481.766-114.805-63.887-27.397-265.387-85.08-452.266-132.543-8.566-2.176-13.746-10.881-11.57-19.447 2.176-8.564 10.895-13.742 19.445-11.568 1.199.305 121.273 30.84 240.07 64.543 69.922 19.836 125.785 36.889 166.039 50.684 79.352 27.195 85.906 37.348 86.848 49.732.5 6.582-2.621 15.162-12.871 19.502-92.383 39.113-502.078 123.426-519.477 126.996-1.065.219-2.143.326-3.214.326z"/><path fill="#fff" d="M2598.426 2673.06c29.428 92.152 43.053 189.246 31.575 284.782-13.767 114.585-76.578 165.223-203.173 153.777-37.47 7.226-124.323 11.122-160.819-33.826-29.109-35.85-28.587-102.99 13.895-131.12 0 0-61.394-4.063-55.813-62.678 4.079-42.847 55.013-63.191 79.387-68.978 66.496-157.445 294.948-141.957 294.948-141.957z"/><path fill="#e5e5e5" d="M2616.565 3016.57c-26.682 72.958-87.331 104.314-189.737 95.044-37.472 7.245-124.336 11.14-160.834-33.811-29.097-35.875-28.552-102.99 13.906-131.114 0 0-61.389-4.09-55.819-62.674.273-2.882.74-5.609 1.402-8.297 7.206 15.113 20.255 33.421 42.926 41.562 30.85 11.023 63.96 5.181 68.829 40.238 3.233 23.371-22.398 41.562-20.061 71.088 2.532 31.396 47.327 46.431 106.223 32.642.001 0 136.918 24.501 193.165-44.678z"/><path fill="#371a45" d="M2375.548 3131.985c-40.098 0-92.547-7.883-121.961-44.105-18.691-23.02-27.273-57.094-22.395-88.926 2.57-16.787 8.648-31.854 17.676-44.287-8.828-3.99-18.137-9.947-25.688-18.824-11.992-14.098-17.047-32.053-15.02-53.363 4.125-43.264 46.082-70.002 83.809-80.965 73.699-158.367 297.891-145.082 307.539-144.418 6.551.443 12.164 4.842 14.16 11.096 32.426 101.543 43.266 199.639 32.219 291.559-14.93 124.295-86.332 179.256-218.328 167.994-6.804 1.173-27.007 4.239-52.011 4.239zm207.316-443.293c-49.668 0-212.73 9.625-264.645 132.551-1.98 4.695-6.082 8.166-11.043 9.344-23.531 5.584-64.16 23.438-67.156 54.926-1.188 12.477 1.238 22.115 7.422 29.463 11.695 13.898 33.387 15.721 33.605 15.738 6.813.525 12.586 5.322 14.301 11.936 1.719 6.613-.91 13.592-6.609 17.363-13.785 9.131-22.992 24.68-25.918 43.785-3.496 22.838 2.629 47.926 15.609 63.91 28.961 35.674 102.801 36.416 145.367 28.201 1.473-.281 2.973-.361 4.473-.225 115.684 10.469 172.98-32.645 185.844-139.75 10.105-84.098.832-173.943-27.566-267.225-1.145-.009-2.375-.017-3.684-.017z"/><path fill="#371a45" d="M2274.988 2931.448c18.604-3.049 39.135 6.664 41.709 26.721 1.324 11.83-2.398 23.611-6.726 34.406-.842-10.037-2.051-21.117-7.51-29.682l-1.109-1.219c-2.85-3.432-5.864-4.004-8.478-3.521-2.675.441-6.111 1.764-8.262 3.683.723.705-9.801-30.478-9.624-30.388zm2.353-124.504c27.112.637 53.039 6.732 79.049 12.943-24.69 4.481-50.174 9.069-73.245 18.525-.001.001-5.804-31.468-5.804-31.468z"/><path fill="#bd74e8" d="M2270.579 2189.133c-17.47 106.667 47.737 204.667 47.737 333.333 0 116.209-35.362 244.333-14.836 292.551 57.427 99.449 307.046 133.77 352.474 25.782 78.667-187-61.53-488.267-112.524-573-91.476-152-215.976-160.25-244.877-134.391 0 .001-22.196 20.45-27.974 55.725z"/><path fill="#fff" d="M2567.289 2368.371c-46.016-103.364-120.326-175.669-128.751-98.197-9.643 88.667 74.667 336.04 158.667 347.333 75.611 10.166 7.38-165.36-29.916-249.136z" opacity=".3"/><path fill="#9a5cc6" d="M2679.417 2709.747c.04 46.72-6.8 91.44-23.48 131.04-45.4 108-295.04 73.68-352.44-25.76-20.56-48.24 14.8-176.36 14.8-292.56 0-128.68-65.2-226.68-47.72-333.32 5.76-35.28 27.96-55.72 27.96-55.72 3.36-3 7.96-5.52 13.68-7.44-34.16 58.52-20.24 145.72 19.64 254.84 76 207.92 31 273.48 68.76 365.24 42.921 104.4 218.8 86.16 278.8-36.32z"/><path fill="#371a45" d="M2516.294 2923.286c-85.918 0-189.25-35.471-226.668-100.268-.324-.559-.613-1.139-.867-1.732-13.504-31.727-6.859-85.457 1.555-153.482 5.629-45.48 12.004-97.031 12.004-145.338 0-57.516-13.594-109.039-26.742-158.865-15.797-59.871-30.715-116.422-20.785-177.053 6.594-40.256 31.848-63.918 32.922-64.906 15.039-13.459 42.754-18.559 74.332-13.803 34.32 5.172 122.035 30.309 195.094 151.711 55.078 91.518 194.156 395.883 113.566 587.455-18.719 44.494-66.988 71.383-135.91 75.713-6.052.378-12.232.568-18.501.568zm-198.441-115.393c30.473 51.318 126.559 88.43 214.934 82.887 55.344-3.477 94.859-23.955 108.418-56.186 32.016-76.102 29.16-184.752-8.262-314.201-31.973-110.615-79.926-205.637-103.223-244.344-66.055-109.76-142.602-132.07-172.445-136.568-24.398-3.678-42.02.453-48.055 5.852.008 0-18.109 17.443-22.852 46.387-8.824 53.896 5.25 107.24 20.148 163.717 13.668 51.799 27.801 105.363 27.801 167.029 0 50.279-6.504 102.869-12.246 149.268-7.113 57.53-13.84 111.909-4.218 136.159zm-671.094 476.78c-126.461 0-167.895-28.65-170.336-30.43-5.355-3.9-6.535-11.406-2.633-16.764 3.871-5.316 11.309-6.521 16.656-2.713 1.406.951 87.656 56.65 392.129 1.41 6.496-1.205 12.762 3.143 13.949 9.664 1.184 6.521-3.145 12.768-9.668 13.949-102.082 18.522-180.531 24.884-240.097 24.884z"/><path fill="#fff" d="M1094.634 1282.423c3.941 97.27 22.722 190.897 66.102 227.068 31.164 25.981 264.786 51.343 264.786 51.343l-116.188-622.628s-15.866 2.71-38.355 7.796c-46.737 10.639-122.144 31.856-142.108 61.348-21.701 32.024-38.998 156.291-34.237 275.073z"/><path fill="#e8e8e8" d="M1094.634 1282.423c3.941 97.27 22.722 190.897 66.102 227.068 31.164 25.981 264.786 51.343 264.786 51.343l-116.188-622.628s-15.866 2.71-38.355 7.796c-28.112 71.314-61.389 179.627-71.266 310.277-6.827 90.183-69.17 89.747-105.079 26.144z"/><path fill="#371944" d="m1445.2 1579.097-21.41-2.328c-39.816-4.33-240.117-27.336-273.301-55.016-61.695-51.469-71.969-192.191-72.602-271.494-.883-110.537 15.336-218.814 37.727-251.863 32.504-47.982 174.906-73.234 191.039-75.955l15.504-2.615 123.043 659.271zm-148.691-622.274c-56.371 11.027-137.293 34.266-154.402 59.519-16.27 24.016-33.098 123.635-32.219 233.66.984 123.68 23.828 216.084 61.102 247.176 16.086 13.42 128.242 32.891 234.836 45.357l-109.317-585.712z"/><circle cx="2010.438" cy="1237.308" r="842.486" fill="#fff"/><path fill="#e8e8e8" d="M2802.099 1525.917c-123.941 340.601-459.986 574.541-840.405 552.48-464.505-26.937-819.248-425.358-792.311-889.862 10.519-181.393 77.652-346.07 183.25-477.717 47.462 423.112 560.531 779.275 1206.02 816.708 82.94 4.809 164.397 4.127 243.446-1.609z"/><path fill="#371a45" d="M2011.563 2095.831c-16.895 0-33.82-.49-50.824-1.477-228.926-13.275-438.98-114.904-591.469-286.166s-229.156-391.656-215.879-620.58c13.273-228.926 114.906-438.978 286.168-591.467s391.668-229.162 620.578-215.879c228.926 13.275 438.98 114.904 591.465 286.166 152.488 171.262 229.156 391.654 215.879 620.58-13.273 228.926-114.902 438.979-286.164 591.467-158.543 141.161-359.218 217.356-569.754 217.356zm-2.207-1685.043c-202.707 0-395.879 73.346-548.52 209.254-164.879 146.803-262.719 349.027-275.5 569.418-12.781 220.393 61.031 432.57 207.836 597.449 146.801 164.877 349.027 262.719 569.418 275.5 220.441 12.768 432.566-61.029 597.445-207.834 164.879-146.803 262.719-349.027 275.5-569.418 26.383-454.963-322.289-846.564-777.25-872.949-16.358-.947-32.679-1.42-48.929-1.42z"/><path fill="#371a45" d="M2010.985 2095.843c-16.664 0-33.402-.482-50.246-1.459-110.527-6.408-216.938-33.404-316.27-80.234-251.477-118.6-430.641-352.467-479.266-625.6-10.934-61.271-15.141-124.211-12.496-187.063.199-4.615.402-9.277.668-13.869 14.063-242.529 130.941-468.729 320.668-620.596 165.758-132.742 373.855-199.062 586.098-186.766 228.922 13.275 438.977 114.902 591.469 286.16 152.5 171.266 229.172 391.668 215.895 620.606-26.43 455.743-405.688 808.821-856.52 808.821zm-.855-1685.037c-187.438 0-369.066 63.459-516.086 181.197-182.66 146.211-295.184 363.979-308.723 597.467-.258 4.436-.453 8.941-.645 13.381-2.543 60.504 1.504 121.1 12.031 180.084 46.813 262.943 219.301 488.09 461.41 602.271 95.609 45.076 198.051 71.06 304.473 77.232 455.051 26.363 846.582-322.297 872.969-777.268l15.973.926-15.973-.926c12.781-220.404-61.035-432.592-207.848-597.475-146.809-164.875-349.035-262.713-569.422-275.494-16.073-.931-32.155-1.395-48.159-1.395z"/><path fill="#371a45" d="M1940.435 2058.522c-18.07 0-36.176-.523-54.379-1.578-81.738-4.742-162.008-20.182-238.582-45.892-.441-.149-.875-.322-1.297-.521-250.309-118.045-428.637-350.824-477.031-622.682-12.105-58.213-16.516-118.314-13.035-178.295.16-2.781.324-5.504.609-8.279.191-4.457.391-8.975.648-13.426 14-241.398 130.332-466.543 319.176-617.703.473-.377.977-.721 1.5-1.023 150.23-86.732 323.523-127.131 501.07-116.836 229.039 13.283 439.578 109.125 592.828 269.873 153.465 160.971 231.133 367.728 218.695 582.184-12.438 214.482-113.488 410.894-284.531 553.057-157.226 130.678-356.359 201.121-565.671 201.121zm-284.653-69.998c74.348 24.899 152.289 39.856 231.664 44.459 459.777 26.66 854.34-300.816 879.23-730.031l11.98.695-11.98-.695c12.047-207.744-63.277-408.127-212.105-564.233-149.039-156.33-353.898-249.545-576.848-262.473-172.527-10.006-340.914 29.133-486.891 113.205-183.125 146.912-295.918 365.469-309.504 599.787-.258 4.455-.453 8.979-.648 13.438-.012.252-.027.504-.055.754-.27 2.518-.41 4.982-.555 7.506-3.359 57.885.895 115.875 12.637 172.367 47.06 264.325 220.118 490.397 463.075 605.221z"/><path fill="#371a45" d="M2697.083 1298.917c-22.871 394.394-383.708 694.334-805.911 669.85-357.89-20.754-645.039-267.966-710.215-583.021-11.767-56.624-16.349-115.428-12.866-175.497.158-2.721.312-5.377.602-8.09 27.236-390.413 386.021-686.01 805.307-661.695 422.204 24.484 745.954 364.058 723.083 758.453z"/><path fill="#220f2d" d="M2697.083 1298.917c-22.871 394.394-383.708 694.334-805.911 669.85-317.534-18.414-579.378-215.076-679.867-479.3 142.166 169.143 357.923 283.149 604.834 297.467 437.272 25.358 813.751-271.011 866.508-670.865 12.966 58.891 18.07 120.19 14.436 182.848z"/><path fill="#fff" d="M2234.926 877.075c-17.362 60.217-165.153 1.563-442.157 49.197-193.452 33.267-328.963 209.74-398.527 151.153-69.564-58.586 110.182-266.745 305.094-334.574 300.045-104.416 552.952 74.006 535.59 134.224z" opacity=".5"/><ellipse cx="2421.092" cy="1424.502" fill="#fff" opacity=".5" rx="118.987" ry="89.511" transform="rotate(-67.238 2420.98703453 1424.55823758)"/><ellipse cx="2307.86" cy="1617.733" fill="#fff" opacity=".5" rx="50.936" ry="44.31" transform="rotate(-48.202 2307.7750567 1617.7298208)"/><path fill="#fff" d="m2893.027 1172.693-57.901 326.84-36.067 203.587-115.235-1.202-10.891-.131c-49.679-9.845-67.066-147.069-38.848-306.249.615-3.585 1.311-7.255 2.003-10.835 29.044-153.755 90.473-269.017 138.994-259.321l10.179 4.063 107.766 43.248z"/><path fill="#e8e8e8" d="m2835.126 1499.533-36.067 203.587-115.235-1.202-10.891-.131c-49.679-9.845-67.066-147.069-38.848-306.249.615-3.585 1.311-7.255 2.003-10.835l8.715-18.511s7.827 70.023 39.496 82.715c33.49 13.493 64.178-67.299 64.178-67.299l86.649 117.925z"/><path fill="#371a45" d="M2799.056 1719.153h-.172l-126.105-1.326c-1-.012-1.996-.115-2.977-.311-69.109-13.813-78.199-173.818-51.461-324.736 23.145-130.647 70.758-240.313 118.473-272.895 13.906-9.498 27.836-12.941 41.398-10.23.969.193 1.922.478 2.844.848l117.938 47.359c7.027 2.82 11.113 10.182 9.793 17.639l-93.98 530.443c-1.357 7.647-8.001 13.209-15.751 13.209zm-124.176-33.306 110.781 1.164 89.348-504.295-104.25-41.859c-4.535-.5-9.895 1.351-15.902 5.455-33.066 22.58-80.031 111.086-105.008 252.051-29.567 166.894-5.543 278.657 25.031 287.484z"/><path fill="#fff" d="M2934.728 1416.186s-.083.084-.089.171c-1.567 12.535-3.531 25.224-5.824 38.161-25.935 146.418-84.007 257.798-129.756 248.602-44.369-8.861-60.852-128.215-37.887-269.495.643-4.026 1.368-8.134 2.094-12.243 25.935-146.418 84.085-257.794 129.761-248.689 41.674 8.364 58.638 113.894 41.701 243.493z"/><path fill="#e8e8e8" d="M2934.639 1416.357c-1.567 12.535-3.531 25.224-5.824 38.161-25.935 146.418-84.007 257.798-129.756 248.602-44.369-8.861-60.852-128.215-37.887-269.495 13.57 54.178 44.114 150.539 86.807 129.048 24.929-12.63 60.399-85.231 86.66-146.316z"/><path fill="#371a45" d="M2804.513 1719.688c-2.871 0-5.727-.283-8.57-.852-64.418-12.875-73.113-160.781-48.406-300.23 21.691-122.416 64.699-221.311 109.566-251.945 13.102-8.945 26.254-12.18 39.086-9.615 64.418 12.871 73.105 160.785 48.402 300.229-21.688 122.412-64.691 221.307-109.563 251.947-10.199 6.962-20.429 10.466-30.515 10.466zm83.234-531.472c-3.629 0-7.855 1.633-12.598 4.871-30.223 20.635-73.184 101.756-96.105 231.102-27.016 152.484-4.32 257.775 23.172 263.269 4.074.815 9.039-.754 14.766-4.664 30.223-20.637 73.184-101.758 96.102-231.102 27.02-152.484 4.324-257.773-23.168-263.268-.696-.138-1.419-.208-2.169-.208z"/><path fill="#ffc7ea" d="M1566.738 1528.619c0 56.232-71 22.786-122.698 114.783-41.023 76.697-121.896 128.897-214.982 128.897-134.56 0-243.68-109.12-243.68-243.68v-.012c0-134.56 109.12-243.68 243.68-243.68 93.086 0 173.959 52.2 214.982 128.897 51.698 91.996 122.698 58.551 122.698 114.783v.012z" opacity=".7"/><path fill="#ff83e8" d="M1229.056 1788.3c-143.188 0-259.68-116.492-259.68-259.68 0-143.199 116.492-259.691 259.68-259.691 95.996 0 183.777 52.629 229.094 137.35 24.441 43.488 53.477 55.561 76.809 65.26 22.395 9.313 47.781 19.867 47.781 57.07v.012c0 37.203-25.383 47.756-47.781 57.068-23.332 9.699-52.367 21.769-76.969 65.551-45.157 84.429-132.942 137.06-228.934 137.06zm0-487.372c-125.543 0-227.68 102.137-227.68 227.68 0 125.555 102.137 227.691 227.68 227.691 84.168 0 161.137-46.152 200.875-120.445 30.176-53.703 66.34-68.738 92.742-79.715 23.824-9.904 28.066-12.842 28.066-27.52v-.012c0-14.68-4.242-17.615-28.066-27.521-26.402-10.979-62.566-26.012-92.582-79.424-39.895-74.583-116.867-120.734-201.035-120.734z"/><path fill="#fff" d="M1170.406 1721.07c-30.776-9.792-58.831-27.108-81.912-50.969-36.723-37.966 28.26-49.751 48.817-39.179 36.676 18.862 51.058 38.432 57.372 48.727 24.102 39.295-6.085 47.21-24.277 41.421zm-35.976-228.47c-19.051 49.284-7.073 99.026-52.394 105.313-22.038 3.057-50-15.776-49.116-68.598 1.797-107.21 90.473-194.432 197.674-194.432 20.937 1.844 21.199 21.492 1.289 38.607-20.144 17.318-65.318 35.978-97.453 119.11z" opacity=".7"/><path fill="#371a45" d="M2242.29 3285.094c-63.156 0-139.879-7.402-226.613-24.889-6.496-1.311-10.703-7.639-9.391-14.135 1.309-6.498 7.617-10.693 14.133-9.393 219.488 44.256 359.332 20.941 384.73-8.744 4.309-5.035 11.891-5.621 16.918-1.316 5.035 4.307 5.625 11.883 1.316 16.918-21.054 24.612-85.546 41.559-181.093 41.559z"/></svg>