<svg xmlns="http://www.w3.org/2000/svg" viewBox="0 0 2000 2000"><path fill="none" d="M1112 2001H1V1h2000v2000h-889m38.236572-1447.98999c-.769531 1.179931-1.664062 2.297363-2.290649 3.548828-47.945191 95.745422-95.868897 191.501587-143.798035 287.255066-1.010803 2.019287-2.064026 4.017334-3.309814 6.437927-1.173279-2.488586-2.015442-4.373291-2.938111-6.217773-47.629699-95.214112-95.260498-190.427674-142.940979-285.616394-1.002685-2.00177-2.586486-3.712464-3.914611-6.326539-.823731-2.322509-1.41211-4.762512-2.505066-6.950622-48.1568-96.409485-96.376709-192.787567-144.48114-289.223236-1.773072-3.55452-3.70575-5.019196-7.852295-5.015854-146.472474.118484-292.945038.09816-439.417603.109924-1.747665.000138-3.495316.164353-5.950439.28743 1.238769 2.598587 2.116561 4.520584 3.060836 6.409363C369.14032 488.218292 484.393585 718.722656 599.619507 949.240662c8.607178 17.219299 17.020141 34.535583 25.386169 52.532287-.200561.446167-.385376.900208-.604004 1.337464-118.774566 237.508239-237.553711 475.014221-356.321655 712.525817-5.762909 11.524659-11.429077 23.097657-17.494247 35.363892 2.313736 0 3.916397.000122 5.519058.000122 146.983826 0 293.967621-.015503 440.951385.093018 3.529175.002563 5.116639-1.215088 6.6073-4.211426 56.798035-114.173584 113.654114-228.318359 170.56897-342.433716 12.850403-25.765381 25.992859-51.384766 38.912475-77.115845 14.677918-29.23291 29.245545-58.52124 43.881714-87.775146 13.614869-27.212769 27.25409-54.413452 40.892395-81.614624.853638-1.702637 1.791687-3.363037 3.029663-5.677124 1.140015 2.011597 1.979615 3.347046 2.680848 4.751465 49.48761 99.110351 98.925598 198.245727 148.452942 297.336303 48.778198 97.591919 97.657226 195.133423 146.420654 292.732666 1.394653 2.791626 2.789062 4.018799 6.202392 4.015992 147.150391-.118286 294.300782-.10083 441.451294-.113892 1.555298-.000122 3.110718-.182251 5.073487-.304932-1.013672-2.156982-1.734497-3.779174-2.527466-5.365234-115.394653-230.771118-230.800293-461.536743-346.182861-692.313843-8.637452-17.275879-17.111573-34.633362-25.502076-52.670837.84375-1.804688 1.646485-3.629883 2.53711-5.411133 122.948608-245.925049 245.904052-491.846619 368.85083-737.772613.861938-1.724106 1.604736-3.507859 2.805908-6.14917-2.94104 0-5.038574.000015-7.136108.000015-44.653077-.000046-89.306275-.000183-133.959351-.000137-101.302612.000076-202.605103.027572-303.907593-.095566-4.230957-.005142-6.393066 1.2173-8.318603 5.080414-48.363404 97.033096-96.880616 193.989669-145.315674 290.987167-.887207 1.77655-1.1073 3.886169-2.337891 6.037964z"/><path fill="#4FC08D" d="M1376.858521 1001.051025c8.549926 17.319519 17.024047 34.677002 25.661499 51.952881 115.382568 230.7771 230.788208 461.542725 346.182861 692.313843.792969 1.58606 1.513794 3.208252 2.527466 5.365234-1.962769.122681-3.518189.30481-5.073487.304932-147.150512.013062-294.300903-.004394-441.451294.113892-3.41333.002807-4.807739-1.224366-6.202392-4.015992-48.763428-97.599243-97.642456-195.140747-146.420654-292.732666-49.527344-99.090576-98.965332-198.225952-148.452942-297.336303-.701233-1.404419-1.540833-2.739868-2.680848-4.751465-1.237976 2.314087-2.176025 3.974487-3.029663 5.677124-13.638305 27.201172-27.277526 54.401855-40.892395 81.614624-14.636169 29.253906-29.203796 58.542236-43.881714 87.775146-12.919616 25.731079-26.062072 51.350464-38.912475 77.115845-56.914856 114.115357-113.770935 228.260132-170.56897 342.433716-1.490661 2.996338-3.078125 4.213989-6.6073 4.211426-146.983764-.108521-293.967559-.093018-440.951385-.093018-1.602661 0-3.205322-.000122-5.519058-.000122 6.06517-12.266235 11.731338-23.839233 17.494247-35.363892 118.767944-237.511596 237.547089-475.017578 356.321655-712.525817.218628-.437256.403443-.891297.962342-1.87323 1.433838-2.402161 2.608703-4.21875 3.570495-6.141907 72.699707-145.364197 145.379212-290.738526 218.100098-436.092102 1.088135-2.174988 2.672485-4.101746 4.025207-6.144409 1.312684 1.846435 2.896485 3.557129 3.89917 5.558899 47.680481 95.18872 95.31128 190.402282 142.940979 285.616394.922669 1.844482 1.764832 3.729187 2.938111 6.217773 1.245788-2.420593 2.299011-4.41864 3.309814-6.437927 47.929138-95.753479 95.852844-191.509644 143.798035-287.255066.626587-1.251465 1.521118-2.368897 2.955444-3.485596 1.832276 2.064087 3.116455 4.006531 4.150635 6.074219 72.634521 145.214905 145.246216 290.441162 217.892578 435.650146 1.095337 2.189209 2.60022 4.173462 3.913941 6.253418z"/><path fill="#35495E" d="M1376.938232 1000.692017c-1.393432-1.720948-2.898315-3.705201-3.993652-5.89441-72.646362-145.208984-145.258057-290.435241-217.892578-435.650146-1.03418-2.067688-2.318359-4.010132-3.801025-6.173035.216186-2.116211.436279-4.22583 1.323486-6.00238 48.435058-96.997498 96.95227-193.954071 145.315674-290.987167 1.925537-3.863114 4.087646-5.085556 8.318603-5.080414 101.30249.123138 202.604981.095642 303.907593.095566 44.653076-.000046 89.306274.000091 133.959351.000137 2.097534 0 4.195068-.000015 7.136108-.000015-1.201172 2.641311-1.94397 4.425064-2.805908 6.14917-122.946778 245.925994-245.902222 491.847564-368.85083 737.772613-.890625 1.78125-1.69336 3.606445-2.616822 5.770081zM851.052124 552.474976c-1.345032 2.426452-2.929382 4.35321-4.017517 6.528198-72.720886 145.353576-145.400391 290.727905-218.100098 436.092102-.961792 1.923157-2.136657 3.739746-3.501831 5.779114-8.79303-17.098145-17.205993-34.414429-25.813171-51.633728C484.393585 718.722656 369.14032 488.218292 253.898666 257.70813c-.944275-1.888779-1.822067-3.810776-3.060836-6.409363 2.455123-.123077 4.202774-.287292 5.950439-.28743 146.472565-.011764 292.945129.00856 439.417603-.109924 4.146545-.003342 6.079223 1.461334 7.852295 5.015854 48.104431 96.435669 96.32434 192.813751 144.48114 289.223236 1.092956 2.18811 1.681335 4.628113 2.512817 7.334473z"/></svg>