<svg xmlns="http://www.w3.org/2000/svg" fill="none" viewBox="0 0 38 57"><g clip-path="url(#a)"><path fill="#1ABCFE" d="M19 28.5c0-2.5196 1.0009-4.9359 2.7825-6.7175C23.5641 20.0009 25.9804 19 28.5 19c2.5196 0 4.9359 1.0009 6.7175 2.7825C36.9991 23.5641 38 25.9804 38 28.5c0 2.5196-1.0009 4.9359-2.7825 6.7175C33.4359 36.9991 31.0196 38 28.5 38c-2.5196 0-4.9359-1.0009-6.7175-2.7825C20.0009 33.4359 19 31.0196 19 28.5Z"/><path fill="#0ACF83" d="M0 47.5c0-2.5196 1.00089-4.9359 2.78249-6.7175C4.56408 39.0009 6.98044 38 9.5 38H19v9.5c0 2.5196-1.0009 4.9359-2.7825 6.7175C14.4359 55.9991 12.0196 57 9.5 57c-2.51956 0-4.93592-1.0009-6.71751-2.7825C1.00089 52.4359 0 50.0196 0 47.5Z"/><path fill="#FF7262" d="M19 0v19h9.5c2.5196 0 4.9359-1.0009 6.7175-2.7825C36.9991 14.4359 38 12.0196 38 9.5c0-2.51956-1.0009-4.93592-2.7825-6.71751C33.4359 1.00089 31.0196 0 28.5 0H19Z"/><path fill="#F24E1E" d="M0 9.5c0 2.5196 1.00089 4.9359 2.78249 6.7175C4.56408 17.9991 6.98044 19 9.5 19H19V0H9.5C6.98044 0 4.56408 1.00089 2.78249 2.78249 1.00089 4.56408 0 6.98044 0 9.5Z"/><path fill="#A259FF" d="M0 28.5c0 2.5196 1.00089 4.9359 2.78249 6.7175C4.56408 36.9991 6.98044 38 9.5 38H19V19H9.5c-2.51956 0-4.93592 1.0009-6.71751 2.7825C1.00089 23.5641 0 25.9804 0 28.5Z"/></g><defs><clipPath id="a"><path fill="#fff" d="M0 0h38v57H0z"/></clipPath></defs></svg>