<svg xmlns="http://www.w3.org/2000/svg" xmlns:xlink="http://www.w3.org/1999/xlink" viewBox="0 0 319 477"><linearGradient id="a"><stop offset="0" stop-color="#52ce63"/><stop offset="1" stop-color="#51a256"/></linearGradient><linearGradient xlink:href="#a" id="b" x1="55.342075%" x2="42.816933%" y1="0%" y2="42.862855%"/><linearGradient xlink:href="#a" id="c" x1="55.348642%" x2="42.808103%" y1="0%" y2="42.862855%"/><linearGradient id="d" x1="50%" x2="50%" y1="0%" y2="58.811243%"><stop offset="0" stop-color="#8ae99c"/><stop offset="1" stop-color="#52ce63"/></linearGradient><linearGradient id="e" x1="51.37763%" x2="44.584719%" y1="17.472551%" y2="100%"><stop offset="0" stop-color="#ffe56c"/><stop offset="1" stop-color="#ffc63a"/></linearGradient><g fill="none" fill-rule="evenodd" transform="translate(-34 -24)"><path fill="url(#b)" d="M103.950535 258.274149c44.361599-4.360825 60.014503-40.391282 65.353094-94.699444s-30.93219-103.451001-46.020347-101.9678079c-15.088156 1.4831932-63.0385313 58.9051239-68.3771222 113.2132869-5.3385908 54.308162 4.6827754 87.814791 49.0443752 83.453965z" transform="rotate(-38 137.96187394 147.0989803)"/><path fill="url(#c)" d="M275.876752 258.273992c44.3616 4.360826 53.167133-29.265322 47.828542-83.573485-5.338591-54.308162-52.073133-111.6105744-67.16129-113.0937675-15.088156-1.4831931-52.57477 47.5401275-47.236179 101.8482895s22.207328 90.458137 66.568927 94.818963z" transform="rotate(52 240.0255917 189.0029076)"/><path fill="url(#d)" d="M188.370027 216.876305c39.941834 0 50.95265-38.251987 50.95265-97.89874 0-59.6467532-37.367733-118.10125956-50.95265-118.10125956s-52.04735 58.45450636-52.04735 118.10125956c0 59.646753 12.105516 97.89874 52.04735 97.89874z" transform="rotate(7 8.9766626 277.79884837)"/><path fill="url(#e)" d="M184.473473 501C267.592327 501 335 476.854852 335 367.354852S267.592327 168 184.473473 168C101.354618 168 34 257.854852 34 367.354852S101.354618 501 184.473473 501z"/><ellipse cx="260.5" cy="335" fill="#eaadcc" rx="21.5" ry="10"/><ellipse cx="102.5" cy="329" fill="#eaadcc" rx="21.5" ry="10" transform="rotate(7 102.50001088 329.00000356)"/><path stroke="#000" stroke-linecap="round" stroke-linejoin="round" stroke-width="6.00000006" d="M198.24753746 331.45870956c-6.47088016 5.25890023-13.94487755 7.40402431-22.42199225 6.43537216-8.4771146-.96865206-14.7605185-4.48722058-18.85021132-10.55570537"/><path fill="#000" d="M114.98251695 279.41785147c5.93392803-.20721735 11.3898692 2.01002177 15.41413778 5.7623708 4.02434924 3.7524234 6.6170035 9.04003136 6.82420802 14.9735919.20722237 5.93407175-2.010213 11.38983605-5.76286288 15.41393804-3.75272995 4.02418714-9.04078545 6.61668442-14.97480442 6.82390495-5.9334923.20720213-11.3889869-2.01014349-15.4128965-5.76284301-4.02371102-3.75251394-6.6160204-9.04027492-6.8232419-14.97432147-.20720363-5.93353537 2.00999382-11.38906383 5.7622805-15.41302177 3.75231951-4.02399213 9.03977805-6.61642048 14.9731794-6.82361944z"/><path fill="#fff" d="M116.11152668 297.38939743c-.13490573-3.86319422-3.37774853-6.88631324-7.23944567-6.7514598-3.8640437.1349354-6.88693168 3.37685858-6.75202595 7.2400528s3.37657525 6.88635422 7.24061895 6.75141882c3.86165618-.13602623 6.8857584-3.3768176 6.75085267-7.24001182z"/><path fill="#000" d="M245.25344317 284.87478554c5.93391223-.2072168 11.38951235 2.01000416 15.41348537 5.76230543 4.02410372 3.75242318 6.61653028 9.0400699 6.8237371 14.9736965.20722468 5.9341378-2.00998136 11.38992492-5.76238674 15.41400957-3.7524372 4.02411878-9.04015376 6.6165742-14.97415723 6.82379419-5.93350819.20720269-11.38934314-2.01016116-15.4135493-5.76290837-4.02395626-3.75251418-6.61649323-9.04023639-6.82371241-14.97421688-.20720134-5.9334693 2.01022535-11.38897485 5.76275728-15.41295025 3.7526113-4.02406042 9.04040899-6.61653069 14.97382593-6.82373019z"/><g fill="#fff"><path fill-rule="nonzero" stroke="#fff" stroke-width="3" d="M134.22269026 300.25851268c.35662135 10.21229838-7.63220494 18.77836146-17.84419331 19.13497199-10.21086506.3565713-18.77664605-7.63139211-19.1332674-17.8436905-.35658213-10.21117506 7.63112084-18.77719892 17.8419859-19.13377021 10.21198837-.35661053 18.77889268 7.63131365 19.1354748 17.84248872zm5.99634498-.209397c-.47223196-13.5229526-11.81762598-24.10169094-25.34121679-23.6294367-13.52259542.47221948-24.10116135 11.81668802-23.62893388 25.3395122.47225866 13.52371743 11.8161841 24.10286597 25.33900938 23.63063847 13.52382067-.47226227 24.10340443-11.81686812 23.63114129-25.34071397zm124.27345792 5.6663703c.35662135 10.21229838-7.63108192 18.77832225-17.84307 19.13493276-10.21086495.3565713-18.77776936-7.63135288-19.13439071-17.84365126-.35658213-10.21117507 7.63224426-18.77723816 17.84310922-19.13380945 10.21198807-.35661051 18.77776936 7.63135288 19.13435149 17.84252795zm5.99634498-.209397c-.4722355-13.52305414-11.8166047-24.1017266-25.34009347-23.62947593-13.52269716.47222303-24.10228112 11.81682889-23.6300572 25.33955143.47225511 13.5236159 11.81720548 24.1028303 25.3401327 23.63059924 13.52371873-.4722587 24.10228466-11.81672725 23.63001797-25.34067474z"/><path d="M246.38132958 302.84637073c-.13490573-3.86319422-3.37683809-6.88634504-7.24003231-6.75143931s-6.88634504 3.37683809-6.75143931 7.24003231 3.37683809 6.88634504 7.24003231 6.75143931 6.88634504-3.37683809 6.75143931-7.24003231z"/></g><g stroke-linecap="round" stroke-width="11"><path stroke="#ecb732" d="m70.5 377.5 74 77m-10-68-47 50m210-59-74 77m10-68 47 50"/><path stroke="#ffc73b" d="m214.5 207.5-49 49m39 0-49-49"/></g></g></svg>