<svg xmlns="http://www.w3.org/2000/svg" viewBox="0 0 2000 2000"><path fill="none" d="M1310 2001H1V1h2000v2000h-691M506.279266 597.049561c-16.332397-5.210999-33.007904-9.069214-50.123169-9.922608-19.228912-.958618-38.362579.195618-57.238159 4.795166-19.561218 4.766602-38.174743 11.942932-55.390045 22.176453-17.747772 10.550049-32.836822 24.608276-46.846374 39.694702-5.040131 5.427551-9.945588 11.272339-13.530762 17.697693-7.326386 13.130371-14.327088 26.516907-20.333496 40.289978-7.125443 16.339111-10.622956 33.891113-11.609101 51.578735-1.300033 23.317749-.218704 46.538086 6.631501 69.287049 5.279358 17.532409 12.290771 34.22882 22.015289 49.590576 9.484802 14.983032 20.671905 28.667358 34.155273 40.526001 11.186615 9.838623 22.984558 18.646911 36.02295 25.680175 18.537017 9.999329 38.074401 16.982178 58.972046 20.898011 18.8927 3.540161 37.68222 8.376831 55.928344 14.419861 19.769501 6.547607 39.186798 14.428405 58.155731 23.051879 21.331543 9.697388 41.550354 21.605835 60.114502 36.085938 12.559815 9.796631 25.610169 19.046265 37.48584 29.614136 10.751587 9.567749 20.670288 20.189209 30.119263 31.072754 11.758606 13.543701 23.821167 27.065918 33.658691 41.978637 15.127259 22.931641 28.998719 46.745484 42.377991 70.756348 8.201233 14.717895 15.033875 30.275635 21.510254 45.859741 10.16217 24.453125 20.212402 48.998291 28.986755 73.969483 8.154419 23.207031 14.795533 46.95874 21.697022 70.589111 5.92334 20.281494 11.357483 40.707641 16.850891 61.11206 4.823547 17.916382 12.389343 34.550171 22.48706 50.093995 9.553772 14.70642 20.42511 28.262207 33.78418 39.718017 4.841187 4.151489 9.335938 8.811524 14.579407 12.368775 14.086243 9.55664 28.69397 18.172363 44.763183 24.221435 19.886475 7.485596 40.400635 11.644898 61.534302 12.67627 13.690796.667968 27.280274-.592896 40.863098-2.791626 17.486451-2.830811 34.079224-8.257569 50.033326-15.650147 12.678344-5.875 24.807495-12.87854 35.308837-22.222046 9.86792-8.780151 20.226075-17.230346 28.826905-27.160766 12.410034-14.328858 22.971679-30.190308 29.841919-48.069458 4.089477-10.642456 7.893432-21.438355 11.042846-32.390381 9.737671-33.861572 18.731324-67.940552 28.765381-101.711792 4.921509-16.564087 11.018799-32.828858 17.446045-48.884033 10.09729-25.223511 20.725952-50.241089 31.544434-75.165894 4.008911-9.235962 9.102173-18.010132 13.861084-26.909302 4.052978-7.578735 8.013794-15.237304 12.585205-22.501953 8.779175-13.951294 17.397583-28.062134 27.127441-41.34143 10.989746-14.99878 22.630493-29.595093 34.932251-43.533326 9.198364-10.421997 19.526612-19.943359 30.020386-29.099609 11.753906-10.255859 23.804077-20.296631 36.540405-29.27478 22.990235-16.206421 47.494141-29.845764 73.438599-40.936707 24.963257-10.671448 50.613525-19.019958 76.991577-25.326111 19.178711-4.585083 39.13916-6.531006 57.176025-15.076416 13.91565-6.592895 27.93274-13.353393 40.729248-21.816772 12.295655-8.13208 23.826416-17.720886 32.993531-29.648194 4.648559-6.0484 9.604614-11.865905 14.128051-18.004089 9.286988-12.602417 15.976563-26.614929 21.700806-41.117065 6.421631-16.268616 10.820069-33.230286 11.805054-50.542115 1.354004-23.79895.304199-47.520996-6.487915-70.868591-7.974732-27.412842-20.966553-51.958374-39.484863-73.366272-8.704834-10.062988-18.995972-18.909668-29.345826-27.35437-13.216919-10.783936-28.157714-18.866394-44.056884-25.266296-18.561768-7.471619-37.828736-12.328186-57.622193-13.701111-19.351929-1.342285-38.792846-.215515-57.899536 4.262939-18.053223 4.231446-35.4646 10.37909-51.234009 19.931946-13.03186 7.89447-25.328979 17.201355-37.084961 26.929627-7.400879 6.124328-13.500244 13.934997-19.668457 21.413879-17.346435 21.032837-29.511474 44.913452-35.653564 71.39801-4.109375 17.719483-6.013184 35.940735-9.25 53.875-2.975952 16.489502-6.068482 32.972962-9.728027 49.320679-6.02063 26.894958-13.3667 53.44574-23.317627 79.186706-5.37146 13.894837-10.725708 27.837342-17.007569 41.33014-10.455688 22.457458-22.124878 44.325134-37.058471 64.202514-8.427369 11.217102-16.963379 22.439636-26.407959 32.785462-15.660279 17.154785-33.195679 32.360717-51.922364 46.142334-20.896484 15.37854-41.574218 31.144653-65.404785 41.894287-11.220825 5.061523-22.473022 10.308838-34.179687 13.975219-15.42688 4.83191-31.191651 8.803711-47.043213 11.992676-12.915772 2.598389-26.138184 4.404907-39.287598 4.902344-12.961304.490601-26.040649-.689453-38.995544-1.908813-11.640381-1.095459-23.332154-2.55542-34.736939-5.05896-25.730408-5.647828-50.613586-14.318604-73.842041-26.623414-15.861267-8.402221-30.794861-18.762207-45.392212-29.28833-16.09436-11.605713-31.886352-23.771362-46.756958-36.887085-11.099609-9.789794-20.771545-21.2583-30.641052-32.36853-15.68573-17.657471-28.11853-37.636352-39.379089-58.275452-12.585511-23.067443-23.247864-47.065551-31.832459-71.927734-10.446167-30.253479-19.385437-60.932434-25.00647-92.492493-3.743347-21.017273-7.843139-41.989196-10.846923-63.114502-2.489319-17.506652-6.949158-34.31427-14.115662-50.392944-12.928223-29.005554-31.411011-53.694153-56.484863-73.521789-17.217835-13.615357-36.173645-23.745911-57.286103-31.833435m687.596344.061401c-.60498-11.399292-.945068-22.820252-1.874756-34.192993-1.549194-18.95398-6.995361-37.032105-14.730957-54.227265-13.079223-29.072784-32.128784-53.719909-57.42163-73.383026-19.209839-14.934082-40.459961-25.734985-63.739502-32.86969-26.798951-8.213318-54.175721-9.479217-81.617188-6.153076-24.038147 2.913635-46.848816 10.649445-67.987182 22.869293-19.299378 11.156678-36.44452 24.754547-51.090271 41.721253-13.624512 15.783752-24.608338 33.049194-32.440918 52.285125-12.966004 31.843018-17.646912 64.765687-13.143921 99.05066 2.735901 20.829956 8.367492 40.735351 17.569519 59.464782 10.854614 22.093018 25.354675 41.5542 43.76709 58.212769 16.489929 14.91925 34.794677 26.621033 55.186462 35.245178 19.961975 8.442383 40.837585 13.419861 62.387268 14.70105 17.030212 1.012512 34.03241-.060425 50.887207-3.677734 40.444946-8.680115 74.949463-27.452576 102.995728-58.133118 14.751709-16.137329 27.107666-33.732727 35.248413-54.017883 4.030029-10.042115 7.619629-20.385315 10.068115-30.904297 2.680176-11.514282 3.813599-23.388672 5.936523-35.991028z"/><path fill="#4FC08D" d="M506.632996 597.243042c20.758728 7.894043 39.714538 18.024597 56.932373 31.639954 25.073852 19.827636 43.55664 44.516235 56.484863 73.521789 7.166504 16.078674 11.626343 32.886292 14.115662 50.392944 3.003784 21.125306 7.103576 42.097229 10.846923 63.114502 5.621033 31.560059 14.560303 62.239014 25.00647 92.492493 8.584595 24.862183 19.246948 48.860291 31.832459 71.927734 11.260559 20.6391 23.693359 40.617981 39.379089 58.275452 9.869507 11.11023 19.541443 22.578736 30.641052 32.36853 14.870606 13.115723 30.662598 25.281372 46.756958 36.887085 14.597351 10.526123 29.530945 20.886109 45.392212 29.28833 23.228455 12.30481 48.111633 20.975586 73.842041 26.623414 11.404785 2.50354 23.096558 3.963501 34.736939 5.05896 12.954895 1.21936 26.03424 2.399414 38.995544 1.908813 13.149414-.497437 26.371826-2.303955 39.287598-4.902344 15.851562-3.188965 31.616333-7.160766 47.043213-11.992676 11.706665-3.666381 22.958862-8.913696 34.179687-13.975219 23.830567-10.749634 44.508301-26.515747 65.404785-41.894287 18.726685-13.781617 36.262085-28.987549 51.922364-46.142334 9.44458-10.345826 17.98059-21.56836 26.407959-32.785462 14.933593-19.87738 26.602783-41.745056 37.058471-64.202514 6.281861-13.492798 11.636109-27.435303 17.007569-41.33014 9.950927-25.740966 17.296997-52.291748 23.317627-79.186706 3.659545-16.347717 6.752075-32.831177 9.728027-49.320679 3.236816-17.934265 5.140625-36.155517 9.25-53.875 6.14209-26.484558 18.307129-50.365173 35.653564-71.39801 6.168213-7.478882 12.267578-15.289551 19.668457-21.413879 11.755982-9.728272 24.053101-19.035157 37.084961-26.929627 15.769409-9.552856 33.180786-15.7005 51.234009-19.931946 19.10669-4.478454 38.547607-5.605224 57.899536-4.262939 19.793457 1.372925 39.060425 6.229492 57.622193 13.701111 15.89917 6.399902 30.839965 14.48236 44.056884 25.266296 10.349854 8.444702 20.640992 17.291382 29.345826 27.35437 18.51831 21.407898 31.510131 45.95343 39.484863 73.366272 6.792114 23.347595 7.841919 47.069641 6.487915 70.868591-.984985 17.311829-5.383423 34.273499-11.805054 50.542115-5.724243 14.502136-12.413818 28.514648-21.700806 41.117065-4.523437 6.138184-9.479492 11.955689-14.128051 18.004089-9.167115 11.927308-20.697876 21.516114-32.993531 29.648194-12.796508 8.463379-26.813598 15.223877-40.729248 21.816772-18.036865 8.54541-37.997314 10.491333-57.176025 15.076416-26.378052 6.306153-52.02832 14.654663-76.991577 25.326111-25.944458 11.090943-50.448364 24.730286-73.438599 40.936707-12.736328 8.978149-24.786499 19.018921-36.540405 29.27478-10.493774 9.15625-20.822022 18.677612-30.020386 29.099609-12.301758 13.938233-23.942505 28.534546-34.932251 43.533326-9.729858 13.279296-18.348266 27.390136-27.127441 41.34143-4.571411 7.264649-8.532227 14.923218-12.585205 22.501953-4.758911 8.89917-9.852173 17.67334-13.861084 26.909302-10.818482 24.924805-21.447144 49.942383-31.544434 75.165894-6.427246 16.055175-12.524536 32.319946-17.446045 48.884033-10.034057 33.77124-19.02771 67.85022-28.765381 101.711792-3.149414 10.952026-6.953369 21.747925-11.042846 32.390381-6.87024 17.87915-17.431885 33.7406-29.841919 48.069458-8.60083 9.93042-18.958985 18.380615-28.826905 27.160766-10.501342 9.343506-22.630493 16.347046-35.308837 22.222046-15.954102 7.392578-32.546875 12.819336-50.033326 15.650147-13.582824 2.19873-27.172302 3.459594-40.863098 2.791626-21.133667-1.031372-41.647827-5.190674-61.534302-12.67627-16.069213-6.049072-30.67694-14.664795-44.763183-24.221435-5.243469-3.557251-9.73822-8.217286-14.579407-12.368775-13.35907-11.45581-24.230408-25.011597-33.78418-39.718017-10.097717-15.543824-17.663513-32.177613-22.48706-50.093995-5.493408-20.404419-10.927551-40.830566-16.850891-61.11206-6.901489-23.630371-13.542603-47.38208-21.697022-70.589111-8.774353-24.971192-18.824585-49.516358-28.986755-73.969483-6.476379-15.584106-13.309021-31.141846-21.510254-45.859741-13.379272-24.010864-27.250732-47.824707-42.377991-70.756348-9.837524-14.912719-21.900085-28.434936-33.658691-41.978637-9.448975-10.883545-19.367676-21.505005-30.119263-31.072754-11.875671-10.567871-24.926025-19.817505-37.48584-29.614136-18.564148-14.480103-38.782959-26.38855-60.114502-36.085938-18.968933-8.623474-38.38623-16.504272-58.155731-23.051879-18.246124-6.04303-37.035644-10.8797-55.928344-14.419861-20.897645-3.915833-40.435029-10.898682-58.972046-20.898011-13.038392-7.033264-24.836335-15.841552-36.02295-25.680175-13.483368-11.858643-24.670471-25.542969-34.155273-40.526001-9.724518-15.361756-16.735931-32.058167-22.015289-49.590576-6.850205-22.748963-7.931534-45.9693-6.631501-69.287049.986145-17.687622 4.483658-35.239624 11.609101-51.578735 6.006408-13.773071 13.00711-27.159607 20.333496-40.289978 3.585174-6.425354 8.490631-12.270142 13.530762-17.697693 14.009552-15.086426 29.098602-29.144653 46.846374-39.694702 17.215302-10.233521 35.828827-17.409851 55.390045-22.176453 18.87558-4.599548 38.009247-5.753784 57.238159-4.795166 17.115265.853394 33.790772 4.711609 50.476899 10.116089z"/><path fill="#35495E" d="M1193.717896 597.553467c-1.96521 12.159851-3.098633 24.034241-5.778809 35.548523-2.448486 10.518982-6.038086 20.862182-10.068115 30.904297-8.140747 20.285156-20.496704 37.880554-35.248413 54.017883-28.046265 30.680542-62.550782 49.453003-102.995728 58.133118-16.854797 3.617309-33.856995 4.690246-50.887207 3.677734-21.549683-1.281189-42.425293-6.258667-62.387268-14.70105-20.391785-8.624145-38.696533-20.325928-55.186462-35.245178-18.412415-16.658569-32.912476-36.119751-43.76709-58.212769-9.202027-18.729431-14.833618-38.634826-17.569519-59.464782-4.502991-34.284973.177917-67.207642 13.143921-99.05066 7.83258-19.235931 18.816406-36.501373 32.440918-52.285125 14.645751-16.966706 31.790893-30.564575 51.090271-41.721253 21.138366-12.219848 43.949035-19.955658 67.987182-22.869293 27.441467-3.326141 54.818237-2.060242 81.617188 6.153076 23.279541 7.134705 44.529663 17.935608 63.739502 32.86969 25.292846 19.663117 44.342407 44.310242 57.42163 73.383026 7.735596 17.19516 13.181763 35.273285 14.730957 54.227265.929688 11.372741 1.269776 22.793701 1.717042 34.635498z"/></svg>